<svg id="Icons" xmlns="http://www.w3.org/2000/svg" viewBox="0 0 512 512"><defs><style>.cls-1{fill:#29a3fb;}.cls-2{fill:#f39e22;}.cls-3{fill:#f9c744;}.cls-4{fill:#efb732;}.cls-5{fill:#fbdb58;}.cls-6{fill:#f9eaa5;}.cls-7{fill:#f4e6f4;}.cls-8{fill:#fff;}.cls-9{fill:#decee5;}.cls-10{fill:#e52e44;}.cls-11{fill:#fa4654;}.cls-12{fill:#8c4735;}.cls-13{fill:#a05740;}.cls-14{fill:#b76049;}.cls-15{fill:#c2aacf;}</style></defs><title>019-beer-export</title><circle class="cls-1" cx="256" cy="256" r="256"/><path class="cls-2" d="M470.06,396.46a256.06,256.06,0,0,1-428.12,0Z"/><path class="cls-3" d="M470.06,396.46A256.49,256.49,0,0,1,452,420.69,256,256,0,0,1,97.51,396.46Z"/><path class="cls-4" d="M305.3,310v97.88a2,2,0,0,1-.59,1.44,2.61,2.61,0,0,1-.46.34,2,2,0,0,1-1,.25,2,2,0,0,1-2-2V310a2,2,0,0,1,2-2,2,2,0,0,1,2,2Z"/><path class="cls-5" d="M305.3,310v97.88a2,2,0,0,1-.59,1.44,2.61,2.61,0,0,1-.46.34,2.06,2.06,0,0,1-1.05-1.78V310a1.2,1.2,0,1,1,2.1,0Z"/><path class="cls-4" d="M298.6,361.17v6.13a.59.59,0,0,1-.93.48c-5.66-3.94-16.91.1-17.42-20.25a.59.59,0,0,1,1-.43l.52.52,4,4a7.87,7.87,0,0,0,5.57,2.31,7.2,7.2,0,0,1,7.21,7.2Z"/><path class="cls-5" d="M298.6,361.17v3.19c-5.45-3.29-15.28-.5-16.82-16.74l4,4a7.87,7.87,0,0,0,5.57,2.31,7.2,7.2,0,0,1,7.21,7.2Z"/><ellipse class="cls-6" cx="289.28" cy="356.25" rx="1.87" ry="3.03" transform="matrix(0.28, -0.96, 0.96, 0.28, -133.36, 535.06)"/><ellipse class="cls-6" cx="294.84" cy="358.89" rx="1.3" ry="2.11" transform="translate(-169.42 372.82) rotate(-52.31)"/><path class="cls-4" d="M298.6,345.53v6.12a.6.6,0,0,1-.93.49c-5.66-3.95-16.91.09-17.42-20.26a.59.59,0,0,1,1-.43l.52.52,4,4a7.87,7.87,0,0,0,5.57,2.31,7.2,7.2,0,0,1,7.21,7.21Z"/><path class="cls-5" d="M298.6,345.53v3.18c-5.45-3.29-15.28-.49-16.82-16.74l4,4a7.87,7.87,0,0,0,5.57,2.31,7.2,7.2,0,0,1,7.21,7.21Z"/><ellipse class="cls-6" cx="289.28" cy="340.6" rx="1.87" ry="3.03" transform="translate(-118.33 523.76) rotate(-73.85)"/><ellipse class="cls-6" cx="294.84" cy="343.25" rx="1.3" ry="2.11" transform="translate(-157.04 366.74) rotate(-52.31)"/><path class="cls-4" d="M298.6,329.88V336a.59.59,0,0,1-.93.49c-5.66-3.94-16.91.1-17.42-20.26a.59.59,0,0,1,1-.43l.52.52,4,4.05a7.9,7.9,0,0,0,5.57,2.3,7.22,7.22,0,0,1,7.21,7.21Z"/><path class="cls-5" d="M298.6,329.88v3.19c-5.45-3.29-15.28-.5-16.82-16.75l4,4.05a7.9,7.9,0,0,0,5.57,2.3,7.22,7.22,0,0,1,7.21,7.21Z"/><ellipse class="cls-6" cx="289.28" cy="324.96" rx="1.87" ry="3.03" transform="translate(-103.3 512.47) rotate(-73.85)"/><ellipse class="cls-6" cx="294.84" cy="327.6" rx="1.3" ry="2.11" transform="translate(-144.66 360.66) rotate(-52.31)"/><path class="cls-4" d="M298.6,314.24v6.12a.59.59,0,0,1-.93.48c-5.66-3.94-16.91.1-17.42-20.25a.59.59,0,0,1,1-.43l.52.52,4,4a7.87,7.87,0,0,0,5.57,2.31,7.2,7.2,0,0,1,7.21,7.21Z"/><path class="cls-5" d="M298.6,314.24v3.18c-5.45-3.29-15.28-.5-16.82-16.74l4,4a7.87,7.87,0,0,0,5.57,2.31,7.2,7.2,0,0,1,7.21,7.21Z"/><ellipse class="cls-6" cx="289.28" cy="309.31" rx="1.87" ry="3.03" transform="translate(-88.27 501.17) rotate(-73.85)"/><ellipse class="cls-6" cx="294.84" cy="311.95" rx="1.3" ry="2.11" transform="translate(-132.28 354.57) rotate(-52.31)"/><path class="cls-4" d="M300.88,300.63l-.54,6.09a.59.59,0,0,1-1,.41c-5.3-4.42-16.86-1.38-15.59-21.7a.59.59,0,0,1,1-.34l.47.56L289,290a7.86,7.86,0,0,0,5.34,2.79,7.2,7.2,0,0,1,6.56,7.81Z"/><path class="cls-5" d="M300.88,300.63l-.28,3.17c-5.15-3.75-15.18-1.83-15.3-18.15L289,290a7.86,7.86,0,0,0,5.34,2.79,7.2,7.2,0,0,1,6.56,7.81Z"/><ellipse class="cls-6" cx="292.02" cy="294.91" rx="1.87" ry="3.03" transform="translate(-88.37 460.89) rotate(-68.85)"/><ellipse class="cls-6" cx="297.33" cy="298.02" rx="1.3" ry="2.11" transform="translate(-123.32 314.53) rotate(-47.31)"/><path class="cls-4" d="M307.94,361.17v6.13a.59.59,0,0,0,.93.48c5.67-3.94,16.91.1,17.42-20.25a.59.59,0,0,0-1-.43l-.52.52-4,4a7.87,7.87,0,0,1-5.57,2.31,7.22,7.22,0,0,0-7.21,7.2Z"/><path class="cls-5" d="M307.94,361.17v3.19c5.45-3.29,15.28-.5,16.82-16.74l-4,4a7.87,7.87,0,0,1-5.57,2.31,7.22,7.22,0,0,0-7.21,7.2Z"/><ellipse class="cls-6" cx="317.26" cy="356.25" rx="3.03" ry="1.87" transform="translate(-86.55 102.27) rotate(-16.15)"/><ellipse class="cls-6" cx="311.7" cy="358.89" rx="2.11" ry="1.3" transform="translate(-154.37 265.43) rotate(-37.69)"/><path class="cls-4" d="M307.94,345.53v6.12a.6.6,0,0,0,.93.49c5.67-3.95,16.91.09,17.42-20.26a.59.59,0,0,0-1-.43l-.52.52-4,4a7.87,7.87,0,0,1-5.57,2.31,7.22,7.22,0,0,0-7.21,7.21Z"/><path class="cls-5" d="M307.94,345.53v3.18c5.45-3.29,15.28-.49,16.82-16.74l-4,4a7.87,7.87,0,0,1-5.57,2.31,7.22,7.22,0,0,0-7.21,7.21Z"/><ellipse class="cls-6" cx="317.26" cy="340.6" rx="3.03" ry="1.87" transform="translate(-82.2 101.65) rotate(-16.15)"/><ellipse class="cls-6" cx="311.7" cy="343.25" rx="2.11" ry="1.3" transform="translate(-144.81 262.16) rotate(-37.69)"/><path class="cls-4" d="M307.94,329.88V336a.59.59,0,0,0,.93.49c5.67-3.94,16.91.1,17.42-20.26a.59.59,0,0,0-1-.43l-.52.52-4,4.05a7.9,7.9,0,0,1-5.57,2.3,7.24,7.24,0,0,0-7.21,7.21Z"/><path class="cls-5" d="M307.94,329.88v3.19c5.45-3.29,15.28-.5,16.82-16.75l-4,4.05a7.9,7.9,0,0,1-5.57,2.3,7.24,7.24,0,0,0-7.21,7.21Z"/><ellipse class="cls-6" cx="317.26" cy="324.96" rx="3.03" ry="1.87" transform="translate(-77.85 101.04) rotate(-16.15)"/><ellipse class="cls-6" cx="311.7" cy="327.6" rx="2.11" ry="1.3" transform="translate(-135.24 258.9) rotate(-37.69)"/><path class="cls-4" d="M307.94,314.24v6.12a.59.59,0,0,0,.93.48c5.67-3.94,16.91.1,17.42-20.25a.59.59,0,0,0-1-.43l-.52.52-4,4a7.87,7.87,0,0,1-5.57,2.31,7.22,7.22,0,0,0-7.21,7.21Z"/><path class="cls-5" d="M307.94,314.24v3.18c5.45-3.29,15.28-.5,16.82-16.74l-4,4a7.87,7.87,0,0,1-5.57,2.31,7.22,7.22,0,0,0-7.21,7.21Z"/><ellipse class="cls-6" cx="317.26" cy="309.31" rx="3.03" ry="1.87" transform="translate(-73.5 100.42) rotate(-16.15)"/><ellipse class="cls-6" cx="311.7" cy="311.95" rx="2.11" ry="1.3" transform="translate(-125.68 255.63) rotate(-37.69)"/><path class="cls-4" d="M305.67,300.63l.53,6.09a.59.59,0,0,0,1,.41c5.31-4.42,16.86-1.38,15.59-21.7a.59.59,0,0,0-1-.34l-.47.56L317.56,290a7.86,7.86,0,0,1-5.34,2.79,7.18,7.18,0,0,0-6.55,7.81Z"/><path class="cls-5" d="M305.67,300.63l.27,3.17c5.15-3.75,15.18-1.83,15.3-18.15L317.56,290a7.86,7.86,0,0,1-5.34,2.79,7.18,7.18,0,0,0-6.55,7.81Z"/><ellipse class="cls-6" cx="314.52" cy="294.91" rx="3.03" ry="1.87" transform="translate(-85.21 133.31) rotate(-21.15)"/><ellipse class="cls-6" cx="309.21" cy="298.02" rx="2.11" ry="1.3" transform="translate(-120.14 288.59) rotate(-42.69)"/><path class="cls-4" d="M302.15,287.18l-1.59,5.91a.59.59,0,0,1-1,.23c-4.45-5.27-16.36-4.28-11.58-24.08a.59.59,0,0,1,1.08-.15l.37.64,2.86,4.95a7.85,7.85,0,0,0,4.78,3.67,7.21,7.21,0,0,1,5.1,8.83Z"/><path class="cls-5" d="M302.15,287.18l-.83,3.07c-4.41-4.59-14.63-4.43-11.91-20.52l2.86,4.95a7.85,7.85,0,0,0,4.78,3.67,7.21,7.21,0,0,1,5.1,8.83Z"/><ellipse class="cls-6" cx="294.42" cy="280.01" rx="1.87" ry="3.03" transform="matrix(0.52, -0.86, 0.86, 0.52, -97.5, 387.17)"/><ellipse class="cls-6" cx="299.11" cy="284" rx="1.3" ry="2.11" transform="translate(-110.94 239.44) rotate(-37.31)"/><path class="cls-4" d="M304.4,287.18l1.58,5.91a.59.59,0,0,0,1,.23c4.45-5.27,16.36-4.28,11.58-24.08a.59.59,0,0,0-1.08-.15l-.37.64-2.86,4.95a7.85,7.85,0,0,1-4.78,3.67,7.21,7.21,0,0,0-5.09,8.83Z"/><path class="cls-5" d="M304.4,287.18l.82,3.07c4.41-4.59,14.63-4.43,11.91-20.52l-2.86,4.95a7.85,7.85,0,0,1-4.78,3.67,7.21,7.21,0,0,0-5.09,8.83Z"/><ellipse class="cls-6" cx="312.12" cy="280.01" rx="3.03" ry="1.87" transform="translate(-99.83 201.79) rotate(-31.15)"/><ellipse class="cls-6" cx="307.43" cy="284" rx="2.11" ry="1.3" transform="translate(-104.8 356.35) rotate(-52.69)"/><path class="cls-4" d="M352.74,240V407.88a2.07,2.07,0,0,1-.59,1.44,2.61,2.61,0,0,1-.46.34,2,2,0,0,1-1,.25,2,2,0,0,1-2-2V240a2,2,0,0,1,2-2,2,2,0,0,1,2,2Z"/><path class="cls-5" d="M352.74,240V407.88a2.07,2.07,0,0,1-.59,1.44,2.61,2.61,0,0,1-.46.34,2.06,2.06,0,0,1-1.05-1.78V240a1.2,1.2,0,1,1,2.1,0Z"/><path class="cls-4" d="M346,291.17v6.13a.59.59,0,0,1-.93.48c-5.67-3.94-16.91.1-17.42-20.25a.59.59,0,0,1,1-.43l.52.52,4,4a7.87,7.87,0,0,0,5.57,2.31,7.22,7.22,0,0,1,7.21,7.2Z"/><path class="cls-5" d="M346,291.17v3.19c-5.45-3.29-15.28-.5-16.82-16.74l4,4a7.87,7.87,0,0,0,5.57,2.31,7.22,7.22,0,0,1,7.21,7.2Z"/><ellipse class="cls-6" cx="336.72" cy="286.25" rx="1.87" ry="3.03" transform="matrix(0.28, -0.96, 0.96, 0.28, -31.87, 530.09)"/><ellipse class="cls-6" cx="342.28" cy="288.89" rx="1.3" ry="2.11" transform="translate(-95.59 383.15) rotate(-52.31)"/><path class="cls-4" d="M346,275.53v6.12a.6.6,0,0,1-.93.49c-5.67-3.95-16.91.09-17.42-20.26a.59.59,0,0,1,1-.43l.52.52,4,4a7.87,7.87,0,0,0,5.57,2.31,7.22,7.22,0,0,1,7.21,7.21Z"/><path class="cls-5" d="M346,275.53v3.18c-5.45-3.29-15.28-.49-16.82-16.74l4,4a7.87,7.87,0,0,0,5.57,2.31,7.22,7.22,0,0,1,7.21,7.21Z"/><ellipse class="cls-6" cx="336.72" cy="270.6" rx="1.87" ry="3.03" transform="translate(-16.84 518.79) rotate(-73.85)"/><ellipse class="cls-6" cx="342.28" cy="273.25" rx="1.3" ry="2.11" transform="translate(-83.21 377.07) rotate(-52.31)"/><path class="cls-4" d="M346,259.88V266a.59.59,0,0,1-.93.49c-5.67-3.94-16.91.1-17.42-20.26a.59.59,0,0,1,1-.43l.52.52,4,4.05a7.9,7.9,0,0,0,5.57,2.3,7.24,7.24,0,0,1,7.21,7.21Z"/><path class="cls-5" d="M346,259.88v3.19c-5.45-3.29-15.28-.5-16.82-16.75l4,4.05a7.9,7.9,0,0,0,5.57,2.3,7.24,7.24,0,0,1,7.21,7.21Z"/><ellipse class="cls-6" cx="336.72" cy="254.96" rx="1.87" ry="3.03" transform="translate(-1.81 507.5) rotate(-73.85)"/><ellipse class="cls-6" cx="342.28" cy="257.6" rx="1.3" ry="2.11" transform="translate(-70.82 370.99) rotate(-52.31)"/><path class="cls-4" d="M346,244.24v6.12a.59.59,0,0,1-.93.48c-5.67-3.94-16.91.1-17.42-20.25a.59.59,0,0,1,1-.43l.52.52,4,4a7.87,7.87,0,0,0,5.57,2.31,7.22,7.22,0,0,1,7.21,7.21Z"/><path class="cls-5" d="M346,244.24v3.18c-5.45-3.29-15.28-.5-16.82-16.74l4,4a7.87,7.87,0,0,0,5.57,2.31,7.22,7.22,0,0,1,7.21,7.21Z"/><ellipse class="cls-6" cx="336.72" cy="239.31" rx="1.87" ry="3.03" transform="matrix(0.28, -0.96, 0.96, 0.28, 13.22, 496.2)"/><ellipse class="cls-6" cx="342.28" cy="241.95" rx="1.3" ry="2.11" transform="translate(-58.44 364.91) rotate(-52.31)"/><path class="cls-4" d="M348.31,230.63l-.53,6.09a.59.59,0,0,1-1,.41c-5.31-4.42-16.86-1.38-15.59-21.7a.59.59,0,0,1,1-.34l.47.56,3.68,4.38a7.86,7.86,0,0,0,5.34,2.79,7.18,7.18,0,0,1,6.55,7.81Z"/><path class="cls-5" d="M348.31,230.63,348,233.8c-5.15-3.75-15.18-1.83-15.3-18.15l3.68,4.38a7.86,7.86,0,0,0,5.34,2.79,7.18,7.18,0,0,1,6.55,7.81Z"/><ellipse class="cls-6" cx="339.46" cy="224.91" rx="1.87" ry="3.03" transform="translate(7.24 460.38) rotate(-68.85)"/><ellipse class="cls-6" cx="344.77" cy="228.02" rx="1.3" ry="2.11" transform="translate(-56.59 326.86) rotate(-47.31)"/><path class="cls-4" d="M355.38,291.17v6.13a.59.59,0,0,0,.93.48c5.66-3.94,16.91.1,17.42-20.25a.59.59,0,0,0-1-.43l-.52.52-4,4a7.87,7.87,0,0,1-5.57,2.31,7.2,7.2,0,0,0-7.21,7.2Z"/><path class="cls-5" d="M355.38,291.17v3.19c5.45-3.29,15.28-.5,16.82-16.74l-4,4a7.87,7.87,0,0,1-5.57,2.31,7.2,7.2,0,0,0-7.21,7.2Z"/><ellipse class="cls-6" cx="364.7" cy="286.25" rx="3.03" ry="1.87" transform="translate(-65.21 112.7) rotate(-16.15)"/><ellipse class="cls-6" cx="359.14" cy="288.89" rx="2.11" ry="1.3" transform="translate(-101.68 279.82) rotate(-37.69)"/><path class="cls-4" d="M355.38,275.53v6.12a.6.6,0,0,0,.93.49c5.66-3.95,16.91.09,17.42-20.26a.59.59,0,0,0-1-.43l-.52.52-4,4a7.87,7.87,0,0,1-5.57,2.31,7.2,7.2,0,0,0-7.21,7.21Z"/><path class="cls-5" d="M355.38,275.53v3.18c5.45-3.29,15.28-.49,16.82-16.74l-4,4a7.87,7.87,0,0,1-5.57,2.31,7.2,7.2,0,0,0-7.21,7.21Z"/><ellipse class="cls-6" cx="364.7" cy="270.6" rx="3.03" ry="1.87" transform="matrix(0.96, -0.28, 0.28, 0.96, -60.86, 112.08)"/><ellipse class="cls-6" cx="359.14" cy="273.25" rx="2.11" ry="1.3" transform="translate(-92.12 276.56) rotate(-37.69)"/><path class="cls-4" d="M355.38,259.88V266a.59.59,0,0,0,.93.49c5.66-3.94,16.91.1,17.42-20.26a.59.59,0,0,0-1-.43l-.52.52-4,4.05a7.9,7.9,0,0,1-5.57,2.3,7.22,7.22,0,0,0-7.21,7.21Z"/><path class="cls-5" d="M355.38,259.88v3.19c5.45-3.29,15.28-.5,16.82-16.75l-4,4.05a7.9,7.9,0,0,1-5.57,2.3,7.22,7.22,0,0,0-7.21,7.21Z"/><ellipse class="cls-6" cx="364.7" cy="254.96" rx="3.03" ry="1.87" transform="matrix(0.96, -0.28, 0.28, 0.96, -56.51, 111.47)"/><ellipse class="cls-6" cx="359.14" cy="257.6" rx="2.11" ry="1.3" transform="translate(-82.55 273.3) rotate(-37.69)"/><path class="cls-4" d="M355.38,244.24v6.12a.59.59,0,0,0,.93.48c5.66-3.94,16.91.1,17.42-20.25a.59.59,0,0,0-1-.43l-.52.52-4,4a7.87,7.87,0,0,1-5.57,2.31,7.2,7.2,0,0,0-7.21,7.21Z"/><path class="cls-5" d="M355.38,244.24v3.18c5.45-3.29,15.28-.5,16.82-16.74l-4,4a7.87,7.87,0,0,1-5.57,2.31,7.2,7.2,0,0,0-7.21,7.21Z"/><ellipse class="cls-6" cx="364.7" cy="239.31" rx="3.03" ry="1.87" transform="translate(-52.16 110.85) rotate(-16.15)"/><ellipse class="cls-6" cx="359.14" cy="241.95" rx="2.11" ry="1.3" transform="translate(-72.99 270.03) rotate(-37.69)"/><path class="cls-4" d="M353.1,230.63l.54,6.09a.59.59,0,0,0,1,.41c5.3-4.42,16.86-1.38,15.59-21.7a.59.59,0,0,0-1-.34l-.47.56L365,220a7.86,7.86,0,0,1-5.34,2.79,7.2,7.2,0,0,0-6.56,7.81Z"/><path class="cls-5" d="M353.1,230.63l.28,3.17c5.15-3.75,15.18-1.83,15.3-18.15L365,220a7.86,7.86,0,0,1-5.34,2.79,7.2,7.2,0,0,0-6.56,7.81Z"/><ellipse class="cls-6" cx="361.96" cy="224.91" rx="3.03" ry="1.87" transform="translate(-56.76 145.71) rotate(-21.15)"/><ellipse class="cls-6" cx="356.65" cy="228.02" rx="2.11" ry="1.3" transform="translate(-60.11 302.21) rotate(-42.69)"/><path class="cls-4" d="M349.58,217.18,348,223.09a.59.59,0,0,1-1,.23c-4.45-5.27-16.36-4.28-11.58-24.08a.59.59,0,0,1,1.08-.15l.37.64,2.86,5a7.85,7.85,0,0,0,4.78,3.67,7.21,7.21,0,0,1,5.09,8.83Z"/><path class="cls-5" d="M349.58,217.18l-.82,3.07c-4.41-4.59-14.63-4.43-11.91-20.52l2.86,5a7.85,7.85,0,0,0,4.78,3.67,7.21,7.21,0,0,1,5.09,8.83Z"/><ellipse class="cls-6" cx="341.86" cy="210.01" rx="1.87" ry="3.03" transform="translate(-14.69 393.97) rotate(-58.85)"/><ellipse class="cls-6" cx="346.55" cy="214" rx="1.3" ry="2.11" transform="translate(-58.79 253.87) rotate(-37.31)"/><path class="cls-4" d="M351.83,217.18l1.59,5.91a.59.59,0,0,0,1,.23c4.45-5.27,16.36-4.28,11.58-24.08a.59.59,0,0,0-1.08-.15l-.37.64-2.86,5a7.85,7.85,0,0,1-4.78,3.67,7.21,7.21,0,0,0-5.1,8.83Z"/><path class="cls-5" d="M351.83,217.18l.83,3.07c4.41-4.59,14.63-4.43,11.91-20.52l-2.86,5a7.85,7.85,0,0,1-4.78,3.67,7.21,7.21,0,0,0-5.1,8.83Z"/><ellipse class="cls-6" cx="359.56" cy="210.01" rx="3.03" ry="1.87" transform="translate(-56.79 216.24) rotate(-31.15)"/><ellipse class="cls-6" cx="354.87" cy="214" rx="2.11" ry="1.3" transform="translate(-30.45 366.52) rotate(-52.69)"/><path class="cls-4" d="M400.18,310v97.88a2.07,2.07,0,0,1-.59,1.44,2.61,2.61,0,0,1-.46.34,2,2,0,0,1-3-1.78V310a2,2,0,1,1,4.06,0Z"/><path class="cls-5" d="M400.18,310v97.88a2.07,2.07,0,0,1-.59,1.44,2.61,2.61,0,0,1-.46.34,2,2,0,0,1-1.05-1.78V310a1.2,1.2,0,1,1,2.1,0Z"/><path class="cls-4" d="M393.47,361.17v6.13a.59.59,0,0,1-.92.48c-5.67-3.94-16.91.1-17.42-20.25a.58.58,0,0,1,1-.43l.52.52,4.05,4a7.87,7.87,0,0,0,5.57,2.31,7.2,7.2,0,0,1,7.2,7.2Z"/><path class="cls-5" d="M393.47,361.17v3.19c-5.45-3.29-15.27-.5-16.82-16.74l4.05,4a7.87,7.87,0,0,0,5.57,2.31,7.2,7.2,0,0,1,7.2,7.2Z"/><ellipse class="cls-6" cx="384.16" cy="356.25" rx="1.87" ry="3.03" transform="translate(-64.86 626.19) rotate(-73.85)"/><ellipse class="cls-6" cx="389.72" cy="358.89" rx="1.3" ry="2.11" transform="translate(-132.55 447.9) rotate(-52.31)"/><path class="cls-4" d="M393.47,345.53v6.12a.59.59,0,0,1-.92.49c-5.67-3.95-16.91.09-17.42-20.26a.58.58,0,0,1,1-.43l.52.52,4.05,4a7.87,7.87,0,0,0,5.57,2.31,7.2,7.2,0,0,1,7.2,7.21Z"/><path class="cls-5" d="M393.47,345.53v3.18c-5.45-3.29-15.27-.49-16.82-16.74l4.05,4a7.87,7.87,0,0,0,5.57,2.31,7.2,7.2,0,0,1,7.2,7.21Z"/><ellipse class="cls-6" cx="384.16" cy="340.6" rx="1.87" ry="3.03" transform="translate(-49.83 614.9) rotate(-73.85)"/><ellipse class="cls-6" cx="389.72" cy="343.25" rx="1.3" ry="2.11" transform="translate(-120.16 441.82) rotate(-52.31)"/><path class="cls-4" d="M393.47,329.88V336a.59.59,0,0,1-.92.49c-5.67-3.94-16.91.1-17.42-20.26a.58.58,0,0,1,1-.43l.52.52,4.05,4.05a7.9,7.9,0,0,0,5.57,2.3,7.22,7.22,0,0,1,7.2,7.21Z"/><path class="cls-5" d="M393.47,329.88v3.19c-5.45-3.29-15.27-.5-16.82-16.75l4.05,4.05a7.9,7.9,0,0,0,5.57,2.3,7.22,7.22,0,0,1,7.2,7.21Z"/><ellipse class="cls-6" cx="384.16" cy="324.96" rx="1.87" ry="3.03" transform="translate(-34.8 603.6) rotate(-73.85)"/><ellipse class="cls-6" cx="389.72" cy="327.6" rx="1.3" ry="2.11" transform="translate(-107.78 435.74) rotate(-52.31)"/><path class="cls-4" d="M393.47,314.24v6.12a.59.59,0,0,1-.92.48c-5.67-3.94-16.91.1-17.42-20.25a.58.58,0,0,1,1-.43l.52.52,4.05,4a7.87,7.87,0,0,0,5.57,2.31,7.2,7.2,0,0,1,7.2,7.21Z"/><path class="cls-5" d="M393.47,314.24v3.18c-5.45-3.29-15.27-.5-16.82-16.74l4.05,4a7.87,7.87,0,0,0,5.57,2.31,7.2,7.2,0,0,1,7.2,7.21Z"/><ellipse class="cls-6" cx="384.16" cy="309.31" rx="1.87" ry="3.03" transform="translate(-19.77 592.31) rotate(-73.85)"/><ellipse class="cls-6" cx="389.72" cy="311.95" rx="1.3" ry="2.11" transform="translate(-95.4 429.66) rotate(-52.31)"/><path class="cls-4" d="M395.75,300.63l-.53,6.09a.59.59,0,0,1-1,.41c-5.31-4.42-16.86-1.38-15.59-21.7a.59.59,0,0,1,1-.34l.47.56,3.68,4.38a7.86,7.86,0,0,0,5.34,2.79,7.2,7.2,0,0,1,6.55,7.81Z"/><path class="cls-5" d="M395.75,300.63l-.27,3.17c-5.15-3.75-15.18-1.83-15.3-18.15l3.68,4.38a7.86,7.86,0,0,0,5.34,2.79,7.2,7.2,0,0,1,6.55,7.81Z"/><ellipse class="cls-6" cx="386.9" cy="294.91" rx="1.87" ry="3.03" transform="translate(-27.72 549.37) rotate(-68.85)"/><ellipse class="cls-6" cx="392.21" cy="298.02" rx="1.3" ry="2.11" transform="translate(-92.77 384.28) rotate(-47.31)"/><path class="cls-4" d="M402.82,361.17v6.13a.59.59,0,0,0,.92.48c5.67-3.94,16.92.1,17.43-20.25a.59.59,0,0,0-1-.43l-.52.52-4,4A7.87,7.87,0,0,1,410,354a7.2,7.2,0,0,0-7.21,7.2Z"/><path class="cls-5" d="M402.82,361.17v3.19c5.45-3.29,15.28-.5,16.82-16.74l-4,4A7.87,7.87,0,0,1,410,354a7.2,7.2,0,0,0-7.21,7.2Z"/><ellipse class="cls-6" cx="412.14" cy="356.25" rx="3.03" ry="1.87" transform="translate(-82.81 128.65) rotate(-16.15)"/><ellipse class="cls-6" cx="406.58" cy="358.89" rx="2.11" ry="1.3" transform="translate(-134.58 323.43) rotate(-37.69)"/><path class="cls-4" d="M402.82,345.53v6.12a.59.59,0,0,0,.92.49c5.67-3.95,16.92.09,17.43-20.26a.59.59,0,0,0-1-.43l-.52.52-4,4a7.87,7.87,0,0,1-5.57,2.31,7.2,7.2,0,0,0-7.21,7.21Z"/><path class="cls-5" d="M402.82,345.53v3.18c5.45-3.29,15.28-.49,16.82-16.74l-4,4a7.87,7.87,0,0,1-5.57,2.31,7.2,7.2,0,0,0-7.21,7.21Z"/><ellipse class="cls-6" cx="412.14" cy="340.6" rx="3.03" ry="1.87" transform="translate(-78.46 128.04) rotate(-16.15)"/><ellipse class="cls-6" cx="406.58" cy="343.25" rx="2.11" ry="1.3" transform="translate(-125.01 320.16) rotate(-37.69)"/><path class="cls-4" d="M402.82,329.88V336a.59.59,0,0,0,.92.49c5.67-3.94,16.92.1,17.43-20.26a.59.59,0,0,0-1-.43l-.52.52-4,4.05a7.9,7.9,0,0,1-5.57,2.3,7.22,7.22,0,0,0-7.21,7.21Z"/><path class="cls-5" d="M402.82,329.88v3.19c5.45-3.29,15.28-.5,16.82-16.75l-4,4.05a7.9,7.9,0,0,1-5.57,2.3,7.22,7.22,0,0,0-7.21,7.21Z"/><ellipse class="cls-6" cx="412.14" cy="324.96" rx="3.03" ry="1.87" transform="translate(-74.11 127.42) rotate(-16.15)"/><ellipse class="cls-6" cx="406.58" cy="327.6" rx="2.11" ry="1.3" transform="translate(-115.45 316.9) rotate(-37.69)"/><path class="cls-4" d="M402.82,314.24v6.12a.59.59,0,0,0,.92.48c5.67-3.94,16.92.1,17.43-20.25a.59.59,0,0,0-1-.43l-.52.52-4,4A7.87,7.87,0,0,1,410,307a7.2,7.2,0,0,0-7.21,7.21Z"/><path class="cls-5" d="M402.82,314.24v3.18c5.45-3.29,15.28-.5,16.82-16.74l-4,4A7.87,7.87,0,0,1,410,307a7.2,7.2,0,0,0-7.21,7.21Z"/><ellipse class="cls-6" cx="412.14" cy="309.31" rx="3.03" ry="1.87" transform="translate(-69.76 126.8) rotate(-16.15)"/><ellipse class="cls-6" cx="406.58" cy="311.95" rx="2.11" ry="1.3" transform="translate(-105.88 313.64) rotate(-37.69)"/><path class="cls-4" d="M400.54,300.63l.54,6.09a.59.59,0,0,0,1,.41c5.3-4.42,16.86-1.38,15.59-21.7a.59.59,0,0,0-1-.34l-.47.56L412.44,290a7.88,7.88,0,0,1-5.35,2.79,7.2,7.2,0,0,0-6.55,7.81Z"/><path class="cls-5" d="M400.54,300.63l.28,3.17c5.14-3.75,15.18-1.83,15.3-18.15L412.44,290a7.88,7.88,0,0,1-5.35,2.79,7.2,7.2,0,0,0-6.55,7.81Z"/><ellipse class="cls-6" cx="409.39" cy="294.91" rx="3.03" ry="1.87" transform="translate(-78.82 167.54) rotate(-21.15)"/><ellipse class="cls-6" cx="404.08" cy="298.02" rx="2.11" ry="1.3" transform="translate(-95 352.91) rotate(-42.69)"/><path class="cls-4" d="M397,287.18l-1.58,5.91a.59.59,0,0,1-1,.23c-4.45-5.27-16.36-4.28-11.59-24.08a.6.6,0,0,1,1.09-.15l.37.64,2.86,4.95a7.85,7.85,0,0,0,4.78,3.67,7.21,7.21,0,0,1,5.09,8.83Z"/><path class="cls-5" d="M397,287.18l-.82,3.07c-4.41-4.59-14.63-4.43-11.91-20.52l2.86,4.95a7.85,7.85,0,0,0,4.78,3.67,7.21,7.21,0,0,1,5.09,8.83Z"/><ellipse class="cls-6" cx="389.3" cy="280.01" rx="1.87" ry="3.03" transform="translate(-51.7 468.37) rotate(-58.85)"/><ellipse class="cls-6" cx="393.99" cy="284" rx="1.3" ry="2.11" transform="translate(-91.52 296.95) rotate(-37.31)"/><path class="cls-4" d="M399.27,287.18l1.59,5.91a.58.58,0,0,0,1,.23c4.46-5.27,16.37-4.28,11.59-24.08a.59.59,0,0,0-1.08-.15l-.37.64-2.86,4.95a7.85,7.85,0,0,1-4.78,3.67,7.21,7.21,0,0,0-5.1,8.83Z"/><path class="cls-5" d="M399.27,287.18l.83,3.07c4.41-4.59,14.62-4.43,11.91-20.52l-2.86,4.95a7.85,7.85,0,0,1-4.78,3.67,7.21,7.21,0,0,0-5.1,8.83Z"/><ellipse class="cls-6" cx="407" cy="280.01" rx="3.03" ry="1.87" transform="translate(-86.16 250.86) rotate(-31.15)"/><ellipse class="cls-6" cx="402.31" cy="284" rx="2.11" ry="1.3" transform="translate(-67.44 431.81) rotate(-52.69)"/><path class="cls-4" d="M447.62,240V407.88a2,2,0,0,1-.6,1.44,2.22,2.22,0,0,1-.45.34,2,2,0,0,1-3-1.78V240a2,2,0,0,1,3-1.78A2,2,0,0,1,447.62,240Z"/><path class="cls-5" d="M447.62,240V407.88a2,2,0,0,1-.6,1.44,2.22,2.22,0,0,1-.45.34,2,2,0,0,1-1.05-1.78V240a1.2,1.2,0,1,1,2.1,0Z"/><path class="cls-4" d="M440.91,291.17v6.13a.59.59,0,0,1-.92.48c-5.67-3.94-16.92.1-17.42-20.25a.58.58,0,0,1,1-.43l.52.52,4.05,4a7.87,7.87,0,0,0,5.57,2.31,7.2,7.2,0,0,1,7.2,7.2Z"/><path class="cls-5" d="M440.91,291.17v3.19c-5.45-3.29-15.27-.5-16.82-16.74l4.05,4a7.87,7.87,0,0,0,5.57,2.31,7.2,7.2,0,0,1,7.2,7.2Z"/><ellipse class="cls-6" cx="431.6" cy="286.25" rx="1.87" ry="3.03" transform="translate(36.62 621.23) rotate(-73.85)"/><ellipse class="cls-6" cx="437.16" cy="288.89" rx="1.3" ry="2.11" transform="translate(-58.71 458.24) rotate(-52.31)"/><path class="cls-4" d="M440.91,275.53v6.12a.59.59,0,0,1-.92.49c-5.67-3.95-16.92.09-17.42-20.26a.58.58,0,0,1,1-.43l.52.52,4.05,4a7.87,7.87,0,0,0,5.57,2.31,7.2,7.2,0,0,1,7.2,7.21Z"/><path class="cls-5" d="M440.91,275.53v3.18c-5.45-3.29-15.27-.49-16.82-16.74l4.05,4a7.87,7.87,0,0,0,5.57,2.31,7.2,7.2,0,0,1,7.2,7.21Z"/><ellipse class="cls-6" cx="431.6" cy="270.6" rx="1.87" ry="3.03" transform="translate(51.65 609.93) rotate(-73.85)"/><ellipse class="cls-6" cx="437.16" cy="273.25" rx="1.3" ry="2.11" transform="translate(-46.33 452.16) rotate(-52.31)"/><path class="cls-4" d="M440.91,259.88V266a.59.59,0,0,1-.92.49c-5.67-3.94-16.92.1-17.42-20.26a.58.58,0,0,1,1-.43l.52.52,4.05,4.05a7.9,7.9,0,0,0,5.57,2.3,7.22,7.22,0,0,1,7.2,7.21Z"/><path class="cls-5" d="M440.91,259.88v3.19c-5.45-3.29-15.27-.5-16.82-16.75l4.05,4.05a7.9,7.9,0,0,0,5.57,2.3,7.22,7.22,0,0,1,7.2,7.21Z"/><ellipse class="cls-6" cx="431.6" cy="254.96" rx="1.87" ry="3.03" transform="translate(66.68 598.63) rotate(-73.85)"/><ellipse class="cls-6" cx="437.16" cy="257.6" rx="1.3" ry="2.11" transform="translate(-33.95 446.07) rotate(-52.31)"/><path class="cls-4" d="M440.91,244.24v6.12a.59.59,0,0,1-.92.48c-5.67-3.94-16.92.1-17.42-20.25a.58.58,0,0,1,1-.43l.52.52,4.05,4a7.87,7.87,0,0,0,5.57,2.31,7.2,7.2,0,0,1,7.2,7.21Z"/><path class="cls-5" d="M440.91,244.24v3.18c-5.45-3.29-15.27-.5-16.82-16.74l4.05,4a7.87,7.87,0,0,0,5.57,2.31,7.2,7.2,0,0,1,7.2,7.21Z"/><ellipse class="cls-6" cx="431.6" cy="239.31" rx="1.87" ry="3.03" transform="translate(81.71 587.34) rotate(-73.85)"/><ellipse class="cls-6" cx="437.16" cy="241.95" rx="1.3" ry="2.11" transform="translate(-21.57 439.99) rotate(-52.31)"/><path class="cls-4" d="M443.19,230.63l-.53,6.09a.59.59,0,0,1-1,.41c-5.31-4.42-16.86-1.38-15.6-21.7a.59.59,0,0,1,1-.34l.48.56,3.67,4.38a7.9,7.9,0,0,0,5.35,2.79,7.2,7.2,0,0,1,6.55,7.81Z"/><path class="cls-5" d="M443.19,230.63l-.28,3.17c-5.14-3.75-15.17-1.83-15.29-18.15l3.67,4.38a7.9,7.9,0,0,0,5.35,2.79,7.2,7.2,0,0,1,6.55,7.81Z"/><ellipse class="cls-6" cx="434.34" cy="224.91" rx="1.87" ry="3.03" transform="translate(67.9 548.87) rotate(-68.85)"/><ellipse class="cls-6" cx="439.65" cy="228.02" rx="1.3" ry="2.11" transform="translate(-26.04 396.61) rotate(-47.31)"/><path class="cls-4" d="M450.26,291.17v6.13a.59.59,0,0,0,.92.48c5.67-3.94,16.92.1,17.43-20.25a.59.59,0,0,0-1-.43l-.52.52-4.05,4a7.85,7.85,0,0,1-5.56,2.31,7.2,7.2,0,0,0-7.21,7.2Z"/><path class="cls-5" d="M450.26,291.17v3.19c5.45-3.29,15.28-.5,16.82-16.74l-4.05,4a7.85,7.85,0,0,1-5.56,2.31,7.2,7.2,0,0,0-7.21,7.2Z"/><ellipse class="cls-6" cx="459.58" cy="286.25" rx="3.03" ry="1.87" transform="translate(-61.47 139.08) rotate(-16.15)"/><ellipse class="cls-6" cx="454.02" cy="288.89" rx="2.11" ry="1.3" transform="translate(-81.89 337.83) rotate(-37.69)"/><path class="cls-4" d="M450.26,275.53v6.12a.59.59,0,0,0,.92.49c5.67-3.95,16.92.09,17.43-20.26a.59.59,0,0,0-1-.43l-.52.52L463,266a7.85,7.85,0,0,1-5.56,2.31,7.2,7.2,0,0,0-7.21,7.21Z"/><path class="cls-5" d="M450.26,275.53v3.18c5.45-3.29,15.28-.49,16.82-16.74L463,266a7.85,7.85,0,0,1-5.56,2.31,7.2,7.2,0,0,0-7.21,7.21Z"/><ellipse class="cls-6" cx="459.58" cy="270.6" rx="3.03" ry="1.87" transform="translate(-57.12 138.47) rotate(-16.15)"/><ellipse class="cls-6" cx="454.02" cy="273.25" rx="2.11" ry="1.3" transform="translate(-72.32 334.56) rotate(-37.69)"/><path class="cls-4" d="M450.26,259.88V266a.59.59,0,0,0,.92.49c5.67-3.94,16.92.1,17.43-20.26a.59.59,0,0,0-1-.43l-.52.52L463,250.37a7.88,7.88,0,0,1-5.56,2.3,7.22,7.22,0,0,0-7.21,7.21Z"/><path class="cls-5" d="M450.26,259.88v3.19c5.45-3.29,15.28-.5,16.82-16.75L463,250.37a7.88,7.88,0,0,1-5.56,2.3,7.22,7.22,0,0,0-7.21,7.21Z"/><ellipse class="cls-6" cx="459.58" cy="254.96" rx="3.03" ry="1.87" transform="translate(-52.77 137.85) rotate(-16.15)"/><ellipse class="cls-6" cx="454.02" cy="257.6" rx="2.11" ry="1.3" transform="translate(-62.76 331.3) rotate(-37.69)"/><path class="cls-4" d="M450.26,244.24v6.12a.59.59,0,0,0,.92.48c5.67-3.94,16.92.1,17.43-20.25a.59.59,0,0,0-1-.43l-.52.52-4.05,4a7.85,7.85,0,0,1-5.56,2.31,7.2,7.2,0,0,0-7.21,7.21Z"/><path class="cls-5" d="M450.26,244.24v3.18c5.45-3.29,15.28-.5,16.82-16.74l-4.05,4a7.85,7.85,0,0,1-5.56,2.31,7.2,7.2,0,0,0-7.21,7.21Z"/><ellipse class="cls-6" cx="459.58" cy="239.31" rx="3.03" ry="1.87" transform="translate(-48.42 137.23) rotate(-16.15)"/><ellipse class="cls-6" cx="454.02" cy="241.95" rx="2.11" ry="1.3" transform="translate(-53.19 328.03) rotate(-37.69)"/><path class="cls-4" d="M448,230.63l.54,6.09a.59.59,0,0,0,1,.41c5.3-4.42,16.86-1.38,15.59-21.7a.59.59,0,0,0-1-.34l-.47.56L459.88,220a7.88,7.88,0,0,1-5.35,2.79,7.2,7.2,0,0,0-6.55,7.81Z"/><path class="cls-5" d="M448,230.63l.28,3.17c5.14-3.75,15.17-1.83,15.3-18.15L459.88,220a7.88,7.88,0,0,1-5.35,2.79,7.2,7.2,0,0,0-6.55,7.81Z"/><ellipse class="cls-6" cx="456.83" cy="224.91" rx="3.03" ry="1.87" transform="translate(-50.37 179.94) rotate(-21.15)"/><ellipse class="cls-6" cx="451.52" cy="228.02" rx="2.11" ry="1.3" transform="translate(-34.98 366.53) rotate(-42.69)"/><path class="cls-4" d="M444.46,217.18l-1.58,5.91a.59.59,0,0,1-1,.23c-4.46-5.27-16.37-4.28-11.59-24.08a.6.6,0,0,1,1.09-.15l.36.64,2.86,5a7.9,7.9,0,0,0,4.78,3.67,7.21,7.21,0,0,1,5.1,8.83Z"/><path class="cls-5" d="M444.46,217.18l-.82,3.07c-4.42-4.59-14.63-4.43-11.92-20.52l2.86,5a7.9,7.9,0,0,0,4.78,3.67,7.21,7.21,0,0,1,5.1,8.83Z"/><ellipse class="cls-6" cx="436.74" cy="210.01" rx="1.87" ry="3.03" transform="translate(31.12 475.18) rotate(-58.85)"/><ellipse class="cls-6" cx="441.43" cy="214" rx="1.3" ry="2.11" transform="translate(-39.37 311.38) rotate(-37.31)"/><path class="cls-4" d="M446.71,217.18l1.59,5.91a.58.58,0,0,0,1,.23c4.46-5.27,16.37-4.28,11.59-24.08a.59.59,0,0,0-1.08-.15l-.37.64-2.86,5a7.9,7.9,0,0,1-4.78,3.67,7.21,7.21,0,0,0-5.1,8.83Z"/><path class="cls-5" d="M446.71,217.18l.83,3.07c4.41-4.59,14.62-4.43,11.91-20.52l-2.86,5a7.9,7.9,0,0,1-4.78,3.67,7.21,7.21,0,0,0-5.1,8.83Z"/><ellipse class="cls-6" cx="454.44" cy="210.01" rx="3.03" ry="1.87" transform="translate(-43.11 265.31) rotate(-31.15)"/><ellipse class="cls-6" cx="449.75" cy="214" rx="2.11" ry="1.3" transform="translate(6.92 441.97) rotate(-52.69)"/><path class="cls-7" d="M207.51,410.7H104.61a15.56,15.56,0,0,1-15.5-16.93L104.2,222.56H207.93L223,393.77A15.56,15.56,0,0,1,207.51,410.7Z"/><path class="cls-8" d="M207.51,410.7H123.1a15.57,15.57,0,0,1-15.5-16.93l15.09-171.21h85.24L223,393.77A15.56,15.56,0,0,1,207.51,410.7Z"/><path class="cls-9" d="M133.28,246.65v8.86a5.64,5.64,0,0,1-5.63,5.63H100.8v0L102.57,241h25.08A5.64,5.64,0,0,1,133.28,246.65Z"/><path class="cls-9" d="M135.68,303.32v8.85a5.62,5.62,0,0,1-5.63,5.63H95.8v0l1.77-20.09h32.48A5.63,5.63,0,0,1,135.68,303.32Z"/><path class="cls-9" d="M125.64,333.32v8.85A5.62,5.62,0,0,1,120,347.8H93.16l1.77-20.11H120A5.63,5.63,0,0,1,125.64,333.32Z"/><path class="cls-9" d="M129,379.28v8.86a5.63,5.63,0,0,1-5.64,5.63H89.11l1.77-20.12h32.47A5.63,5.63,0,0,1,129,379.28Z"/><path class="cls-7" d="M223,393.77H203.56a5.63,5.63,0,0,1-5.63-5.63v-8.86a5.63,5.63,0,0,1,5.63-5.63h17.68Z"/><path class="cls-7" d="M219.76,356.82H185.51a5.63,5.63,0,0,1-5.63-5.63v-8.85a5.62,5.62,0,0,1,5.63-5.63H218Z"/><path class="cls-7" d="M216.09,315.18H181.84a5.64,5.64,0,0,1-5.64-5.63v-8.86a5.64,5.64,0,0,1,5.64-5.63h32.47Z"/><path class="cls-7" d="M213.08,281H193.62a5.63,5.63,0,0,1-5.63-5.63v-8.85a5.63,5.63,0,0,1,5.63-5.64H211.3Z"/><path class="cls-7" d="M120,347.8h-8.36l1.77-20.11H120a5.63,5.63,0,0,1,5.63,5.63v8.85A5.62,5.62,0,0,1,120,347.8Z"/><path class="cls-7" d="M129,379.28v8.86a5.63,5.63,0,0,1-5.64,5.63H107.6l1.78-20.12h14A5.63,5.63,0,0,1,129,379.28Z"/><path class="cls-7" d="M127.65,261.14h-8.36L121.06,241h6.59a5.64,5.64,0,0,1,5.63,5.63v8.86A5.64,5.64,0,0,1,127.65,261.14Z"/><path class="cls-7" d="M135.68,303.32v8.85a5.62,5.62,0,0,1-5.63,5.63H114.3l1.77-20.12h14A5.63,5.63,0,0,1,135.68,303.32Z"/><path class="cls-10" d="M207.93,222.56H104.2l34.41-47.17a21.58,21.58,0,0,1,34.9,0Z"/><path class="cls-11" d="M207.93,222.56H122.69l34.41-47.17a21.46,21.46,0,0,1,8.21-6.8,21.43,21.43,0,0,1,8.2,6.8Z"/><path class="cls-12" d="M174.87,368.45V410.7H137.25V368.45a7.69,7.69,0,0,1,7.7-7.69h22.22A7.69,7.69,0,0,1,174.87,368.45Z"/><path class="cls-13" d="M174.87,377.42V410.7H137.25V377.42a7.71,7.71,0,0,1,7.7-7.71h22.22A7.71,7.71,0,0,1,174.87,377.42Z"/><ellipse class="cls-14" cx="166.18" cy="380.46" rx="4.33" ry="7.22"/><ellipse class="cls-14" cx="166.18" cy="393.81" rx="2.89" ry="4.4"/><path class="cls-15" d="M264,136.89l-92.86,78.45-.68.58a5.5,5.5,0,0,1-7.77-7.73L235.9,120.1a4.39,4.39,0,0,1,5.28-1.13l2.88,1.4,19,9.24A4.37,4.37,0,0,1,264,136.89Z"/><path class="cls-9" d="M264,136.89l-92.86,78.45a5.51,5.51,0,0,1-.08-7.15l73.05-87.82,19,9.24A4.37,4.37,0,0,1,264,136.89Z"/><ellipse class="cls-7" cx="243.89" cy="145.16" rx="10.62" ry="4.53" transform="translate(-34.35 201.16) rotate(-42.14)"/><ellipse class="cls-7" cx="229.32" cy="158.34" rx="6.48" ry="3.03" transform="translate(-46.96 194.79) rotate(-42.14)"/><path class="cls-15" d="M48.13,308.22,141,229.76l.68-.57a5.5,5.5,0,0,1,7.78,7.72L76.18,325a4.36,4.36,0,0,1-5.28,1.13L68,324.73,49,315.5A4.37,4.37,0,0,1,48.13,308.22Z"/><path class="cls-9" d="M48.13,308.22,141,229.76a5.5,5.5,0,0,1,.09,7.15L68,324.73,49,315.5A4.37,4.37,0,0,1,48.13,308.22Z"/><ellipse class="cls-7" cx="68.2" cy="299.94" rx="10.62" ry="4.53" transform="translate(-183.61 123.29) rotate(-42.14)"/><ellipse class="cls-7" cx="82.77" cy="286.76" rx="6.48" ry="3.03" transform="translate(-171 129.66) rotate(-42.14)"/><path class="cls-15" d="M241.71,330.46,163.26,237.6l-.58-.68a5.5,5.5,0,0,1,7.72-7.78l88.09,73.27a4.38,4.38,0,0,1,1.14,5.28l-1.4,2.87-9.24,19A4.38,4.38,0,0,1,241.71,330.46Z"/><path class="cls-9" d="M241.71,330.46,163.26,237.6a5.5,5.5,0,0,1,7.14-.09l87.83,73.05-9.24,19A4.38,4.38,0,0,1,241.71,330.46Z"/><ellipse class="cls-7" cx="233.43" cy="310.4" rx="4.53" ry="10.62" transform="translate(-147.92 236.85) rotate(-42.14)"/><ellipse class="cls-7" cx="220.25" cy="295.83" rx="3.03" ry="6.48" transform="translate(-141.55 224.24) rotate(-42.14)"/><path class="cls-15" d="M70.38,114.64l78.45,92.86.58.68a5.5,5.5,0,0,1-7.72,7.78L53.6,142.69a4.37,4.37,0,0,1-1.14-5.28l1.4-2.87,9.24-19A4.37,4.37,0,0,1,70.38,114.64Z"/><path class="cls-9" d="M70.38,114.64l78.45,92.86a5.5,5.5,0,0,1-7.14.09L53.86,134.54l9.24-19A4.37,4.37,0,0,1,70.38,114.64Z"/><ellipse class="cls-7" cx="78.65" cy="134.71" rx="4.53" ry="10.62" transform="translate(-70.05 87.59) rotate(-42.14)"/><ellipse class="cls-7" cx="91.84" cy="149.28" rx="3.03" ry="6.48" transform="translate(-76.42 100.2) rotate(-42.14)"/><path class="cls-12" d="M168.83,222.56a12.65,12.65,0,0,1-2.18,7.13h0A12.77,12.77,0,1,1,148.92,212h0a12.65,12.65,0,0,1,7.13-2.18A12.78,12.78,0,0,1,168.83,222.56Z"/><path class="cls-13" d="M168.83,222.56a12.65,12.65,0,0,1-2.18,7.13h0A12.78,12.78,0,0,1,148.92,212h0a12.65,12.65,0,0,1,7.13-2.18A12.78,12.78,0,0,1,168.83,222.56Z"/><ellipse class="cls-14" cx="161.67" cy="217.14" rx="3.62" ry="5.33" transform="translate(-97.77 139.83) rotate(-36.74)"/><ellipse class="cls-14" cx="163.41" cy="226.67" rx="3.71" ry="1.96" transform="translate(-91.68 340.73) rotate(-78.3)"/></svg>
