<?xml version="1.0" standalone="no"?>
<!DOCTYPE svg PUBLIC "-//W3C//DTD SVG 20010904//EN"
 "http://www.w3.org/TR/2001/REC-SVG-20010904/DTD/svg10.dtd">
<svg version="1.0" xmlns="http://www.w3.org/2000/svg"
 width="426.000000pt" height="429.000000pt" viewBox="0 0 426.000000 429.000000"
 preserveAspectRatio="xMidYMid meet">

<g transform="translate(0.000000,429.000000) scale(0.100000,-0.100000)"
fill="#000000" stroke="none">
<path d="M1865 3944 c-206 -31 -371 -85 -565 -185 -291 -150 -523 -359 -702
-634 l-59 -90 98 -47 c54 -26 103 -48 109 -48 6 0 28 28 50 63 236 367 641
632 1081 707 156 27 370 27 526 0 440 -75 845 -340 1081 -707 22 -35 44 -63
50 -63 6 0 55 22 109 48 l98 47 -59 90 c-124 191 -294 369 -473 497 -170 122
-417 237 -617 287 -199 51 -524 66 -727 35z"/>
<path d="M217 3043 c35 -241 163 -416 428 -581 50 -30 234 -128 410 -217 330
-166 445 -232 587 -337 219 -162 404 -408 474 -630 10 -32 21 -58 24 -58 3 0
14 26 24 58 70 222 255 468 474 630 142 105 257 171 587 337 176 89 361 187
410 217 265 165 393 340 428 581 l6 38 -60 -55 c-84 -78 -164 -130 -293 -191
-313 -148 -794 -248 -1299 -271 l-157 -7 -48 -51 c-27 -28 -54 -60 -60 -71
l-12 -20 -12 20 c-6 11 -33 43 -60 71 l-48 51 -157 7 c-505 23 -986 123 -1299
271 -129 61 -209 113 -293 191 l-60 55 6 -38z"/>
<path d="M322 2383 c-38 -298 -14 -568 74 -833 158 -474 503 -864 958 -1080
702 -334 1534 -190 2085 361 410 410 594 961 519 1552 -6 48 -14 87 -18 87 -5
0 -28 -16 -52 -36 -23 -20 -68 -54 -98 -74 l-56 -38 8 -93 c10 -114 -4 -305
-32 -432 -45 -206 -137 -418 -255 -588 -82 -118 -297 -330 -415 -408 -556
-370 -1244 -370 -1800 0 -118 78 -333 290 -415 408 -118 170 -210 382 -255
588 -28 127 -42 318 -32 432 l8 93 -56 38 c-30 20 -75 54 -98 74 -24 20 -47
36 -52 36 -4 0 -12 -39 -18 -87z"/>
<path d="M1020 2069 c0 -244 195 -487 446 -554 107 -29 338 -15 376 23 6 6
-10 33 -44 73 l-53 62 -115 1 c-108 1 -119 3 -183 33 -121 58 -226 184 -244
295 -6 44 -31 65 -118 103 -30 14 -58 25 -60 25 -3 0 -5 -27 -5 -61z"/>
<path d="M3192 2105 c-85 -39 -109 -60 -115 -103 -18 -111 -123 -237 -244
-295 -64 -30 -75 -32 -183 -33 l-115 -1 -53 -62 c-34 -40 -50 -67 -44 -73 38
-38 269 -52 376 -23 204 55 378 229 430 431 16 63 22 184 9 183 -5 0 -32 -11
-61 -24z"/>
</g>
</svg>
