<svg width="400" height="400" viewBox="0 0 400 400" fill="none" xmlns="http://www.w3.org/2000/svg">
<circle cx="200" cy="200" r="200" fill="black"/>
<g clip-path="url(#clip0_1542_26380)">
<path d="M322.474 153.943L322.491 153.925L202.837 51.0544C201.202 49.6485 198.789 49.6485 197.154 51.0544L77.5 153.925L77.5088 153.943V246.092H77.5175L197.154 348.945C198.789 350.353 201.202 350.353 202.837 348.945L322.474 246.092H322.5V153.943H322.474ZM213.512 76.029L300.249 150.6C302.282 152.348 302.282 155.503 300.249 157.251L262.554 189.658C260.919 191.064 258.506 191.064 256.871 189.658L206.304 146.185V79.3542C206.304 75.6125 210.68 73.594 213.512 76.029ZM199.996 64.4084L200.013 64.426H199.978L199.996 64.4084ZM194.055 79.0382V145.869L143.121 189.658C141.486 191.064 139.073 191.064 137.438 189.658L99.7421 157.251C97.7091 155.503 97.7091 152.348 99.7421 150.6L186.847 75.713C189.679 73.278 194.055 75.2965 194.055 79.0382ZM96.9662 170.662L127.224 196.675C129.257 198.423 129.257 201.577 127.224 203.325L96.9662 229.338C94.1339 231.773 89.7583 229.754 89.7583 226.013V173.987C89.7583 170.245 94.1339 168.227 96.9662 170.662ZM186.847 324.287L99.7421 249.4C97.709 247.652 97.709 244.497 99.7421 242.749L137.438 210.341C139.073 208.936 141.486 208.936 143.121 210.341L194.055 254.131V320.962C194.055 324.703 189.679 326.723 186.847 324.287ZM153.334 203.325C151.301 201.577 151.301 198.423 153.334 196.675L199.978 156.576L199.996 156.558L200.013 156.576L246.657 196.675C248.69 198.423 248.69 201.577 246.657 203.325L199.996 243.442L153.334 203.325ZM206.304 320.645V253.819L206.307 253.813L256.871 210.341C258.506 208.936 260.919 208.936 262.554 210.341L300.249 242.749C302.282 244.497 302.282 247.652 300.249 249.4L213.512 323.97C210.68 326.405 206.304 324.388 206.304 320.645ZM303.043 229.355L272.767 203.325C270.734 201.577 270.734 198.423 272.767 196.675L303.043 170.645C305.875 168.21 310.251 170.229 310.251 173.97V226.03C310.251 229.772 305.875 231.79 303.043 229.355Z" fill="#FDB913"/>
</g>
<defs>
<clipPath id="clip0_1542_26380">
<rect width="245" height="300" fill="white" transform="translate(77.5 50)"/>
</clipPath>
</defs>
</svg>
