<?xml version="1.0"?>
<svg version="1.1" xmlns="http://www.w3.org/2000/svg" width="400px" height="200px" style="border: dashed 2px #aaa"><path fill="#" d="M170.833984375,94.982421875q0-0.95703125,0.328125-1.28515625t0.916015625-0.328125q0.1640625,0,0.3486328125,0.02734375t0.3486328125,0.08203125q0.916015625-0.177734375,1.736328125-0.177734375q1.326171875,0,2.40625,0.46484375q1.736328125,0.73828125,2.87109375,2.1875t1.66796875,3.404296875t0.533203125,4.005859375q0,1.1484375-0.1572265625,2.392578125t-0.6083984375,2.310546875q-0.396484375,0.95703125-1.09375,2.0029296875t-1.5791015625,1.982421875t-1.900390625,1.640625t-2.0576171875,0.9501953125l0,0.109375q0,0.2734375-0.1435546875,0.4443359375t-0.3486328125,0.259765625t-0.4716796875,0.1162109375t-0.4990234375,0.02734375q-0.13671875,0-0.3896484375-0.02734375t-0.4921875-0.1025390625t-0.4033203125-0.1982421875t-0.1640625-0.341796875q0-2.48828125-0.1298828125-4.9833984375t-0.2939453125-4.990234375t-0.2939453125-4.9833984375t-0.1298828125-4.990234375z M173.41796875,94.28515625q0.13671875,1.3125,0.177734375,2.6181640625t0.123046875,2.6181640625q0.21875,3.390625,0.505859375,6.7470703125t0.341796875,6.7470703125q1.3125-0.861328125,2.2490234375-1.96875t1.5380859375-2.40625t0.8818359375-2.7275390625t0.2802734375-2.9462890625q0-1.09375-0.19140625-2.40625t-0.65625-2.529296875t-1.2509765625-2.201171875t-1.9619140625-1.408203125q-0.24609375-0.08203125-0.5947265625-0.13671875t-1.1142578125-0.0546875q-0.08203125,0-0.1640625,0.02734375t-0.1640625,0.02734375z M184.80212890625,111.78515625q-0.013671875-0.41015625-0.013671875-0.8203125q0-1.28515625,0.13671875-2.583984375q0.1640625-1.72265625,0.21875-3.390625q0.0546875-1.955078125,0.1640625-4.060546875q0.068359375-1.1484375,0.068359375-2.26953125q0-0.916015625-0.041015625-1.818359375q0.13671875-0.314453125,0.3623046875-0.423828125t0.5673828125-0.109375q0.1640625,0,0.3486328125,0.02734375t0.3212890625,0.13671875q0.19140625,0.02734375,0.4716796875,0.0546875t0.4306640625,0.1640625q0.0546875,0.08203125,0.2802734375,0.560546875t0.533203125,1.162109375t0.642578125,1.4833984375t0.642578125,1.517578125t0.533203125,1.2646484375t0.2802734375,0.68359375q1.28515625-2.32421875,2.515625-4.7783203125t2.693359375-4.6279296875q0.13671875-0.19140625,0.4716796875-0.2802734375t0.5537109375-0.0888671875q0.587890625,0,0.8544921875,0.2802734375t0.3486328125,0.7177734375q0.0546875,0.2734375,0.068359375,0.587890625q0.013671875,0.1640625-0.013671875,0.341796875q-0.0546875,0.505859375-0.0546875,0.95703125q0,3.185546875-0.21875,6.3232421875t-0.396484375,6.3369140625q-0.02734375,0.65625-0.02734375,1.3671875t0.02734375,1.4765625q0.013671875,0.2734375,0.013671875,0.533203125q0,1.203125-0.205078125,2.2421875q-0.19140625,0.314453125-0.62890625,0.396484375t-0.73828125,0.08203125q-0.642578125,0-1.23046875-0.30078125l-0.150390625-0.177734375l-0.0546875-0.21875t-0.02734375-0.21875q0-1.982421875,0.1435546875-3.9921875t0.3212890625-4.0126953125t0.3759765625-3.9990234375t0.3349609375-3.9921875q-0.806640625,1.33984375-1.5654296875,2.7275390625t-1.4287109375,2.8232421875q-0.24609375,0.560546875-0.4716796875,1.203125t-0.5400390625,1.1484375q-0.1640625,0.24609375-0.5537109375,0.30078125t-0.6767578125,0.0546875q-0.2734375,0-0.5673828125-0.095703125t-0.4033203125-0.41015625q-0.505859375-1.544921875-1.080078125-3.021484375t-1.162109375-2.994140625q0,1.01171875,0.041015625,2.6181640625t0.041015625,3.3291015625t-0.0546875,3.294921875t-0.259765625,2.48828125q-0.0546875,0.341796875-0.4443359375,0.423828125t-0.6767578125,0.08203125q-0.21875,0-0.4169921875-0.02734375t-0.3896484375-0.109375z M201.0398046875,111.40234375q0-0.478515625,0.328125-0.6083984375t0.7109375-0.1298828125q0.669921875,0,1.134765625,0.6015625t0.8818359375,1.3193359375t0.8271484375,1.3193359375t0.970703125,0.6015625q0.423828125,0,0.7724609375-0.2119140625t0.6015625-0.533203125t0.3896484375-0.724609375t0.13671875-0.7998046875q0-1.0390625-0.4169921875-2.146484375t-1.06640625-2.283203125t-1.3740234375-2.40625t-1.3671875-2.501953125t-1.06640625-2.5908203125t-0.423828125-2.6591796875q0-2.009765625,1.203125-3.1171875t3.171875-1.107421875q0.669921875,0,1.353515625,0.19140625t1.2578125,0.57421875t0.9365234375,0.943359375t0.3623046875,1.3125q0,0.24609375-0.3623046875,0.3212890625t-0.5263671875,0.0751953125q-0.24609375,0-0.533203125-0.0615234375t-0.369140625-0.3349609375t-0.232421875-0.62890625t-0.3759765625-0.6630859375t-0.533203125-0.533203125t-0.6767578125-0.2255859375q-0.615234375,0-1.0458984375,0.2529296875t-0.697265625,0.6767578125t-0.396484375,0.9501953125t-0.1298828125,1.0869140625q0,1.3125,0.451171875,2.6455078125t1.12109375,2.65234375t1.4560546875,2.6044921875t1.4560546875,2.501953125t1.12109375,2.37890625t0.451171875,2.201171875q0,0.9296875-0.4375,1.572265625t-1.107421875,1.0458984375t-1.4833984375,0.587890625t-1.5927734375,0.1845703125q-0.833984375,0-1.708984375-0.3349609375t-1.572265625-0.9228515625t-1.1484375-1.3740234375t-0.451171875-1.7021484375z"/><path fill="#" d=""/></svg>
