<svg width="700" height="700" xmlns="http://www.w3.org/2000/svg" preserveAspectRatio="xMidYMid meet" version="1.0">

 <g>
  <title>Layer 1</title>
  <path stroke-width="0" id="svg_3" d="m0,0l700,0l0,700l-700,0l0,-700z" opacity="undefined" stroke="#000" fill="#fff"/>
  <g id="svg_1" fill="#000000" transform="translate(0.000000,700.000000) scale(0.100000,-0.100000)">
   <path id="svg_2" d="m3235,5405c-472,-76 -841,-289 -1164,-672l-53,-63l-164,0c-100,0 -164,-4 -164,-10c0,-5 36,-71 80,-146c44,-75 80,-140 80,-144c0,-5 -18,-52 -40,-106c-44,-111 -82,-244 -107,-379c-26,-138 -23,-462 5,-617c90,-488 373,-920 782,-1192c222,-148 468,-241 767,-292l101,-17l68,-119c38,-65 71,-118 74,-118c3,0 37,53 74,118c38,64 73,120 79,123c5,4 37,10 71,13c33,4 112,18 175,32c416,93 794,334 1047,669c246,326 374,703 374,1105c0,224 -33,404 -118,647l-50,143l79,137c43,76 79,141 79,145c0,5 -75,8 -168,8l-167,0l-52,68c-60,78 -231,247 -318,313c-212,162 -467,277 -739,335c-103,22 -153,26 -331,30c-151,2 -235,-1 -300,-11zm605,-134c226,-50 465,-154 640,-279c89,-64 340,-301 340,-322c0,-10 -878,-20 -892,-10c-4,3 58,27 138,55c79,27 143,54 141,60c-6,19 -171,124 -272,174c-547,270 -1213,186 -1675,-210l-75,-64l44,53c24,30 81,87 125,128c260,239 565,380 951,438c17,2 122,3 235,1c163,-3 225,-8 300,-24zm-1440,-729c0,-5 -13,-21 -30,-37c-16,-16 -30,-33 -30,-38c0,-12 180,-326 191,-332c4,-3 53,81 109,185c57,105 105,188 108,185c3,-3 22,-49 42,-103c20,-53 96,-259 170,-457c73,-198 137,-364 142,-369c4,-6 8,180 8,413l0,423l-61,69l-61,69l226,0l226,0l0,-1322c0,-773 -4,-1318 -9,-1312c-5,5 -79,130 -165,279l-157,270l-211,650c-116,357 -214,654 -217,658c-4,4 -43,-56 -86,-133c-43,-78 -82,-137 -86,-133c-9,9 -13,16 -346,598c-129,226 -239,414 -244,420c-5,5 -9,13 -9,17c0,4 110,8 245,8c135,0 245,-4 245,-8zm2687,-4c-8,-21 -647,-1122 -657,-1132c-5,-5 -132,39 -300,104c-160,62 -293,110 -296,108c-2,-3 -3,-164 -2,-358l3,-353l129,224c70,123 132,228 137,233c5,6 59,-10 134,-39l125,-48l-23,-41c-21,-37 -108,-187 -600,-1036c-87,-151 -163,-279 -168,-284c-5,-6 -9,409 -9,1042c0,594 4,1052 9,1052c5,0 172,-63 372,-140c200,-77 366,-136 370,-132c9,9 299,511 306,529c4,11 -67,13 -391,13l-396,0l0,-111c0,-101 -2,-110 -17,-105c-10,3 -70,26 -133,50l-115,44l-3,196l-2,196l766,0c609,0 765,-3 761,-12zm-2950,-641c106,-188 206,-366 223,-394c17,-29 28,-53 26,-53c-3,0 -58,47 -123,104c-118,105 -118,105 -127,78c-16,-53 -12,-390 7,-492c98,-524 444,-948 942,-1156c71,-29 96,-43 71,-39c-132,22 -370,115 -515,200c-636,379 -953,1120 -785,1835c25,106 74,260 84,260c3,0 92,-154 197,-343zm3025,8c33,-160 32,-451 0,-615c-125,-620 -547,-1102 -1135,-1294c-112,-37 -282,-74 -293,-64c-3,4 70,134 162,290c92,156 195,329 228,385c33,56 62,101 64,99c2,-3 -10,-70 -27,-150c-17,-81 -31,-148 -31,-151c0,-24 199,73 324,158c113,77 278,235 362,347c126,169 220,373 271,589c31,132 42,392 24,522c-7,46 -14,98 -17,114c-8,61 47,-124 68,-230z"/>
  </g>
 </g>
</svg>
