<svg width="1725" height="1700" viewBox="0 0 1725 1700" fill="none" xmlns="http://www.w3.org/2000/svg">
<g filter="url(#filter0_d_63_71)">
<g opacity="0.8">
<path d="M1176 388L908 239.998L908.5 533.999L1176 682V388Z" fill="white"/>
<path d="M1181 391.934L908 240L1180.5 96L1448.5 244L1181 391.934Z" fill="white"/>
<path d="M1176 387.841L1444.5 240L1444 534L1176 682V387.841Z" fill="white"/>
</g>
<path d="M1177 388L999 289.829L999.331 484.169L1176 582L1177 388Z" fill="white"/>
<path d="M1177 388L999 289.831L1176.48 192L1354 290L1177 388Z" fill="white"/>
<path d="M1177 388L1354 290L1353.48 484.169L1176 582L1177 388Z" fill="white"/>
<g opacity="0.8">
<path d="M1176.66 1278L908 1130L908.5 1424L1175.66 1572L1176.66 1278Z" fill="white"/>
<path d="M1176.66 1278L1444 1130.5L1444.27 1424L1175.66 1572.2L1176.66 1278Z" fill="white"/>
<path d="M1444 1130.5C1340 1187.5 1281.24 1220.65 1177 1278.5L1042.5 1203.94L908 1130L1176.5 982L1444 1130.5Z" fill="white"/>
</g>
<path d="M1177 1278L999 1180L999.331 1374.17L1176 1472L1177 1278Z" fill="white"/>
<path d="M1177 1278L999 1180L1176.48 1082L1354 1180L1177 1278Z" fill="white"/>
<path d="M1177 1278L1354 1180L1353.48 1374.17L1176 1472L1177 1278Z" fill="white"/>
</g>
<g opacity="0.8">
<path d="M438 799L177 646.5L177.498 940.833L438.5 1087.5L438 799Z" fill="white"/>
<path d="M438 799L177 646.5L445.501 498L714 646L438 799Z" fill="white"/>
</g>
<path d="M437 798.5L714 646L712.5 941L438.5 1087.5L437 798.5Z" fill="white"/>
<path d="M438 799L265 698L261 895.336L438.5 992.862L438 799Z" fill="white"/>
<path d="M438 799L618 699L618.482 894.169L438.5 992.855L438 799Z" fill="white"/>
<path d="M438 799L265 698L440.484 601L618 699L438 799Z" fill="white"/>
<path d="M908 1130L913.001 363.5L1444 533.999L1444 1130.5L1177 1278L908 1130Z" fill="url(#paint0_linear_63_71)"/>
<g filter="url(#filter1_d_63_71)">
<path d="M444.5 498C444.5 498 905.5 239.5 907 240C908.5 240.5 1176 388 1176 388V682L712.5 941L713 646L444.5 498Z" fill="url(#paint1_linear_63_71)" shape-rendering="crispEdges"/>
</g>
<g filter="url(#filter2_d_63_71)">
<g opacity="0.8">
<path d="M1176 388L908 239.998L908.5 533.999L1176 682V388Z" fill="url(#paint2_linear_63_71)"/>
<path d="M1181 391.934L908 240L1180.5 96L1448.5 244L1181 391.934Z" fill="url(#paint3_linear_63_71)"/>
<path d="M1176 387.841L1444.5 240L1444 534L1176 682V387.841Z" fill="url(#paint4_linear_63_71)"/>
</g>
<path d="M1177 388L999 289.829L999.331 484.169L1176 582L1177 388Z" fill="url(#paint5_linear_63_71)"/>
<path d="M1177 388L999 289.831L1176.48 192L1354 290L1177 388Z" fill="url(#paint6_linear_63_71)"/>
<path d="M1177 388L1354 290L1353.48 484.169L1176 582L1177 388Z" fill="url(#paint7_linear_63_71)"/>
<g opacity="0.8">
<path d="M1176.66 1278L908 1130L908.5 1424L1175.66 1572L1176.66 1278Z" fill="url(#paint8_linear_63_71)"/>
<path d="M1176.66 1278L1444 1130.5L1444.27 1424L1175.66 1572.2L1176.66 1278Z" fill="url(#paint9_linear_63_71)"/>
<path d="M1444 1130.5C1340 1187.5 1281.24 1220.65 1177 1278.5L1042.5 1203.94L908 1130L1176.5 982L1444 1130.5Z" fill="url(#paint10_linear_63_71)"/>
</g>
<path d="M1177 1278L999 1180L999.331 1374.17L1176 1472L1177 1278Z" fill="url(#paint11_linear_63_71)"/>
<path d="M1177 1278L999 1180L1176.48 1082L1354 1180L1177 1278Z" fill="url(#paint12_linear_63_71)"/>
<path d="M1177 1278L1354 1180L1353.48 1374.17L1176 1472L1177 1278Z" fill="url(#paint13_linear_63_71)"/>
</g>
<g opacity="0.8">
<path d="M438 799L177 646.5L177.498 940.833L438.5 1087.5L438 799Z" fill="url(#paint14_linear_63_71)"/>
<path d="M438 799L177 646.5L445.501 498L714 646L438 799Z" fill="url(#paint15_linear_63_71)"/>
</g>
<path d="M437 798.5L714 646L712.5 941L438.5 1087.5L437 798.5Z" fill="url(#paint16_linear_63_71)"/>
<path d="M438 799L265 698L261 895.336L438.5 992.862L438 799Z" fill="url(#paint17_linear_63_71)"/>
<path d="M438 799L618 699L618.482 894.169L438.5 992.855L438 799Z" fill="url(#paint18_linear_63_71)"/>
<path d="M438 799L265 698L440.484 601L618 699L438 799Z" fill="url(#paint19_linear_63_71)"/>
<path d="M1176 1454C1159.15 1443.43 1142.19 1434.08 1125.35 1422.95C1108.26 1411.83 1091.29 1400.56 1074.44 1389.16C1068.74 1385.26 1063.05 1381.65 1057.35 1378.31C1051.4 1374.97 1045.95 1371.07 1041 1366.62C1047.69 1362.73 1054.38 1358.7 1061.07 1354.52C1067.51 1350.35 1073.82 1346.04 1080.02 1341.59C1096.37 1351.6 1112.59 1361.76 1128.69 1372.05C1144.55 1382.62 1160.39 1392.49 1176 1402.5C1192.35 1392.49 1208.34 1382.62 1224.19 1372.05C1239.8 1361.76 1256.02 1351.6 1272.87 1341.59C1270.64 1339.64 1268.29 1337.83 1265.81 1336.16C1263.08 1334.5 1260.61 1332.97 1258.38 1331.57C1241.53 1320.17 1224.69 1309.04 1207.84 1298.19C1197.1 1291.55 1187.64 1285.48 1177 1278.5C1175 1277.5 1163 1271 1156 1267C1153.5 1265.5 1125.5 1250.33 1111 1241.5C1099.49 1234.49 1086.5 1227.89 1074 1221C1070.5 1219.07 1066 1217 1062.5 1215C1057.5 1212.5 1054.5 1210.5 1049 1207.5C1043.89 1204.71 1036.96 1201.06 1032.5 1198C1055.04 1183.54 1086.09 1161.06 1108.63 1146.31C1130.92 1131.57 1153.34 1116.96 1175.89 1102.5C1198.92 1116.96 1221.59 1131.57 1243.89 1146.31C1266.18 1161.06 1297.96 1183.54 1321 1198C1315 1201.5 1306 1206.19 1298 1211C1291.06 1215.17 1282.75 1219.59 1275.5 1223C1259.89 1212.43 1240.42 1195.41 1224.56 1185.12C1208.46 1174.82 1192.23 1164.39 1175.89 1153.82C1166.97 1160.22 1157.93 1166.34 1148.76 1172.18C1139.35 1177.75 1130 1186.5 1120.5 1193.5C1124.46 1196.56 1128.04 1198.27 1132 1200.5C1135.72 1203 1140.04 1204.44 1144 1207.5C1171.99 1225.86 1200.78 1242.7 1229.02 1260.22C1257.01 1278.03 1285.01 1296.39 1313 1315.3C1313 1324.2 1312.88 1332.97 1312.63 1341.59C1312.38 1350.21 1312.5 1358.56 1313 1366.62C1289.96 1381.65 1267.17 1396.53 1244.63 1411.27C1221.84 1426.29 1199.04 1439.54 1176 1454Z" fill="#5E4901"/>
<path d="M1082.09 223.904V331.878C1098.49 323.153 1114.3 314.307 1129.5 305.339C1144.94 296.129 1160.26 287.161 1175.46 278.436C1192.35 287.646 1209.11 296.977 1225.76 306.43C1242.65 315.64 1259.54 325.213 1276.43 335.15L1309 354.782V508.564C1303.45 511.957 1297.9 515.229 1292.35 518.38C1287.04 521.53 1281.37 524.802 1275.34 528.195C1258.94 537.405 1242.41 546.858 1225.76 556.552C1209.36 566.247 1192.95 576.063 1176.54 586C1154.1 572.912 1131.79 559.946 1109.59 547.1C1087.63 534.497 1065.44 521.652 1043 508.564V350.419C1043 325.213 1043.12 300.007 1043.36 274.801C1043.6 249.352 1043.48 225.116 1043 202.091V201C1056.99 208.756 1070.02 216.39 1082.09 223.904ZM1176.54 323.153C1160.62 331.878 1144.82 340.846 1129.13 350.056C1113.69 359.266 1098.01 368.476 1082.09 377.686V485.66C1098.01 494.87 1113.69 503.959 1129.13 512.926C1144.82 521.894 1159.8 529.79 1175 539C1190.92 530.275 1207.06 522.5 1222.5 513.29C1238.19 504.08 1253.99 494.87 1269.91 485.66V377.686C1253.99 368.476 1238.43 359.387 1223.23 350.419C1208.03 341.452 1192.47 332.363 1176.54 323.153Z" fill="#5D4901"/>
<path d="M425 611C433 621 435.437 623.732 444.935 633.587C454.434 642.826 464.122 652.374 474 662.229C473.62 693.643 473.24 720.745 472.86 743.536C472.86 765.71 472.86 786.653 472.86 806.364C472.86 826.075 472.86 846.093 472.86 866.42C473.24 886.131 473.62 909.229 474 935.716C464.122 944.955 454.244 954.503 444.366 964.358C434.867 974.213 424.419 983.761 413.021 993C413.021 983.145 413.021 971.133 413.021 956.966C413.401 942.183 413.591 927.092 413.591 911.693C413.971 895.678 414.161 880.279 414.161 865.496C414.161 850.713 413.781 838.086 413.021 827.615C413.021 784.497 413.401 743.536 414.161 704.73C414.921 665.925 414 634 414.5 607C414.425 605.663 414.382 601 415.5 601C416.5 601 424.2 610 425 611Z" fill="#5D4901"/>
<defs>
<filter id="filter0_d_63_71" x="808" y="0" width="740.5" height="1676.2" filterUnits="userSpaceOnUse" color-interpolation-filters="sRGB">
<feFlood flood-opacity="0" result="BackgroundImageFix"/>
<feColorMatrix in="SourceAlpha" type="matrix" values="0 0 0 0 0 0 0 0 0 0 0 0 0 0 0 0 0 0 127 0" result="hardAlpha"/>
<feOffset dy="4"/>
<feGaussianBlur stdDeviation="50"/>
<feComposite in2="hardAlpha" operator="out"/>
<feColorMatrix type="matrix" values="0 0 0 0 0 0 0 0 0 0 0 0 0 0 0 0 0 0 0.25 0"/>
<feBlend mode="normal" in2="BackgroundImageFix" result="effect1_dropShadow_63_71"/>
<feBlend mode="normal" in="SourceGraphic" in2="effect1_dropShadow_63_71" result="shape"/>
</filter>
<filter id="filter1_d_63_71" x="284.5" y="83.999" width="1051.5" height="1021" filterUnits="userSpaceOnUse" color-interpolation-filters="sRGB">
<feFlood flood-opacity="0" result="BackgroundImageFix"/>
<feColorMatrix in="SourceAlpha" type="matrix" values="0 0 0 0 0 0 0 0 0 0 0 0 0 0 0 0 0 0 127 0" result="hardAlpha"/>
<feOffset dy="4"/>
<feGaussianBlur stdDeviation="80"/>
<feComposite in2="hardAlpha" operator="out"/>
<feColorMatrix type="matrix" values="0 0 0 0 0 0 0 0 0 0 0 0 0 0 0 0 0 0 0.25 0"/>
<feBlend mode="normal" in2="BackgroundImageFix" result="effect1_dropShadow_63_71"/>
<feBlend mode="normal" in="SourceGraphic" in2="effect1_dropShadow_63_71" result="shape"/>
</filter>
<filter id="filter2_d_63_71" x="808" y="0" width="740.5" height="1676.2" filterUnits="userSpaceOnUse" color-interpolation-filters="sRGB">
<feFlood flood-opacity="0" result="BackgroundImageFix"/>
<feColorMatrix in="SourceAlpha" type="matrix" values="0 0 0 0 0 0 0 0 0 0 0 0 0 0 0 0 0 0 127 0" result="hardAlpha"/>
<feOffset dy="4"/>
<feGaussianBlur stdDeviation="50"/>
<feComposite in2="hardAlpha" operator="out"/>
<feColorMatrix type="matrix" values="0 0 0 0 0 0 0 0 0 0 0 0 0 0 0 0 0 0 0.25 0"/>
<feBlend mode="normal" in2="BackgroundImageFix" result="effect1_dropShadow_63_71"/>
<feBlend mode="normal" in="SourceGraphic" in2="effect1_dropShadow_63_71" result="shape"/>
</filter>
<linearGradient id="paint0_linear_63_71" x1="1173" y1="1500" x2="1173" y2="260" gradientUnits="userSpaceOnUse">
<stop stop-color="white"/>
<stop offset="0.552083" stop-color="#CBBE7B"/>
</linearGradient>
<linearGradient id="paint1_linear_63_71" x1="1182" y1="406" x2="481" y2="798" gradientUnits="userSpaceOnUse">
<stop offset="0.9998" stop-color="#E1D591"/>
<stop offset="0.9999" stop-color="#EDEDED" stop-opacity="0.409199"/>
<stop offset="1" stop-color="white" stop-opacity="0"/>
</linearGradient>
<linearGradient id="paint2_linear_63_71" x1="1177" y1="461" x2="908" y2="461" gradientUnits="userSpaceOnUse">
<stop stop-color="#FFD700"/>
<stop offset="1" stop-color="#FFEA73"/>
</linearGradient>
<linearGradient id="paint3_linear_63_71" x1="1181" y1="96" x2="1181" y2="393" gradientUnits="userSpaceOnUse">
<stop stop-color="#FFEA73"/>
<stop offset="1" stop-color="#DBB900"/>
</linearGradient>
<linearGradient id="paint4_linear_63_71" x1="1309.98" y1="320.002" x2="1309.98" y2="620.501" gradientUnits="userSpaceOnUse">
<stop stop-color="#FFD700"/>
<stop offset="1" stop-color="#FFEA73"/>
</linearGradient>
<linearGradient id="paint5_linear_63_71" x1="1177" y1="467.5" x2="999" y2="402.5" gradientUnits="userSpaceOnUse">
<stop stop-color="#FFD700"/>
<stop offset="1" stop-color="#FFED8A"/>
</linearGradient>
<linearGradient id="paint6_linear_63_71" x1="1176.81" y1="192" x2="1176.81" y2="388.322" gradientUnits="userSpaceOnUse">
<stop stop-color="#FFEA73"/>
<stop offset="1" stop-color="#DBB900"/>
</linearGradient>
<linearGradient id="paint7_linear_63_71" x1="1264.73" y1="342.712" x2="1264.73" y2="541.348" gradientUnits="userSpaceOnUse">
<stop stop-color="#EEC700"/>
<stop offset="1" stop-color="#FFED8A"/>
</linearGradient>
<linearGradient id="paint8_linear_63_71" x1="1177" y1="1405" x2="908" y2="1277.5" gradientUnits="userSpaceOnUse">
<stop stop-color="#FFD700"/>
<stop offset="1" stop-color="#FFEA73"/>
</linearGradient>
<linearGradient id="paint9_linear_63_71" x1="1310" y1="1210" x2="1333.5" y2="1484" gradientUnits="userSpaceOnUse">
<stop stop-color="#FFD700"/>
<stop offset="1" stop-color="#FFEA73"/>
</linearGradient>
<linearGradient id="paint10_linear_63_71" x1="1176.5" y1="982" x2="1177" y2="1279" gradientUnits="userSpaceOnUse">
<stop stop-color="#FFEA73"/>
<stop offset="1" stop-color="#DBB900"/>
</linearGradient>
<linearGradient id="paint11_linear_63_71" x1="1177" y1="1357.5" x2="999" y2="1292.5" gradientUnits="userSpaceOnUse">
<stop stop-color="#FFD700"/>
<stop offset="1" stop-color="#FFED8A"/>
</linearGradient>
<linearGradient id="paint12_linear_63_71" x1="1176.81" y1="1082" x2="1176.81" y2="1278.32" gradientUnits="userSpaceOnUse">
<stop stop-color="#FFEA73"/>
<stop offset="1" stop-color="#DBB900"/>
</linearGradient>
<linearGradient id="paint13_linear_63_71" x1="1264.73" y1="1232.71" x2="1264.73" y2="1431.35" gradientUnits="userSpaceOnUse">
<stop stop-color="#EEC700"/>
<stop offset="1" stop-color="#FFED8A"/>
</linearGradient>
<linearGradient id="paint14_linear_63_71" x1="444.999" y1="929.821" x2="176.391" y2="781.759" gradientUnits="userSpaceOnUse">
<stop stop-color="#FFD700"/>
<stop offset="1" stop-color="#FFEA73"/>
</linearGradient>
<linearGradient id="paint15_linear_63_71" x1="446" y1="795" x2="446" y2="498" gradientUnits="userSpaceOnUse">
<stop stop-color="#DBB900"/>
<stop offset="1" stop-color="#FFEA73"/>
</linearGradient>
<linearGradient id="paint16_linear_63_71" x1="475.233" y1="784.502" x2="592.233" y2="991.002" gradientUnits="userSpaceOnUse">
<stop stop-color="#FFD700"/>
<stop offset="1" stop-color="#FFEA73"/>
</linearGradient>
<linearGradient id="paint17_linear_63_71" x1="438.813" y1="888.078" x2="260.968" y2="789.217" gradientUnits="userSpaceOnUse">
<stop stop-color="#EEC700"/>
<stop offset="1" stop-color="#FFED8A"/>
</linearGradient>
<linearGradient id="paint18_linear_63_71" x1="530" y1="750" x2="550.001" y2="928.5" gradientUnits="userSpaceOnUse">
<stop stop-color="#EEC900"/>
<stop offset="1" stop-color="#FFED8A"/>
</linearGradient>
<linearGradient id="paint19_linear_63_71" x1="440.814" y1="797.322" x2="440.814" y2="601" gradientUnits="userSpaceOnUse">
<stop stop-color="#C9A900"/>
<stop offset="1" stop-color="#FFD800"/>
</linearGradient>
</defs>
</svg>
