<svg id="svg" version="1.1" xmlns="http://www.w3.org/2000/svg" xmlns:xlink="http://www.w3.org/1999/xlink" width="400" height="400" viewBox="0, 0, 400,400"><g id="svgg"><path id="path0" d="M188.603 26.701 C 166.749 28.295,138.488 35.947,121.373 44.904 C 114.539 48.481,102.378 56.118,97.610 59.828 C 87.216 67.915,69.368 86.001,62.935 94.967 C 57.065 103.149,50.930 114.407,51.179 116.540 L 51.287 117.463 57.353 117.688 C 69.870 118.152,125.188 118.047,125.677 117.558 C 126.014 117.221,126.202 117.212,126.394 117.521 C 127.080 118.626,345.446 118.186,346.963 117.077 C 350.543 114.459,331.370 85.985,316.869 72.384 C 292.169 49.216,273.502 38.541,245.588 31.619 C 230.556 27.891,203.867 25.588,188.603 26.701 M196.200 39.547 C 196.506 40.345,195.729 41.096,195.172 40.539 C 194.701 40.069,194.993 38.971,195.588 38.971 C 195.803 38.971,196.078 39.230,196.200 39.547 M220.473 41.608 C 221.595 42.663,221.550 43.886,220.355 44.826 C 219.070 45.837,217.814 45.789,216.711 44.686 C 214.393 42.368,218.074 39.355,220.473 41.608 M164.351 48.185 C 164.829 49.079,164.321 49.885,162.951 50.406 C 161.239 51.057,159.838 49.132,161.103 47.868 C 161.846 47.125,163.890 47.325,164.351 48.185 M155.817 51.961 C 155.886 52.315,155.702 52.574,155.380 52.574 C 154.697 52.574,154.284 51.974,154.608 51.451 C 154.940 50.913,155.674 51.222,155.817 51.961 M124.643 58.435 C 124.136 59.384,123.044 59.297,122.850 58.292 C 122.654 57.274,123.875 56.438,124.560 57.123 C 124.964 57.527,124.982 57.803,124.643 58.435 M276.481 57.591 C 278.331 58.823,278.941 61.445,277.905 63.719 C 277.589 64.412,277.632 64.855,278.103 65.766 C 278.636 66.797,278.644 67.061,278.173 68.114 C 277.881 68.767,277.541 69.756,277.417 70.313 C 277.255 71.040,276.962 71.327,276.372 71.337 C 275.921 71.344,275.138 71.586,274.632 71.875 C 273.515 72.514,270.835 72.583,269.737 72.001 C 265.927 69.981,263.241 66.261,263.930 63.962 C 264.154 63.212,264.338 62.159,264.338 61.622 C 264.338 60.909,264.611 60.527,265.349 60.204 C 265.905 59.961,266.972 59.282,267.720 58.695 C 268.688 57.935,269.696 57.549,271.213 57.355 C 274.665 56.913,275.521 56.951,276.481 57.591 M152.057 58.144 C 152.304 58.544,151.306 59.559,150.665 59.559 C 150.184 59.559,150.325 58.167,150.827 57.964 C 151.569 57.665,151.780 57.696,152.057 58.144 M187.668 59.099 C 187.861 59.755,188.316 60.387,188.679 60.502 C 189.041 60.617,189.338 60.856,189.338 61.032 C 189.338 61.624,188.576 61.833,188.040 61.388 C 187.748 61.145,187.107 61.048,186.611 61.173 C 185.080 61.557,183.824 60.842,183.824 59.586 C 183.824 57.386,187.043 56.978,187.668 59.099 M250.303 61.888 C 250.368 62.226,250.154 62.605,249.827 62.730 C 249.041 63.032,248.882 62.822,249.142 61.826 C 249.384 60.902,250.119 60.942,250.303 61.888 M257.904 62.137 C 257.904 62.805,257.682 63.083,257.077 63.169 C 256.250 63.286,255.844 61.926,256.508 61.262 C 257.053 60.716,257.904 61.250,257.904 62.137 M127.363 63.813 C 128.106 64.555,128.120 66.499,127.385 66.781 C 126.084 67.280,125.100 64.753,126.176 63.676 C 126.726 63.127,126.672 63.121,127.363 63.813 M159.409 65.625 C 160.187 66.813,159.338 68.382,157.918 68.382 C 156.684 68.382,156.448 67.805,156.998 66.137 C 157.556 64.446,158.504 64.245,159.409 65.625 M257.511 65.284 C 258.168 65.941,258.203 66.161,257.763 66.856 C 257.001 68.059,255.483 66.645,256.024 65.236 C 256.288 64.548,256.791 64.564,257.511 65.284 M141.059 68.382 C 141.577 69.437,142.543 70.729,143.473 71.611 C 143.826 71.946,144.219 72.776,144.346 73.455 C 144.474 74.135,144.847 74.773,145.175 74.872 C 145.503 74.972,146.059 75.207,146.410 75.394 C 147.310 75.875,147.426 75.830,147.426 75.008 C 147.426 74.609,147.830 74.017,148.324 73.694 C 148.817 73.370,149.272 72.746,149.335 72.307 C 149.478 71.301,151.256 70.968,151.606 71.882 C 151.862 72.549,151.271 73.897,150.722 73.897 C 150.527 73.897,150.368 74.443,150.368 75.110 C 150.368 76.443,149.821 77.206,148.866 77.206 C 148.525 77.206,147.977 77.617,147.648 78.119 C 147.319 78.621,146.641 79.135,146.142 79.260 C 145.381 79.451,145.296 79.601,145.613 80.193 C 146.080 81.065,145.773 81.618,144.822 81.618 C 144.412 81.618,143.963 81.975,143.783 82.445 C 143.297 83.717,142.146 84.568,140.579 84.815 C 139.795 84.938,138.760 85.345,138.278 85.718 C 137.034 86.681,136.292 86.565,135.324 85.256 C 134.850 84.615,133.571 83.708,132.405 83.186 C 131.264 82.675,129.752 81.644,129.044 80.894 C 128.336 80.143,127.524 79.453,127.240 79.359 C 126.416 79.089,127.043 77.206,127.957 77.206 C 128.413 77.206,128.833 76.841,129.058 76.249 C 129.330 75.534,129.583 75.360,130.060 75.561 C 132.607 76.633,134.033 76.193,134.293 74.256 C 134.550 72.339,135.111 71.691,136.516 71.691 C 137.396 71.691,137.549 71.593,137.206 71.250 C 135.944 69.988,137.709 67.126,139.612 67.348 C 140.238 67.420,140.776 67.805,141.059 68.382 M139.614 71.103 C 138.164 71.471,137.878 72.040,138.769 72.779 C 139.481 73.371,140.427 73.145,141.026 72.240 C 141.765 71.126,141.227 70.693,139.614 71.103 M298.667 70.882 C 298.991 71.406,298.276 72.135,297.570 71.999 C 296.463 71.785,296.455 70.588,297.562 70.588 C 298.070 70.588,298.568 70.720,298.667 70.882 M207.574 72.482 C 209.548 73.410,209.892 74.023,208.995 75.014 C 207.777 76.360,204.322 75.592,203.082 73.699 C 201.807 71.754,204.482 71.029,207.574 72.482 M118.750 72.405 C 118.750 73.021,118.098 73.174,117.881 72.608 C 117.753 72.274,117.882 72.059,118.210 72.059 C 118.507 72.059,118.750 72.215,118.750 72.405 M169.485 73.744 C 169.485 74.393,168.694 74.280,168.467 73.598 C 168.387 73.358,168.583 73.162,168.903 73.162 C 169.223 73.162,169.485 73.424,169.485 73.744 M141.675 77.027 C 141.408 77.722,142.167 78.676,142.986 78.676 C 143.325 78.676,143.801 78.875,144.044 79.118 C 144.387 79.461,144.485 79.397,144.485 78.832 C 144.485 77.088,142.212 75.628,141.675 77.027 M251.261 79.989 C 251.980 80.709,251.997 81.396,251.310 81.966 C 250.108 82.964,248.591 80.967,249.706 79.853 C 250.287 79.272,250.567 79.296,251.261 79.989 M161.393 84.003 C 162.034 84.775,161.560 86.269,160.593 86.522 C 158.900 86.964,158.172 85.057,159.641 84.028 C 160.651 83.320,160.825 83.318,161.393 84.003 M189.360 84.620 C 193.154 87.670,189.464 92.167,184.330 90.750 C 183.049 90.396,182.496 88.971,183.640 88.971 C 184.023 88.971,184.191 88.585,184.191 87.708 C 184.191 83.800,186.570 82.379,189.360 84.620 M277.500 86.471 C 277.743 86.713,277.941 87.189,277.941 87.529 C 277.941 87.868,278.281 88.373,278.697 88.650 C 280.423 89.801,277.273 93.395,274.555 93.377 C 271.830 93.359,271.903 88.630,274.646 87.494 C 275.232 87.252,275.902 86.823,276.136 86.541 C 276.656 85.914,276.930 85.900,277.500 86.471 M200.735 92.053 C 201.654 92.470,202.251 94.118,201.483 94.118 C 201.196 94.118,201.188 94.325,201.458 94.829 C 202.215 96.243,201.945 96.745,200.495 96.621 C 199.180 96.510,199.139 96.459,198.609 94.301 C 198.311 93.088,197.923 92.040,197.747 91.973 C 197.571 91.906,197.426 91.703,197.426 91.523 C 197.426 91.137,199.421 91.456,200.735 92.053 M161.765 92.424 C 161.765 92.706,161.496 93.039,161.167 93.166 C 160.493 93.424,159.459 92.738,159.768 92.238 C 160.098 91.704,161.765 91.860,161.765 92.424 M115.563 94.639 C 115.836 95.352,115.218 96.090,114.559 95.837 C 113.985 95.617,113.751 94.460,114.190 94.020 C 114.503 93.707,115.352 94.090,115.563 94.639 M312.001 95.409 C 312.279 96.134,311.497 97.059,310.605 97.059 C 309.603 97.059,309.291 95.958,310.121 95.351 C 311.015 94.697,311.737 94.720,312.001 95.409 M156.569 101.136 C 157.191 101.716,157.366 102.235,157.281 103.250 C 157.075 105.720,152.574 105.073,152.574 102.574 C 152.574 100.665,155.091 99.759,156.569 101.136 M215.242 101.813 C 215.514 102.253,214.822 102.689,214.332 102.386 C 213.921 102.132,214.191 101.471,214.706 101.471 C 214.884 101.471,215.125 101.625,215.242 101.813 M121.415 103.229 C 122.204 103.917,122.263 105.990,121.512 106.614 C 120.209 107.695,117.647 106.089,117.647 104.192 C 117.647 101.919,119.400 101.471,121.415 103.229 M171.324 105.861 C 171.324 106.788,170.693 107.162,170.043 106.622 C 169.373 106.067,169.738 105.147,170.628 105.147 C 171.071 105.147,171.324 105.406,171.324 105.861 M253.230 152.849 C 252.288 153.930,252.231 156.034,252.192 191.176 C 252.127 249.236,251.812 243.015,254.815 243.015 C 256.953 243.015,256.859 244.565,257.139 204.440 C 257.281 184.134,257.490 167.052,257.605 166.480 C 258.105 163.980,258.779 164.874,265.976 177.574 C 276.353 195.884,279.095 200.847,282.533 207.537 C 294.982 231.766,301.889 243.175,303.740 242.567 C 305.583 241.961,305.973 240.212,305.727 233.640 C 305.599 230.202,305.486 211.507,305.478 192.096 C 305.468 170.628,305.323 156.261,305.106 155.423 C 304.528 153.180,302.067 153.659,301.304 156.162 C 301.165 156.619,301.039 173.706,301.025 194.132 C 301.010 214.559,300.885 231.341,300.747 231.427 C 300.609 231.512,299.546 229.548,298.386 227.061 C 297.225 224.575,295.199 220.654,293.883 218.348 C 292.567 216.041,290.914 213.024,290.210 211.642 C 289.506 210.261,287.287 206.433,285.279 203.136 C 283.270 199.839,281.282 196.337,280.861 195.354 C 280.440 194.371,279.220 192.160,278.150 190.441 C 276.411 187.648,273.763 183.022,271.519 178.860 C 270.041 176.118,265.007 167.482,262.518 163.419 C 261.155 161.195,259.364 158.217,258.537 156.801 C 256.014 152.485,254.518 151.371,253.230 152.849 M42.279 153.542 C 32.037 155.485,24.985 163.603,24.968 173.472 C 24.955 181.445,30.567 186.943,43.972 192.088 C 59.531 198.059,64.774 204.167,64.807 216.360 C 64.865 237.556,38.909 245.780,24.348 229.180 C 21.535 225.973,20.260 227.306,22.191 231.434 C 25.989 239.554,40.818 243.936,52.623 240.425 C 66.743 236.227,73.836 216.005,65.924 202.505 C 62.595 196.826,58.830 194.120,46.875 188.813 C 31.395 181.942,28.331 178.567,29.677 169.871 C 31.360 158.999,41.603 153.781,53.530 157.718 C 60.090 159.884,60.348 157.077,53.852 154.215 C 52.399 153.575,44.522 153.117,42.279 153.542 M94.267 154.084 C 93.351 155.096,93.406 240.547,94.322 241.512 C 94.901 242.122,97.285 242.119,98.021 241.509 C 98.639 240.995,98.779 162.695,98.170 157.404 C 97.697 153.288,96.165 151.984,94.267 154.084 M344.177 153.666 L 324.934 153.860 324.232 154.728 C 323.352 155.816,323.350 156.315,324.223 157.393 L 324.917 158.250 336.284 158.137 C 346.258 158.039,347.710 158.096,348.131 158.603 C 348.514 159.064,348.641 165.680,348.766 191.630 C 348.852 209.478,349.041 227.965,349.185 232.713 L 349.449 241.344 350.408 241.681 C 351.623 242.107,353.186 241.726,353.629 240.896 C 353.838 240.504,353.838 231.822,353.629 218.382 C 353.442 206.351,353.334 187.822,353.391 177.206 L 353.493 157.904 360.478 157.684 C 369.719 157.393,371.216 156.969,370.894 154.733 C 370.738 153.656,369.703 153.370,366.176 153.426 C 364.660 153.451,354.760 153.558,344.177 153.666 M131.618 154.518 C 130.221 155.222,130.182 156.264,129.924 199.880 L 129.690 239.650 130.598 240.558 L 131.506 241.466 147.463 241.619 C 163.938 241.778,164.706 241.719,164.706 240.315 C 164.706 238.023,164.985 238.069,150.087 237.868 C 135.038 237.664,135.521 237.750,135.148 235.190 C 135.024 234.338,134.905 216.020,134.883 194.485 C 134.839 150.630,135.017 152.805,131.618 154.518 M187.684 154.289 C 185.165 154.979,184.944 156.041,184.362 170.185 C 184.082 176.978,183.641 185.267,183.382 188.603 C 182.204 203.732,182.890 225.094,184.745 231.041 C 187.440 239.685,191.166 241.535,206.066 241.623 C 220.415 241.709,226.699 240.176,225.524 236.876 C 225.082 235.635,224.278 235.608,220.373 236.705 C 216.991 237.654,209.070 238.348,203.493 238.182 C 194.549 237.917,189.674 233.539,187.996 224.265 C 187.055 219.067,187.058 196.241,187.999 195.299 C 188.571 194.727,190.132 194.658,205.063 194.550 C 222.585 194.423,222.042 194.486,222.053 192.564 C 222.065 190.540,221.837 190.511,204.928 190.379 C 186.118 190.231,188.058 191.021,188.387 183.647 C 188.874 172.754,189.732 160.824,190.112 159.648 C 190.757 157.657,190.853 157.645,205.647 157.725 C 221.942 157.814,220.767 157.857,221.481 157.143 C 222.263 156.361,222.224 154.875,221.415 154.648 C 220.492 154.387,188.564 154.048,187.684 154.289 M97.758 268.908 C 97.637 269.030,88.620 269.147,77.721 269.170 C 66.822 269.192,55.257 269.314,52.022 269.440 L 46.140 269.669 46.194 270.861 C 46.315 273.549,55.340 290.419,61.831 300.092 C 64.132 303.521,71.217 312.485,76.426 318.557 C 97.432 343.048,133.567 362.701,169.669 369.271 C 190.549 373.071,222.272 371.595,244.312 365.798 C 273.865 358.025,299.671 344.404,315.084 328.444 C 330.045 312.952,339.846 299.211,349.486 280.212 C 354.797 269.744,355.333 270.298,339.123 269.477 C 331.492 269.091,98.125 268.541,97.758 268.908 M203.676 273.896 C 206.061 274.567,207.475 276.308,207.210 278.245 C 207.076 279.220,207.167 280.414,207.431 281.144 C 207.981 282.664,207.705 283.188,205.480 284.848 C 204.589 285.513,203.402 286.464,202.843 286.962 C 201.217 288.409,196.422 287.121,194.542 284.732 C 193.639 283.583,191.801 282.721,190.257 282.721 C 189.235 282.721,188.625 282.420,187.574 281.395 C 186.314 280.168,186.088 280.085,184.517 280.269 C 180.566 280.733,181.607 276.175,185.596 275.545 C 186.340 275.428,188.768 275.014,190.993 274.625 C 197.247 273.532,201.513 273.287,203.676 273.896 M136.765 282.130 C 136.765 282.926,136.165 283.456,135.264 283.456 C 134.877 283.456,134.802 281.864,135.172 281.495 C 135.782 280.885,136.765 281.277,136.765 282.130 M268.934 282.537 C 268.934 283.551,268.831 283.640,267.652 283.640 C 266.240 283.640,265.740 282.770,266.574 281.765 C 267.404 280.765,268.934 281.265,268.934 282.537 M152.574 287.684 C 153.185 288.421,152.394 289.418,151.319 289.264 C 150.105 289.091,150.011 287.132,151.217 287.132 C 151.712 287.132,152.322 287.381,152.574 287.684 M331.732 289.268 C 332.981 291.396,330.904 292.842,328.758 291.339 C 327.684 290.587,327.662 288.840,328.719 288.100 C 329.749 287.378,330.881 287.817,331.732 289.268 M155.341 292.296 C 155.585 292.691,154.907 293.750,154.410 293.750 C 154.058 293.750,153.685 292.393,153.962 292.117 C 154.297 291.781,155.086 291.883,155.341 292.296 M164.329 293.005 C 166.107 294.783,165.121 297.024,161.996 298.311 C 160.078 299.101,159.340 299.049,158.661 298.080 C 156.529 295.037,161.717 290.393,164.329 293.005 M168.298 300.666 C 168.378 300.906,168.182 301.103,167.862 301.103 C 167.541 301.103,167.279 300.841,167.279 300.521 C 167.279 299.872,168.071 299.985,168.298 300.666 M97.353 301.544 C 97.596 301.787,97.794 302.283,97.794 302.647 C 97.794 303.474,96.250 303.555,95.592 302.762 C 94.618 301.588,96.261 300.452,97.353 301.544 M292.806 304.596 C 294.245 306.035,294.692 306.138,295.878 305.307 C 297.112 304.443,298.162 304.935,298.162 306.377 C 298.162 307.026,298.421 307.927,298.738 308.380 C 299.055 308.833,299.645 310.395,300.049 311.852 C 300.805 314.580,300.804 314.617,299.780 320.106 C 299.677 320.657,298.910 321.276,297.343 322.072 C 293.155 324.200,291.942 325.270,292.164 326.638 C 292.526 328.868,289.448 330.223,287.267 328.794 C 286.440 328.253,286.058 328.232,284.152 328.625 L 281.980 329.074 280.512 327.895 C 279.705 327.246,279.032 326.702,279.018 326.685 C 278.936 326.590,278.266 320.593,278.234 319.669 C 278.184 318.227,280.031 313.339,281.127 312.012 C 281.599 311.441,281.985 310.513,281.985 309.950 C 281.985 308.753,284.143 306.251,285.178 306.248 C 287.102 306.242,288.631 305.468,288.846 304.391 C 289.172 302.759,291.068 302.857,292.806 304.596 M320.890 307.291 C 320.960 307.770,320.769 308.183,320.414 308.319 C 319.590 308.636,319.356 308.286,319.639 307.160 C 319.919 306.041,320.718 306.125,320.890 307.291 M187.024 307.445 C 187.424 308.325,187.045 309.926,186.435 309.926 C 185.859 309.926,184.926 308.820,184.926 308.136 C 184.926 306.649,186.435 306.152,187.024 307.445 M232.648 308.321 C 232.761 309.105,231.863 309.754,231.217 309.354 C 230.822 309.110,230.772 307.954,231.140 307.585 C 231.626 307.100,232.537 307.544,232.648 308.321 M85.819 312.710 C 86.642 313.533,86.566 315.909,85.692 316.701 C 85.020 317.309,84.950 317.303,84.221 316.574 C 83.233 315.586,83.157 313.078,84.099 312.529 C 84.971 312.022,85.150 312.040,85.819 312.710 M154.609 315.714 C 155.339 317.461,155.286 318.015,154.388 318.015 C 152.971 318.015,152.206 317.327,152.206 316.053 C 152.206 313.705,153.683 313.497,154.609 315.714 M102.574 324.103 C 102.574 324.394,102.325 324.632,102.022 324.632 C 101.468 324.632,101.266 323.856,101.706 323.417 C 102.049 323.074,102.574 323.488,102.574 324.103 M118.678 328.542 C 118.809 329.461,117.874 329.944,117.300 329.253 C 116.763 328.606,117.221 327.509,117.969 327.651 C 118.297 327.714,118.616 328.114,118.678 328.542 M226.675 329.943 C 226.999 330.437,227.389 331.764,227.542 332.892 C 227.834 335.040,228.418 335.859,230.239 336.668 C 231.456 337.208,231.596 338.683,230.558 340.033 C 229.953 340.820,229.545 340.925,226.614 341.044 C 215.076 341.514,215.074 341.514,215.074 339.884 C 215.074 339.419,214.367 338.260,213.476 337.264 C 211.958 335.567,210.827 333.864,211.092 333.672 C 212.627 332.555,214.541 331.783,216.281 331.578 C 217.791 331.400,218.715 331.066,219.352 330.468 C 219.952 329.903,220.912 329.533,222.172 329.380 C 225.720 328.948,226.050 328.990,226.675 329.943 M231.184 330.945 C 231.035 331.956,230.147 332.295,230.147 331.342 C 230.147 330.579,230.444 330.147,230.969 330.147 C 231.152 330.147,231.248 330.506,231.184 330.945 M237.654 333.311 C 238.308 333.562,238.439 334.757,237.852 335.120 C 237.314 335.452,236.397 334.606,236.397 333.779 C 236.397 333.053,236.693 332.943,237.654 333.311 M299.969 336.930 C 299.534 337.381,298.722 336.610,299.059 336.065 C 299.229 335.789,299.456 335.808,299.805 336.125 C 300.111 336.403,300.175 336.717,299.969 336.930 M218.995 337.745 C 218.489 338.251,218.777 338.971,219.485 338.971 C 219.975 338.971,220.221 338.725,220.221 338.235 C 220.221 337.527,219.501 337.239,218.995 337.745 M199.566 340.722 C 199.707 341.706,198.764 342.196,197.981 341.547 C 197.574 341.209,197.536 340.923,197.827 340.380 C 198.326 339.448,199.415 339.662,199.566 340.722 M197.580 343.606 C 198.566 343.984,198.299 345.221,197.231 345.221 C 196.173 345.221,195.587 344.209,196.362 343.719 C 196.983 343.325,196.876 343.335,197.580 343.606 M212.326 348.913 C 212.664 349.459,211.812 350.363,211.186 350.123 C 210.381 349.813,210.533 348.529,211.375 348.529 C 211.768 348.529,212.196 348.702,212.326 348.913 " stroke="none" fill="#000000" fill-rule="evenodd"></path></g></svg>