<?xml version="1.0" standalone="no"?>
<!DOCTYPE svg PUBLIC "-//W3C//DTD SVG 20010904//EN"
 "http://www.w3.org/TR/2001/REC-SVG-20010904/DTD/svg10.dtd">
<svg version="1.0" xmlns="http://www.w3.org/2000/svg"
 width="165.000000pt" height="204.000000pt" viewBox="0 0 165.000000 204.000000"
 preserveAspectRatio="xMidYMid meet">

<g transform="translate(0.000000,204.000000) scale(0.100000,-0.100000)"
fill="#000000" stroke="none">
<path d="M711 1682 c-36 -9 -67 -23 -69 -31 -4 -11 1 -12 19 -7 69 19 197 40
187 31 -3 -3 -36 -16 -74 -28 -37 -12 -69 -28 -70 -35 -1 -7 0 -8 2 -3 3 6 16
4 31 -6 20 -13 31 -14 54 -6 34 13 39 -1 8 -18 -21 -11 -21 -12 10 -31 31 -20
32 -20 53 -2 12 11 18 13 14 7 -4 -8 -2 -13 6 -14 7 0 4 -4 -7 -9 -18 -7 -17
-9 15 -23 19 -8 52 -18 73 -22 36 -7 38 -6 27 11 -9 15 -9 29 1 64 l14 45 3
-37 c3 -32 8 -39 30 -44 42 -8 57 -19 60 -43 3 -19 37 -49 87 -77 11 -6 21
-20 23 -30 11 -71 16 -76 50 -44 12 12 22 17 22 13 0 -4 4 -3 8 3 4 5 23 16
42 22 l35 12 -39 -5 c-46 -5 -38 9 14 23 26 8 29 10 12 11 -37 2 -15 21 24 21
19 0 34 4 34 9 0 5 -23 35 -52 66 -34 38 -54 52 -59 44 -5 -8 -12 -2 -22 18
-11 20 -37 40 -80 61 -36 18 -70 32 -76 32 -6 0 -20 6 -32 13 -17 10 -22 9
-30 -5 -6 -10 -15 -18 -21 -18 -7 0 -7 5 1 14 20 24 -7 31 -139 33 -89 1 -143
-3 -189 -15z m239 -117 c0 -2 -10 -9 -22 -15 -22 -11 -22 -10 -4 4 21 17 26
19 26 11z"/>
<path d="M548 1620 c-69 -36 -76 -45 -35 -48 18 -1 39 -5 48 -7 8 -3 22 1 31
7 17 14 35 78 21 78 -4 -1 -34 -14 -65 -30z"/>
<path d="M629 1603 c-12 -16 -12 -17 1 -6 8 6 26 13 40 16 l25 4 -26 2 c-15 0
-33 -7 -40 -16z"/>
<path d="M430 1545 c-19 -14 -30 -25 -24 -25 10 0 73 49 63 50 -3 0 -20 -11
-39 -25z"/>
<path d="M990 1466 c0 -2 7 -7 16 -10 8 -3 12 -2 9 4 -6 10 -25 14 -25 6z"/>
<path d="M848 1453 c-16 -2 -28 -9 -28 -14 0 -13 111 -125 130 -131 8 -3 13
-8 10 -11 -6 -6 -80 29 -124 58 l-29 19 14 -22 c8 -12 21 -22 31 -22 9 0 25
-10 35 -22 10 -13 34 -31 53 -41 27 -14 30 -17 10 -13 -23 4 -21 1 14 -30 23
-19 50 -34 65 -34 14 -1 37 -7 51 -16 14 -8 18 -14 10 -13 -8 1 -29 -2 -47 -6
l-32 -7 18 -37 c10 -20 22 -51 26 -69 12 -55 59 -75 122 -51 20 7 21 12 13 35
-11 28 -13 27 38 7 16 -7 15 9 -3 33 -11 14 -15 16 -15 4 -1 -27 -20 15 -25
57 -3 21 -8 57 -11 81 -4 24 -11 42 -19 42 -6 0 -20 9 -30 20 -18 20 -17 20
13 20 18 0 32 5 32 11 0 19 -57 94 -81 106 -50 24 -198 53 -241 46z m212 -138
c7 -8 8 -15 2 -15 -5 0 -15 7 -22 15 -7 8 -8 15 -2 15 5 0 15 -7 22 -15z m45
-45 c3 -5 1 -10 -4 -10 -6 0 -11 5 -11 10 0 6 2 10 4 10 3 0 8 -4 11 -10z m55
-97 c0 -5 -5 -15 -10 -23 -8 -12 -10 -11 -10 8 0 12 5 22 10 22 6 0 10 -3 10
-7z"/>
<path d="M311 1420 c-25 -6 -42 -30 -21 -30 7 0 26 6 43 14 18 8 39 17 47 19
20 7 -38 5 -69 -3z"/>
<path d="M610 1415 c-10 -12 -10 -15 0 -15 9 0 11 -13 8 -45 -4 -30 -2 -42 5
-38 6 4 8 0 4 -11 -4 -10 -7 -24 -7 -32 0 -9 -5 -12 -10 -9 -6 3 -13 -2 -17
-12 -3 -10 -13 -27 -22 -38 -15 -19 -15 -19 3 -5 18 14 19 13 13 -2 -3 -10 -1
-20 6 -24 7 -4 9 -3 4 1 -4 5 1 20 10 34 9 14 25 42 35 61 10 20 17 28 18 18
0 -10 -9 -32 -20 -50 -11 -18 -20 -42 -20 -54 0 -31 -21 -53 -60 -61 l-35 -6
30 27 c26 23 24 22 -17 -5 -26 -18 -46 -35 -43 -37 2 -3 11 1 20 8 8 7 15 8
15 2 0 -5 -7 -12 -15 -16 -19 -7 -20 -46 0 -46 8 0 12 6 9 14 -4 9 5 15 25 18
17 3 33 3 36 0 6 -6 -45 -92 -77 -131 -22 -25 -33 -31 -50 -26 -15 4 -19 3
-10 -3 9 -6 -4 -19 -49 -47 l-61 -38 -65 11 c-61 10 -93 25 -93 42 0 4 6 8 13
7 31 -1 48 4 42 12 -3 5 -1 12 5 16 6 4 8 11 5 16 -12 18 11 9 28 -12 21 -24
15 -38 -8 -19 -26 21 -18 -8 10 -35 26 -26 40 -31 50 -16 3 5 -4 12 -15 16
-21 7 -28 25 -9 25 5 0 7 5 4 10 -10 17 16 11 54 -12 29 -18 33 -19 22 -4 -20
24 -127 77 -144 71 -7 -3 -22 4 -33 16 l-19 22 28 -18 c26 -17 27 -17 20 1 -3
11 -10 21 -15 24 -4 3 -9 17 -10 30 -2 14 -7 28 -13 32 -5 4 0 8 13 8 15 0 22
6 22 20 0 21 20 70 29 71 39 5 53 4 62 -8 6 -7 27 -13 45 -13 22 0 34 -5 34
-14 0 -22 49 -30 71 -10 21 19 9 38 -27 40 -41 3 -59 13 -46 26 16 16 15 28
-3 28 -8 0 -15 5 -15 10 0 6 3 10 8 10 4 0 31 16 60 35 29 19 50 30 47 24 -4
-5 -8 -23 -10 -40 -3 -17 -7 -41 -10 -53 -3 -11 4 -1 15 23 11 24 23 54 26 66
3 12 16 28 29 35 47 25 32 35 -17 11 -42 -21 -53 -23 -70 -12 -11 7 -23 10
-26 7 -3 -3 0 -6 7 -6 7 0 10 -4 6 -9 -3 -5 3 -11 12 -13 13 -2 7 -8 -19 -21
-20 -10 -40 -22 -43 -27 -3 -6 -15 -10 -26 -10 -10 0 -19 -3 -19 -8 0 -4 -10
-13 -22 -21 -16 -9 -11 -1 12 24 32 34 33 37 10 30 -13 -4 -30 -14 -38 -21
-22 -22 -25 -16 -5 10 10 14 26 27 37 30 10 2 15 9 11 15 -3 6 -1 11 4 11 6 0
11 5 11 11 0 6 -7 8 -15 5 -39 -16 -50 -18 -30 -5 11 7 24 16 30 21 5 5 19 15
29 22 17 12 12 12 -38 5 -31 -5 -61 -7 -66 -4 -22 14 -102 -151 -130 -268 -32
-131 -23 -300 22 -403 23 -54 147 -213 195 -249 53 -40 152 -90 198 -98 17 -3
38 -9 48 -12 10 -4 17 -3 17 4 0 6 -11 11 -25 11 -31 0 -33 16 -2 24 33 9 77
7 77 -3 0 -5 -7 -14 -15 -21 -30 -25 -13 -30 99 -30 187 0 339 55 488 176 59
49 118 113 118 128 0 3 -5 6 -11 6 -5 0 -7 -5 -3 -12 4 -7 3 -8 -5 -4 -6 4 -9
12 -6 17 4 5 -15 34 -42 64 -40 46 -53 55 -78 54 -16 -1 -43 3 -60 10 -16 6
-35 13 -42 16 -11 4 -43 -25 -43 -39 0 -4 -16 -32 -36 -62 -24 -37 -48 -60
-73 -70 -19 -8 -47 -25 -60 -37 -19 -17 -16 -11 10 27 19 27 50 63 69 80 66
59 90 85 90 93 0 5 -19 7 -42 5 -46 -4 -44 13 1 20 14 2 25 11 27 21 2 13 -2
17 -13 13 -10 -4 -13 -2 -10 8 6 16 -56 70 -67 58 -4 -3 -11 0 -16 8 -22 36
-331 6 -427 -42 -13 -6 -26 -9 -29 -5 -10 9 52 37 129 57 40 10 90 25 112 34
l40 15 -35 1 -35 2 28 10 c19 7 32 7 41 -1 8 -7 16 -7 22 -1 6 6 22 6 44 0 19
-6 48 -9 65 -9 17 1 22 3 13 6 -30 7 -20 23 14 23 31 0 31 0 12 21 -10 12 -44
33 -74 46 -30 14 -61 30 -69 36 -7 7 -20 12 -29 12 -8 0 -23 15 -32 33 -26 47
-34 52 -27 16 3 -17 2 -44 -3 -60 -8 -22 -9 -13 -6 42 2 43 -1 77 -8 86 -9 13
-11 2 -8 -48 3 -43 1 -64 -7 -64 -6 0 -11 16 -11 36 0 21 -4 33 -10 29 -12 -7
-2 -114 13 -132 6 -9 6 -13 -2 -13 -7 0 -9 -4 -6 -10 3 -6 -1 -7 -10 -4 -11 5
-13 10 -5 19 7 9 7 15 1 19 -5 4 -12 -2 -16 -13 -3 -11 -13 -25 -22 -33 -13
-9 -11 -3 5 23 22 36 31 116 12 104 -5 -3 -10 -1 -10 4 0 6 5 11 11 11 5 0 9
8 8 18 -4 42 2 72 14 70 16 -4 16 38 0 81 -7 18 -11 37 -8 41 3 5 1 11 -5 15
-6 4 -10 -7 -10 -26 0 -46 -8 -32 -11 19 -2 23 -4 42 -5 42 -1 0 -7 -7 -14
-15z m-310 -59 c0 -2 -9 -6 -20 -9 -11 -3 -20 -1 -20 4 0 5 9 9 20 9 11 0 20
-2 20 -4z m-7 -70 c-10 -13 -21 -22 -25 -20 -4 3 -14 -8 -22 -23 -10 -19 -15
-22 -16 -11 0 9 5 20 10 23 6 4 8 10 5 15 -3 4 2 13 10 20 8 7 15 9 15 6 0 -4
8 -2 18 3 25 15 25 14 5 -13z m82 -74 c-3 -3 -11 0 -18 7 -9 10 -8 11 6 5 10
-3 15 -9 12 -12z m-124 -15 c-10 -9 -11 -8 -5 6 3 10 9 15 12 12 3 -3 0 -11
-7 -18z m384 -67 c-3 -5 -18 -10 -33 -9 l-27 1 25 8 c35 11 42 11 35 0z m128
-77 c-7 -2 -21 -2 -30 0 -10 3 -4 5 12 5 17 0 24 -2 18 -5z m-283 -193 c-8 -5
-19 -10 -25 -10 -5 0 -3 5 5 10 8 5 20 10 25 10 6 0 3 -5 -5 -10z m-248 -30
c12 -11 17 -20 11 -20 -5 0 -18 9 -28 20 -10 11 -15 20 -11 20 4 0 16 -9 28
-20z m131 -2 c20 -6 37 -16 36 -22 -3 -24 2 -37 11 -31 6 3 10 17 10 31 0 21
4 24 38 24 20 0 57 -9 81 -20 50 -23 96 -27 85 -7 -5 9 -4 9 6 0 9 -9 7 -19
-14 -49 -14 -21 -26 -44 -26 -50 0 -21 110 -22 145 -2 16 10 51 29 77 43 25
13 49 33 53 44 3 10 13 22 22 25 14 6 14 4 2 -11 -12 -15 -12 -16 4 -10 58 22
-49 -56 -147 -107 -24 -12 -34 -29 -53 -88 -13 -40 -23 -78 -23 -85 0 -19 -29
-43 -45 -37 -8 4 -15 13 -15 20 0 8 -12 19 -26 25 -26 9 -26 10 -9 29 10 11
36 26 58 32 35 10 37 13 20 21 -15 7 -27 3 -48 -17 -15 -14 -31 -26 -36 -26
-4 0 -10 -8 -14 -19 -4 -13 -12 -17 -30 -14 -27 6 -25 16 11 74 l23 36 -51 6
c-27 4 -55 10 -62 15 -10 9 -44 17 -151 39 -22 4 -39 13 -38 18 5 21 66 18
188 -11 l20 -5 -20 12 c-11 7 -24 18 -28 26 -4 7 -15 13 -23 13 -8 0 -29 8
-47 17 -18 9 -38 18 -46 19 -7 2 -27 17 -45 35 l-31 32 50 -7 c28 -4 67 -12
88 -18z m617 -10 c10 -6 3 -7 -20 -2 -54 10 -83 25 -35 18 22 -4 47 -11 55
-16z m-599 -86 c-7 -2 -18 1 -23 6 -8 8 -4 9 13 5 13 -4 18 -8 10 -11z m655
-125 c-17 -41 -50 -100 -40 -72 26 74 40 105 50 105 2 0 -2 -15 -10 -33z
m-165 -75 c-5 -10 -18 -25 -28 -33 -12 -10 -11 -5 6 19 24 35 38 43 22 14z"/>
<path d="M510 730 c20 -13 60 -13 60 0 0 6 -17 10 -37 10 -28 0 -34 -3 -23
-10z"/>
<path d="M535 670 c-3 -5 -1 -10 4 -10 6 0 11 5 11 10 0 6 -2 10 -4 10 -3 0
-8 -4 -11 -10z"/>
<path d="M750 1422 c0 -19 25 -41 38 -33 10 6 7 12 -12 25 -14 9 -26 13 -26 8z"/>
<path d="M1318 1349 c-19 -12 -7 -16 32 -9 34 5 34 6 8 11 -15 3 -32 2 -40 -2z"/>
<path d="M690 1291 c0 -6 4 -13 10 -16 6 -3 7 1 4 9 -7 18 -14 21 -14 7z"/>
<path d="M828 1278 c-9 -14 -14 -38 -11 -58 l3 -35 -17 42 c-10 23 -24 48 -32
55 -11 11 -12 7 -6 -26 3 -22 14 -57 22 -78 l16 -39 23 22 c13 13 43 25 65 28
l42 6 -34 35 c-18 19 -33 38 -34 42 0 4 -5 12 -11 18 -8 8 -15 5 -26 -12z"/>
<path d="M439 1253 l-24 -28 30 25 c17 14 32 26 34 28 2 1 0 2 -6 2 -5 0 -20
-12 -34 -27z"/>
<path d="M1230 1161 c0 -6 4 -13 10 -16 6 -3 7 1 4 9 -7 18 -14 21 -14 7z"/>
<path d="M340 1119 c0 -5 9 -9 20 -9 11 0 20 2 20 4 0 2 -9 6 -20 9 -11 3 -20
1 -20 -4z"/>
<path d="M1201 1104 c0 -11 3 -14 6 -6 3 7 2 16 -1 19 -3 4 -6 -2 -5 -13z"/>
<path d="M1478 1027 c-16 -6 -28 -14 -28 -19 0 -10 3 -10 35 2 23 9 25 8 15
-9 -5 -11 -15 -22 -22 -25 -7 -3 -2 -4 12 -3 21 2 25 7 26 35 1 35 1 35 -38
19z"/>
<path d="M1410 975 c0 -36 5 -41 28 -27 14 10 6 42 -12 42 -6 0 -4 5 4 10 13
8 12 10 -2 10 -14 0 -18 -8 -18 -35z"/>
<path d="M1260 991 c0 -6 -6 -11 -14 -11 -7 0 -19 -7 -26 -15 -11 -13 -8 -15
18 -15 38 0 59 22 37 40 -10 9 -15 9 -15 1z"/>
<path d="M958 983 c7 -3 16 -2 19 1 4 3 -2 6 -13 5 -11 0 -14 -3 -6 -6z"/>
<path d="M1345 980 c-3 -5 -15 -10 -25 -10 -34 0 -34 -22 1 -51 19 -15 36 -24
37 -18 2 5 10 9 18 9 9 0 14 11 14 28 0 39 -30 67 -45 42z"/>
<path d="M1370 731 l-44 -6 33 -28 c19 -15 35 -26 38 -24 3 4 23 69 20 65 -1
0 -22 -4 -47 -7z"/>
</g>
</svg>
