<svg width="1330" height="1330" viewBox="0 0 1330 1330" fill="none" xmlns="http://www.w3.org/2000/svg">
<path d="M1330 665C1330 297.731 1032.27 0 665 0C297.731 0 0 297.731 0 665C0 1032.27 297.731 1330 665 1330C1032.27 1330 1330 1032.27 1330 665Z" fill="white"/>
<path fill-rule="evenodd" clip-rule="evenodd" d="M665.5 0H0V665V1330H665.5H1331V665V0H665.5Z" fill="#2B57C9"/>
<path d="M838.296 718.442C847.959 739.379 855.073 846.616 857.421 897.617C845.342 932.848 722.536 1058.67 688.312 1090.89C654.087 1123.1 570.539 1141.22 530.275 1128.13C490.011 1115.04 474.912 1067.73 468.872 1044.58C464.041 1026.06 464.175 986.534 464.846 969.086C463.504 969.757 453.975 969.489 426.595 963.047C392.371 954.994 383.311 924.796 382.305 897.617C381.298 870.439 371.232 881.512 355.126 870.439C339.021 859.366 347.073 837.221 338.014 790.917C328.955 744.614 361.166 701.33 371.232 691.264C381.298 681.198 397.663 658.965 408.901 637.914C431.472 595.636 380.716 564.432 401.43 529.2C415.932 504.535 447.734 499.002 440.687 494.976C433.641 490.95 404.45 449.679 401.43 385.256C398.41 320.834 463.258 197.021 491.443 196.015C519.628 195.008 520.209 245.338 539.335 298.688C558.46 352.038 589.083 449.679 606.777 449.679C639.301 449.679 704.418 483.903 706.431 461.758C708.444 439.613 741.662 391.296 764.814 347.005C787.966 302.715 867.487 257.418 926.877 245.338C986.266 233.259 992.306 236.279 1000.36 298.688C1008.41 361.098 972.599 523.161 926.877 566.445C886.44 604.725 782.933 622.815 809.104 626.841C835.276 630.867 826.217 692.27 838.296 718.442Z" fill="#FBC01E"/>
<path d="M355.162 732.562C329.393 729.341 335.701 774.84 342.076 797.992C347.109 824.581 355.162 834.229 355.162 856.375C355.162 874.091 371.268 875.836 379.32 874.493C369.59 897.31 365.832 946.768 428.644 962.068C507.159 981.193 572.588 955.022 590.707 942.942C608.826 930.863 656.983 872.413 677.664 856.375C729.618 816.082 751.382 842.254 778.325 797.992C792.417 774.84 767.404 733.26 729.618 718.47C680.684 699.316 652.499 734.548 648.473 727.501C644.446 720.455 621.294 719.477 607.202 718.47C593.11 717.463 546.416 724.51 497.093 746.655C447.769 768.8 387.373 736.589 355.162 732.562Z" fill="#FDEFD4"/>
<path d="M569.958 1132.16C497.483 1144.7 488.088 1091.22 479.364 1073.77C465.272 1045.59 469.298 969.086 469.298 969.086C495.643 969.086 522.004 962.1 543.787 956.001C594.117 941.908 640.876 881.549 672.632 857.353C693.77 841.247 746.114 821.115 761.213 811.049C761.213 811.049 752.154 914.73 750.14 956.001C748.127 997.271 741.233 1036.72 724.975 1054.65C646.46 1141.22 622.302 1123.1 569.958 1132.16Z" fill="#FDEFD4"/>
<path d="M375.216 779.316C358.393 772.815 353.071 766.23 341.998 764.217C333.523 762.676 336.965 770.256 337.972 795.422C338.978 820.587 338.978 816.082 341.998 836.214C345.018 856.347 341.998 880.842 375.216 887.022C418.5 895.075 411.454 877.963 425.546 887.022C458.612 908.279 521.174 907.155 571.504 878.97C621.834 850.785 658.072 749.118 657.065 741.065C656.059 733.012 632.907 759.184 618.814 784.349C604.722 809.514 535.266 863.871 496.009 869.91C456.751 875.95 425.546 817.567 425.546 796.428C425.546 775.289 391.013 785.42 375.216 779.316Z" fill="#F0D2A6"/>
<path d="M503.102 998.502C492.633 996.086 518.287 1090.21 530.702 1133.16C484.398 1118.06 478.694 1067.06 470.306 1058.67C461.246 1017.4 452.973 965.485 461.831 966.29C472.904 967.297 522.227 961.257 555.445 953.204C588.663 945.152 628.927 888.782 660.132 864.623C691.337 840.465 730.594 821.339 724.555 834.425C718.515 847.511 649.059 938.105 596.716 982.396C544.373 1026.69 516.188 1001.52 503.102 998.502Z" fill="#F0D2A6"/>
<path d="M694.719 950.898C702.772 924.323 696.061 929.759 691.699 935.799C683.646 948.885 666.534 957.944 660.494 974.05C654.455 990.155 654.455 1027.4 666.534 1030.42C678.613 1033.44 684.653 984.116 694.719 950.898Z" fill="white"/>
<path d="M583.046 416.461L593.112 437.6C508.557 430.553 511.577 472.383 490.438 481.442C469.299 490.501 456.214 513.653 447.154 515.667C438.095 517.68 434.068 537.812 447.154 547.878C460.24 557.944 462.253 594.182 462.253 604.248C462.253 614.314 444.134 642.947 469.299 645.966C515.446 651.504 534.383 638.259 528.689 643.953C520.636 652.006 498.491 676.165 441.114 668.112C392.797 661.33 377.698 733.541 377.698 733.541L358.573 724.481H344.48C344.48 724.481 354.182 706.074 367.632 684.217C383.738 658.046 404.557 648.731 407.896 638.92C424.002 591.61 403.87 589.597 399.844 583.557C390.784 561.412 393.603 542.04 396.824 526.739C400.045 511.439 422.996 499.561 434.068 495.535C427.358 488.153 412.527 468.558 406.89 449.231C399.844 425.072 379.712 361.656 424.002 270.055C468.293 178.455 504.53 206.639 484.398 204.626C464.266 202.613 460.24 306.293 456.214 353.603C452.187 400.914 485.405 428.092 504.53 428.092C519.831 428.092 563.585 419.816 583.046 416.461Z" fill="#F29100"/>
<path d="M787.386 363.67C839.729 296.675 895.092 264.128 920.258 245.338C830.67 271.51 745.713 349.226 723.97 381.788C700.818 416.461 695.785 448.672 684.712 483.903C680.6 496.989 673.64 522.154 745.109 601.228C743.095 586.8 723.97 566.445 733.029 505.042C739.2 463.217 750.243 411.209 787.386 363.67Z" fill="#F29100"/>
<path d="M666.594 827.155C666.741 827.015 666.892 826.87 667.046 826.719C670.17 822.875 675.485 800.646 671.627 792.93C666.594 782.864 665.395 786.124 669.614 780.851C677.666 770.785 668.607 743.607 674.647 746.627C680.686 749.647 685.719 764.746 685.719 786.891C685.719 804.198 673.552 820.351 667.046 826.719C666.889 826.912 666.738 827.059 666.594 827.155Z" fill="#210400"/>
<path d="M942.389 260.205C951.247 267.452 948.764 349.793 946.415 390.057C940.375 430.321 930.309 467.565 900.111 506.823C869.913 546.08 838.708 565.206 808.51 571.245C778.312 577.285 752.141 556.146 752.141 532.994C752.141 509.842 804.484 480.651 823.609 453.473C842.735 426.294 839.715 369.925 854.814 323.621C869.913 277.317 931.316 251.145 942.389 260.205Z" fill="#EE6B53"/>
<path d="M871.177 330.9C874.398 293.857 907.828 270.503 924.269 260.437C907.157 260.437 871.177 290.636 862.118 305.735C853.058 320.834 842.57 348.012 827.635 431.56C821.338 466.791 782.612 486.923 761.216 514.101C749.785 528.621 743.097 567.451 789.401 571.478C826.444 574.699 857.179 553.023 867.916 540.273C862.212 546.313 829.063 565.13 811.788 540.273C789.401 508.062 833.933 490.95 845.006 472.831C856.078 454.712 867.151 377.203 871.177 330.9Z" fill="#D3503A"/>
<path d="M675.654 756.693C677.485 761.109 673.673 773.838 670.621 784.878C676.344 802.541 671.448 820.825 649.699 837.384C631.293 851.399 599.77 856.716 593.29 858.019C592.96 858.243 592.684 858.36 592.467 858.36C591.763 858.36 592.114 858.255 593.29 858.019C599.932 853.51 628.494 805.479 639.397 785.498C650.844 764.523 649.699 749.068 657.712 740.236C665.724 731.404 673.364 751.173 675.654 756.693Z" fill="white"/>
<path d="M665.361 770.686C671.564 757.123 668.605 745.62 663.572 739.581C679.678 746.627 681.381 761.077 674.645 779.845C664.343 808.548 615.928 826.83 617.286 823.676C625.321 805.01 649.48 805.412 665.361 770.686Z" fill="#6894D7"/>
<path d="M661.927 822.572C671.084 804.909 663.072 797.181 659.638 793.869C663.072 789.086 669.253 780.843 671.084 781.726C673.374 782.83 680.241 797.181 674.518 811.533C670.887 820.638 657.73 832.14 650.48 836.924C652.77 834.716 659.18 827.871 661.927 822.572Z" fill="#6894D7"/>
<path d="M827.648 675.158C822.615 625.834 797.45 625.834 788.391 625.834C794.43 628.854 806.509 641.94 813.556 662.072C820.602 682.204 816.576 701.33 813.556 725.488C810.536 749.647 824.628 743.607 819.595 753.673C814.562 763.739 827.648 792.931 827.648 817.089C827.648 841.248 834.694 871.446 827.648 900.637C820.602 929.829 827.648 941.908 837.714 930.835C847.78 919.763 855.833 884.531 851.807 868.426C847.78 852.32 848.787 781.858 846.774 756.693C845.163 736.561 838.05 727.501 834.694 725.488C837.714 699.316 831.772 715.573 827.648 675.158Z" fill="#F29100"/>
<path d="M602.414 451.702C616.104 456.534 642.343 460.426 650.731 461.768C671.668 469.821 685.049 473.502 690.753 475.851L694.015 456.735C687.304 453.715 672.272 447.072 665.83 444.656C657.777 441.636 618.52 434.59 592.348 434.59C566.176 434.59 585.302 445.663 602.414 451.702Z" fill="#FED97D"/>
<path d="M867.151 316.817C898.113 264.464 921.172 265.481 939.626 258.435C922.514 258.435 872.948 267.484 837.959 337.956C813.177 387.871 843.645 426.861 797.453 466.791C741.559 515.108 752.156 545.306 752.156 545.306C752.156 545.306 752.156 515.108 791.413 486.923C810.503 473.218 838.966 456.735 842.992 423.517C847.019 390.299 846.286 352.097 867.151 316.817Z" fill="#FED97D"/>
<path d="M1004.81 326.873C1004.81 287.616 998.774 231.246 969.582 239.299C995.861 258.435 995.754 287.616 986.694 344.992C977.635 402.368 967.569 416.471 959.516 461.768C942.697 556.379 890.061 592.616 890.061 592.616C890.061 592.616 939.626 570.471 969.582 502.033C981.878 473.941 1004.81 371.811 1004.81 326.873Z" fill="#FED97D"/>
<path d="M504.849 204.332C516.15 204.179 527.649 251.697 531.985 275.475C545.629 327.688 585.762 391.518 557.085 381.791C528.408 372.064 524.225 322.415 511.786 293.463C499.347 264.51 490.722 204.522 504.849 204.332Z" fill="#FED97D"/>
<path d="M779.332 935.868C783.358 951.974 777.654 984.856 774.299 999.284C761.884 1012.71 737.055 1038.94 737.055 1036.53C737.055 1033.51 751.147 966.066 751.147 939.895C751.147 918.957 756.516 870.103 759.2 848.294C761.884 850.307 767.454 858.762 768.259 876.479C769.266 898.624 774.299 915.736 779.332 935.868Z" fill="#F29100"/>
<path d="M348.508 719.449C357.886 698.025 383.18 654.605 408.904 644.964C441.115 632.891 461.247 659.052 511.292 647.142C515.231 646.205 491.445 654.357 450.175 640.933C401.246 625.02 359.561 688.652 348.508 719.449Z" stroke="#210400" stroke-width="6.03962"/>
<path d="M339.547 801.99L342.549 801.657L339.547 801.99ZM371.759 889.264L372.568 886.354L371.759 889.264ZM517.716 900.337L518.433 903.27L517.716 900.337ZM628.442 806.722L630.878 808.508L628.442 806.722ZM594.621 854.033L592.597 851.791L594.621 854.033ZM716.9 833.03C718.477 832.486 719.314 830.767 718.77 829.19C718.227 827.614 716.508 826.776 714.931 827.32L716.9 833.03ZM636.394 889.264L634.066 887.341L636.394 889.264ZM541.773 959.02L542.743 961.88L541.773 959.02ZM397.829 948.954L399.749 946.623L397.829 948.954ZM507.518 1004.53C508.746 1005.66 510.656 1005.58 511.785 1004.35C512.914 1003.12 512.833 1001.21 511.605 1000.08L507.518 1004.53ZM336.671 749.432C333.767 758.506 333.328 773.365 336.546 802.323L342.549 801.657C339.324 772.635 339.958 758.976 342.423 751.273L336.671 749.432ZM336.546 802.323C337.55 811.36 337.979 816.926 338.086 820.467C338.193 824.039 337.96 825.322 337.783 825.925C337.688 826.246 337.602 826.424 337.388 826.925C337.171 827.435 336.923 828.071 336.733 828.973C336.379 830.661 336.278 833.074 336.533 837.398L342.562 837.044C342.313 832.812 342.464 831.072 342.644 830.213C342.722 829.841 342.812 829.604 342.945 829.292C343.081 828.972 343.356 828.379 343.577 827.63C344.028 826.094 344.236 824.043 344.123 820.286C344.009 816.497 343.558 810.739 342.549 801.657L336.546 802.323ZM336.533 837.398C337.051 846.207 339.095 857.956 344.219 868.454C349.361 878.989 357.736 888.499 370.95 892.173L372.568 886.354C361.522 883.283 354.294 875.328 349.647 865.805C344.982 856.247 343.05 845.347 342.562 837.044L336.533 837.398ZM370.95 892.173C381.11 894.999 388.257 895.897 393.726 895.694C399.283 895.488 402.948 894.15 406.058 892.804C409.171 891.457 411.229 890.377 414.269 890.001C417.259 889.631 421.406 889.951 428.211 892.139L430.059 886.389C422.772 884.047 417.694 883.491 413.526 884.007C409.408 884.517 406.374 886.087 403.66 887.261C400.943 888.436 398.045 889.49 393.503 889.659C388.872 889.83 382.383 889.084 372.568 886.354L370.95 892.173ZM428.211 892.139C435.155 894.371 441.268 896.842 447.418 899.194C453.53 901.531 459.633 903.732 466.323 905.291C479.813 908.434 495.397 908.901 518.433 903.27L516.999 897.403C494.738 902.845 480.124 902.305 467.694 899.409C461.423 897.948 455.636 895.871 449.575 893.552C443.551 891.249 437.207 888.687 430.059 886.389L428.211 892.139ZM630.878 808.508C642.322 792.902 647.531 771.83 652.202 757.451C653.387 753.8 654.528 750.595 655.715 747.944C656.915 745.262 658.079 743.343 659.231 742.125C660.329 740.963 661.255 740.595 662.132 740.587C663.121 740.578 664.649 741.019 666.895 742.703L670.518 737.871C667.731 735.78 664.918 734.522 662.077 734.548C659.125 734.575 656.731 735.977 654.842 737.976C653.005 739.919 651.51 742.554 650.202 745.476C648.881 748.427 647.662 751.876 646.457 755.585C641.565 770.649 636.708 790.344 626.007 804.937L630.878 808.508ZM666.895 742.703C676.534 749.932 680.828 756.68 682.637 763.919C684.502 771.379 683.83 779.648 682.813 790.33L688.825 790.903C689.821 780.447 690.658 771.101 688.497 762.454C686.28 753.588 681.011 745.74 670.518 737.871L666.895 742.703ZM682.813 790.33C681.89 800.014 675.79 811.27 667.4 821.264C659.041 831.222 648.821 839.434 640.302 843.22L642.755 848.739C652.354 844.473 663.273 835.573 672.026 825.147C680.748 814.757 687.734 802.358 688.825 790.903L682.813 790.33ZM518.433 903.27C544.48 896.903 574.959 875.852 596.644 856.274L592.597 851.791C571.146 871.158 541.574 891.396 516.999 897.403L518.433 903.27ZM596.644 856.274C605.461 848.315 611.691 839.49 616.886 831.11C622.181 822.569 626.162 814.938 630.878 808.508L626.007 804.937C621.126 811.592 616.712 819.929 611.753 827.928C606.694 836.088 600.812 844.375 592.597 851.791L596.644 856.274ZM640.302 843.22C622.839 850.982 602.106 851.013 594.621 851.013V857.053C602.034 857.053 623.98 857.084 642.755 848.739L640.302 843.22ZM714.931 827.32C713.435 827.836 711.312 828.906 708.855 830.284C706.342 831.693 703.307 833.524 699.922 835.667C693.149 839.953 684.897 845.532 676.481 851.58C659.76 863.596 641.999 877.737 634.066 887.341L638.722 891.187C646.089 882.27 663.224 868.544 680.006 856.484C688.341 850.495 696.493 844.984 703.152 840.77C706.482 838.663 709.42 836.891 711.81 835.551C714.255 834.18 715.964 833.353 716.9 833.03L714.931 827.32ZM634.066 887.341C624.414 899.024 615.055 911.417 601.088 923.356C587.178 935.247 568.646 946.714 540.803 956.16L542.743 961.88C571.27 952.201 590.486 940.365 605.012 927.947C619.482 915.578 629.248 902.655 638.722 891.187L634.066 887.341ZM399.749 946.623C391.644 939.948 384.374 929.48 379.633 918.653C374.847 907.724 372.917 897.081 374.688 889.996L368.829 888.532C366.574 897.552 369.123 909.709 374.101 921.075C379.123 932.544 386.902 943.867 395.909 951.285L399.749 946.623ZM540.803 956.16C534.898 958.164 522.353 960.587 510.524 962.559C498.704 964.53 488.128 965.965 486.241 966.071L486.579 972.101C488.862 971.973 499.788 970.472 511.517 968.517C523.236 966.563 536.288 964.07 542.743 961.88L540.803 956.16ZM486.514 966.068C457.332 965.062 439.506 963.366 427.01 960.33C414.7 957.34 407.553 953.05 399.749 946.623L395.909 951.285C404.295 958.191 412.247 962.96 425.584 966.199C438.735 969.394 457.105 971.097 486.306 972.104L486.514 966.068ZM511.605 1000.08C506.068 994.99 500.448 989.619 496.214 984.197C491.927 978.707 489.43 973.621 489.43 969.086H483.39C483.39 975.69 486.932 982.124 491.454 987.914C496.027 993.771 501.983 999.439 507.518 1004.53L511.605 1000.08Z" fill="#410800"/>
<path d="M788.391 623.821C799.799 623.15 823.028 625.834 826.642 661.066C830.668 700.323 836.708 700.323 836.708 713.409C836.708 726.495 827.649 745.62 802.483 775.818C777.318 806.016 764.233 821.115 756.18 821.115" stroke="#410800" stroke-width="6.03962" stroke-linecap="round" stroke-linejoin="round"/>
<path d="M608 612.5C608 617.7 626.333 622.667 635.5 624.5L617 641L591.5 651C585.667 644.833 574 631.4 574 627V587C574 582.5 588 567.5 591.5 565.5C595 563.5 611 569.5 602.5 576.5C594 583.5 608 606 608 612.5Z" fill="white" stroke="white"/>
<path d="M835.702 723.475C839.729 727.501 847.782 744.815 847.782 781.858C847.782 828.162 854.828 879.498 854.828 887.551C854.828 895.604 853.821 922.782 803.491 970.093C753.161 1017.4 708.87 1074.78 681.692 1093.9C654.514 1113.03 633.375 1133.16 585.058 1132.16C536.741 1131.15 537.748 1136.18 513.589 1124.1C489.431 1112.02 467.286 1065.72 467.286 1050.62C467.286 1035.52 453.193 972.106 457.22 967.073" stroke="#410800" stroke-width="6.03962"/>
<path d="M698.396 751.505C693.363 742.445 674.64 725.534 640.013 730.366C596.729 736.405 667.191 717.28 698.396 751.505Z" stroke="#410800" stroke-width="6.03962"/>
<path d="M946.427 257.418C936.361 257.753 910.391 264.866 887.037 290.636C857.846 322.847 847.78 349.019 845.767 384.25C843.754 419.481 853.82 439.613 821.608 462.765C789.397 485.917 739.067 520.141 756.179 553.359" stroke="#410800" stroke-width="6.03962" stroke-linecap="round"/>
<path d="M943.408 549.333L940.987 547.528L943.408 549.333ZM1003.8 355.058L1000.82 354.575L1003.8 355.058ZM923.276 243.325L922.84 240.337L923.276 243.325ZM692.764 456.725L689.839 455.972L692.764 456.725ZM692.764 529.2L695.296 527.555L692.764 529.2ZM707.116 559.618C707.794 561.142 709.578 561.829 711.102 561.152C712.627 560.474 713.313 558.69 712.636 557.166L707.116 559.618ZM796.444 624.828C796.839 627.822 796.84 627.821 796.842 627.821C796.843 627.821 796.845 627.821 796.847 627.821C796.851 627.82 796.857 627.819 796.864 627.818C796.878 627.816 796.899 627.814 796.925 627.81C796.978 627.803 797.055 627.792 797.155 627.778C797.356 627.75 797.65 627.707 798.033 627.65C798.8 627.535 799.923 627.359 801.364 627.113C804.245 626.622 808.401 625.852 813.528 624.733C823.778 622.495 837.929 618.859 853.55 613.257C884.706 602.085 922.111 582.954 945.829 551.137L940.987 547.528C918.318 577.937 882.241 596.553 851.512 607.572C836.19 613.066 822.298 616.636 812.24 618.832C807.213 619.929 803.149 620.682 800.349 621.159C798.949 621.398 797.865 621.568 797.136 621.677C796.771 621.732 796.495 621.772 796.313 621.798C796.221 621.81 796.153 621.82 796.109 621.826C796.087 621.829 796.071 621.831 796.061 621.832C796.056 621.833 796.052 621.833 796.05 621.834C796.049 621.834 796.049 621.834 796.049 621.834C796.049 621.834 796.049 621.834 796.444 624.828ZM945.829 551.137C966.835 522.958 980.558 483.101 989.777 445.953C999.01 408.747 1003.82 373.852 1006.79 355.542L1000.82 354.575C997.829 373.042 993.072 407.602 983.915 444.498C974.744 481.453 961.251 520.344 940.987 547.528L945.829 551.137ZM1006.79 355.542C1009.87 336.514 1009.09 310.756 1005.4 288.506C1003.55 277.369 1000.96 266.986 997.697 258.687C994.501 250.562 990.418 243.79 985.203 240.722L982.141 245.928C985.482 247.893 988.949 252.949 992.076 260.898C995.134 268.673 997.638 278.611 999.441 289.494C1003.05 311.282 1003.78 336.358 1000.82 354.575L1006.79 355.542ZM985.203 240.722C975.892 235.245 965.913 234.405 955.56 235.263C950.393 235.692 945.063 236.55 939.633 237.498C934.165 238.452 928.619 239.493 922.84 240.337L923.712 246.313C929.602 245.454 935.301 244.385 940.672 243.447C946.08 242.503 951.182 241.686 956.058 241.282C965.79 240.476 974.34 241.339 982.141 245.928L985.203 240.722ZM922.84 240.337C903.364 243.18 874.993 256.289 847.229 272.344C819.355 288.463 791.626 307.827 773.335 323.578L777.276 328.155C795.222 312.701 822.626 293.547 850.252 277.573C877.987 261.534 905.483 248.975 923.712 246.313L922.84 240.337ZM773.335 323.578C736.773 355.062 707.146 388.779 689.839 455.972L695.688 457.478C712.605 391.799 741.362 359.08 777.276 328.155L773.335 323.578ZM689.839 455.972C684.719 475.853 681.334 489.31 680.973 500.32C680.602 511.645 683.416 520.36 690.232 530.846L695.296 527.555C689.026 517.909 686.686 510.393 687.01 500.517C687.344 490.326 690.502 477.611 695.688 457.478L689.839 455.972ZM690.232 530.846C700.667 546.901 705.87 556.813 707.116 559.618L712.636 557.166C711.198 553.932 705.798 543.711 695.296 527.555L690.232 530.846Z" fill="#410800"/>
<path d="M620.999 579.5C616.999 582.7 619.332 586.5 620.999 588V595C620.999 599.5 627.999 600 633.999 603C639.999 606 642.999 598.5 646.499 596C649.999 593.5 648.999 588 650.499 585C651.999 582 653.499 582.5 654.999 585C656.499 587.5 653.999 598 653.499 603C652.999 608 642.999 613 639.499 616.5C635.999 620 625.498 618.5 617.499 615C609.499 611.5 604.498 605.5 602.998 603C601.498 600.5 602.498 589 602.498 585C602.498 581 610.498 572.5 612.498 570C614.498 567.5 621.998 569 625.498 570C628.998 571 625.999 575.5 620.999 579.5Z" fill="#2B57C9" stroke="#2B57C9"/>
<path d="M391.789 656.032C410.915 638.92 414.941 635.9 414.941 620.801C414.941 587.583 387.763 554.366 394.809 536.247C401.855 518.128 418.967 494.976 435.073 493.969C451.179 492.963 475.337 471.824 487.416 463.771C499.496 455.718 535.733 433.573 551.839 433.573C567.945 433.573 564.925 433.573 584.05 433.573C603.176 433.573 640.42 441.626 656.526 443.639C669.41 445.25 686.053 453.034 692.763 456.725" stroke="#410800" stroke-width="6.03962"/>
<path d="M591.097 434.58C585.393 422.836 573.381 395.926 570.965 382.236C567.946 365.124 556.873 354.052 547.813 320.834C538.754 287.616 522.648 220.173 513.589 212.12C504.53 204.068 507.549 188.969 476.345 203.061C445.14 217.154 435.074 245.338 418.968 285.603C402.863 325.867 395.816 357.071 395.816 390.289C395.816 423.507 420.981 487.93 431.048 492.963" stroke="#410800" stroke-width="6.03962"/>
<path d="M329.524 740.742C324.693 752.016 335.564 768.256 341.604 774.967C353.683 787.046 354.689 789.059 366.769 798.119C378.848 807.178 396.967 812.211 430.185 798.119C463.403 784.026 442.264 798.119 466.422 785.033C490.581 771.947 498.634 745.775 490.581 729.67C482.528 713.564 439.244 716.584 424.145 725.643C409.046 734.703 388.914 736.716 370.795 729.67C352.676 722.623 335.564 726.65 329.524 740.742Z" fill="#541108"/>
<path d="M342.2 740.462C324.484 738.851 329.667 756.467 334.364 765.526C331.345 761.5 320.055 740.462 331.128 729.389C342.2 718.317 353.49 723.35 378.655 729.389C403.82 735.429 404.827 732.308 424.742 724.356C444.462 716.482 474.282 708.15 491.394 726.269C508.507 744.387 479.098 776.7 481.112 773.68C483.125 770.66 486.145 760.594 481.112 745.495C476.079 730.396 452.975 736.407 444.874 740.462C428.985 748.414 408.636 758.581 387.498 757.574C366.359 756.567 364.346 742.475 342.2 740.462Z" fill="#9F5651"/>
<path d="M459.18 739.492C450.322 742.713 438.093 744.614 441.113 741.505C443.59 738.954 451.179 735.554 457.167 731.439C469.499 722.963 480.371 740.817 478.306 741.505C472.266 743.518 470.253 735.465 459.18 739.492Z" fill="white"/>
<path d="M335.42 765.752C341.863 775.416 355.552 787.226 361.592 791.924C371.658 799.753 382.731 806.016 396.823 806.016C416.955 806.016 417.962 801.99 438.094 795.95C458.226 789.911 464.266 786.891 480.371 773.805C496.477 760.719 496.477 747.633 493.457 733.541C490.437 719.448 469.299 710.389 446.147 716.429C427.641 721.256 416.955 731.528 391.79 733.541C366.625 735.554 361.592 714.415 339.447 723.475C317.302 732.534 327.368 753.673 335.42 765.752Z" stroke="#210400" stroke-width="6.03962"/>
<path d="M449.192 758.952C439.284 764.208 435.735 784.579 435.199 794.107C442.86 793.18 459.443 788.332 464.483 776.365C470.783 761.407 461.578 752.382 449.192 758.952Z" fill="#210400" stroke="#210400" stroke-width="6.03962"/>
<path d="M404.875 537.253C404.875 537.253 418.324 525.202 433.06 533.227C451.48 543.258 470.209 552.822 465.271 606.849C462.718 634.784 440.283 630.899 476.914 646.784C477.838 647.165 478.042 647.272 477.35 646.973C477.204 646.91 477.059 646.847 476.914 646.784C471.669 644.62 443.211 633.604 424 637.914C412.568 640.478 391.789 657.039 391.789 657.039C401.855 648.986 415.948 630.728 410.915 608.722C406.212 588.164 401.667 588.59 396.822 577.517C394.18 571.478 391.601 559.745 396.822 546.313C398.835 541.134 404.875 537.253 404.875 537.253Z" fill="#210400" stroke="#210400" stroke-width="6.03962"/>
<path d="M426.829 599.605C425.515 605.111 426.292 610.349 427.934 612.356C434.34 621.111 442.908 618.289 447.361 616.012C456.302 611.442 457.217 601.326 457.217 607.347C457.217 613.369 454.097 618.531 450.812 621.111C447.526 623.692 435.042 627.994 424.365 621.111C413.688 614.229 416.973 600.465 419.437 596.164C421.901 591.863 430.114 586.701 431.757 589.282C433.399 591.863 428.471 592.723 426.829 599.605Z" fill="#2B57C9"/>
<path d="M582.192 562.71C597.014 559.75 611.721 555.437 626.681 554.221C643.091 552.89 657.534 559.399 666.474 574.021C670.594 579.412 669.075 589.071 670.341 598.294C684.311 596.872 701.043 595.495 711.906 611.142C714.507 614.905 715.312 619.906 716.923 624.334C715.865 624.954 714.806 625.573 713.724 626.193C711.63 624.724 709.213 623.577 707.51 621.765C695.749 609.169 684.15 605.131 668.407 612.84C653.332 620.228 639.684 630.667 625.714 640.211C609.396 651.361 592.066 657.923 571.996 653.77C569.902 653.334 568.015 651.797 564.908 650.168C567.071 648.493 569.373 646.772 569.373 646.772C569.373 646.772 571.559 645.855 574.16 644.845C559.016 623.302 576.77 576.016 559.775 574.25C542.781 572.484 528.688 562.71 527.738 548.279C526.788 533.848 561.014 511.941 558.441 515.035C555.867 518.128 554.08 520.091 553.435 524.074C552.821 527.869 552.847 529.2 555.08 533.779C557.005 537.725 564.063 536.892 566.94 535.24C575.317 530.376 582.445 522.491 590.34 516.824C604.126 506.959 619.73 503.449 636.324 504.114C653.655 504.825 672.642 521.229 674.806 538.689C656.301 526.437 637.015 522.652 618.188 533.068C604.448 540.662 592.365 551.261 579.545 560.53C580.443 561.242 581.341 561.976 582.215 562.687L582.192 562.71ZM597.543 576.957C596.116 576.43 598.447 575.244 593.263 575.374C588.078 575.504 586.197 576.957 579.914 591.182C575.357 607.54 574.16 623.821 586.197 638.972C588.494 641.863 592.756 643.928 594.712 643.079C606.197 640.211 611.23 636.907 622.975 628.395C598.51 616.901 592.664 599.441 597.543 576.957ZM620.95 571.245C614.69 570.235 608.936 574.612 606.197 582.55C602.377 593.655 604.954 606.049 615.081 611.578C621.663 615.18 632.918 615.524 639.707 612.312C648.982 607.907 654.989 598.294 652.987 586.387C648.775 594.692 648.085 606.645 635.15 605.406C629.143 604.833 620.936 601.262 618.625 596.826C612.237 584.564 618.625 574.25 620.95 571.222V571.245Z" fill="#210400"/>
<path d="M421.502 626.5C429.502 632.318 437.668 630.333 441.502 630.5L441.466 630.533C439.448 632.383 434.957 636.5 427.501 636.5C422.758 636.5 415.001 633.5 413.001 626.5C410.603 618.104 414.002 610 414.002 612C414.002 614 416.002 622.5 421.502 626.5Z" fill="white" stroke="white"/>
<path d="M429.034 551.346C439.114 555.372 448.694 562.385 453.192 569.465C457.691 576.544 457.473 586.485 455.791 583.173C454.11 579.861 439.932 571.176 428.013 573.934C416.095 576.692 400.78 573.636 399.362 563.849C397.944 554.061 412.864 544.887 429.034 551.346Z" fill="#FBC01E"/>
<path d="M423.5 585.5C423.5 585.5 416 588.5 411.5 596C409.501 593 408.25 584.5 409.5 585.5C412.001 587.5 423.5 585.5 423.5 585.5Z" fill="white" stroke="white"/>
</svg>
