<?xml version="1.0" standalone="no"?>
<!DOCTYPE svg PUBLIC "-//W3C//DTD SVG 20010904//EN"
 "http://www.w3.org/TR/2001/REC-SVG-20010904/DTD/svg10.dtd">
<svg version="1.0" xmlns="http://www.w3.org/2000/svg"
 width="150px" height="132px" viewBox="0 0 625.000000 550.000000"
 preserveAspectRatio="xMidYMid meet">

<g transform="translate(0.000000,550.000000) scale(0.100000,-0.100000)"
fill="#000000" stroke="none">
<path d="M1775 3905 c-421 -66 -763 -302 -930 -640 -78 -159 -96 -230 -102
-405 -2 -80 0 -165 5 -190 l10 -45 1 69 c3 167 83 334 221 458 281 254 728
276 1044 51 27 -19 65 -41 85 -48 122 -43 227 -128 274 -221 13 -27 64 -204
112 -394 55 -220 96 -363 113 -395 56 -103 167 -187 293 -220 122 -33 349 -6
341 41 -2 10 -100 392 -217 848 -242 937 -204 835 -345 919 -260 155 -604 220
-905 172z"/>
<path d="M3134 3590 c-34 -5 -77 -15 -97 -23 -34 -15 -35 -17 -27 -49 5 -18
104 -400 219 -848 181 -699 214 -817 233 -832 102 -76 276 -161 420 -202 688
-198 1426 167 1599 789 25 91 37 327 21 405 l-10 45 -1 -62 c-1 -89 -18 -157
-60 -248 -107 -229 -336 -381 -627 -417 -191 -23 -409 33 -568 146 -34 24 -85
51 -114 60 -110 37 -225 139 -266 236 -8 19 -53 188 -101 374 -48 187 -98 362
-112 389 -84 167 -296 265 -509 237z"/>
</g>
</svg>
