<?xml version="1.0" encoding="utf-8"?>
<!-- Generator: Adobe Illustrator 27.9.0, SVG Export Plug-In . SVG Version: 6.00 Build 0)  -->
<svg version="1.1" id="Layer_1" xmlns="http://www.w3.org/2000/svg" xmlns:xlink="http://www.w3.org/1999/xlink" x="0px" y="0px"
	 viewBox="0 0 2000 2000" style="enable-background:new 0 0 2000 2000;" xml:space="preserve">
<style type="text/css">
	.st0{fill:#B9CDE6;}
	.st1{fill:#C80037;}
	.st2{fill:#0F1E3C;}
	.st3{fill:#326EDC;}
	.st4{fill:#E14650;}
	.st5{fill:#F5F0EB;}
	.st6{fill:none;stroke:#0F1E3C;stroke-width:1.4034;stroke-linecap:round;stroke-linejoin:round;stroke-miterlimit:10;}
	.st7{fill:#0F1E3C;stroke:#0F1E3C;stroke-width:0.4641;}
	.st8{opacity:0;}
	.st9{clip-path:url(#Path_473_00000058555073594849478090000010574151231239062676_);}
	.st10{fill:#0F1E3C;stroke:#FFFFFF;stroke-width:18;stroke-miterlimit:10;}
	.st11{fill:#FFFFFF;}
	.st12{clip-path:url(#Path_473_00000083076270306391615630000013994823383187992971_);}
	.st13{fill-rule:evenodd;clip-rule:evenodd;fill:#6CDD6C;}
	.st14{fill-rule:evenodd;clip-rule:evenodd;fill:#8EDD8E;}
</style>
<rect x="0" y="0" class="st2" width="2000" height="2000"/>
<circle class="st2" cx="1000" cy="1000" r="1000"/>
<g>
	<g>
		<g>
			<circle class="st1" cx="960.1" cy="707.4" r="355.5"/>
		</g>
		<g>
			<g>
				<path class="st2" d="M975,627c-3.6-0.8-5.6-4-5.3-7.4c0.3-3.4,3-6.2,6.4-6.5c17.7-1.5,34.3-11.1,44.5-25.7
					c1.9-2.7,5.3-3.7,8.3-2.6c3,1.2,4.9,4.2,4.5,7.5C1032,604.6,1010.7,633.9,975,627z"/>
			</g>
			<g>
				<path class="st2" d="M970.7,693.2c-1.8,0-3.6-0.7-5.1-2c-1.1-1-6.8-6.4-9.2-11.7c-1.1-2.4-0.8-5.3,0.7-7.4
					c1.5-2.2,4.1-3.4,6.7-3.2c78.1,5.9,159.3-17,222.7-62.8c3.4-2.4,8.1-1.7,10.5,1.7c2.4,3.4,1.7,8.1-1.7,10.5
					c-62.1,44.9-140.5,68.6-217.2,66.5c0.3,2.1-0.4,4.3-1.9,6C974.8,692.4,972.8,693.2,970.7,693.2z"/>
			</g>
			<g>
				<path class="st2" d="M1102.1,550.5c-4.1-0.5-6.3-3.7-6.3-7.4c0-3.7,2.6-6.8,6.2-7.5c21.2-3.9,27.5-9.9,34.3-22.9
					c1.7-3.2,5.3-4.8,8.8-3.8c3.4,1,5.7,4.2,5.5,7.8C1149.6,528.3,1135.6,554.2,1102.1,550.5z"/>
			</g>
		</g>
	</g>
	<g>
		<g>
			<circle class="st3" cx="1308.2" cy="1074.2" r="355.5"/>
		</g>
		<g>
			<path class="st2" d="M1543.3,1199.8c-3.8-1.7-8.3,0.1-9.9,3.9c-16.2,36.9-54.1,64.4-94.2,68.5c-40.2,4-82.7-15.4-105.9-48.3
				c-2.4-3.4-7.1-4.2-10.5-1.8c-3.4,2.4-4.2,7.1-1.8,10.5c24.3,34.4,65.4,55.3,107.3,55.3c4.2,0,8.3-0.2,12.5-0.6
				c46.1-4.6,87.9-35,106.5-77.4C1548.9,1206,1547.1,1201.5,1543.3,1199.8z"/>
			<path class="st2" d="M1514.9,1096.4l0.2,0.1c2,1.2,4.3,1.7,6.7,1.6l0.8,0l0.4,0.6c0.2,0.3,0.4,0.5,0.6,0.7c1.2,1.3,3,2,4.9,2
				c0.8,0,1.5-0.1,2.1-0.4c4.4-1.6,8.4-8.7,8.7-15.3c0.2-5.9-2.8-11.9-7.9-15.6c-4.7-3.4-10.5-4.3-15.5-2.5
				c-5.9,2.2-9.8,8.4-9.6,15.4C1506.6,1089.3,1509.8,1094.3,1514.9,1096.4z"/>
			<path class="st2" d="M1355.1,1090.7c-6,1.3-10.7,5.3-12.7,10.6c-0.2,0.6-0.3,1.1-0.4,1.7l0,0.2l-0.1,0.2
				c-0.2,0.6-0.4,1.1-0.5,1.7c-0.6,5.5,1.8,11.1,6.5,15l0.3,0.3c4,5.7,8.2,7.8,12.6,6.3c1.7-0.6,3-1.6,4.1-3.2l0.2-0.3l0.4-0.2
				c4.8-2.1,8.3-6.5,9.6-12.1c1.4-6-0.1-12-4.1-16c-3.1-3.1-7.3-4.8-11.8-4.8C1357.8,1090.2,1356.5,1090.4,1355.1,1090.7z"/>
			<path class="st2" d="M1539.5,1035.8c-1.6-0.5-3.3-0.7-4.8-0.7c-2.9,0-5.6,0.8-8,2.5c-1.5,1.1-2.4,2.7-2.6,4.6
				c-0.1,1.8,0.6,3.6,1.9,4.9l33.7,31.9c2,1.9,5.3,2.2,7.6,0.7c2.4-1.6,3.4-4.6,2.4-7.3C1564.1,1057.5,1552.3,1039.8,1539.5,1035.8z
				"/>
			<path class="st2" d="M1355.9,1051.9c-0.4,0-0.9,0-1.3,0.1c-18.6,1.7-52.6,36.9-60.8,52.8c-1.3,2.6-0.6,5.8,1.6,7.6
				c2.2,1.8,5.6,1.7,7.8-0.1l58.3-49.2c2.4-2,2.9-5.5,1.2-8.1C1361.1,1052.9,1358.8,1051.9,1355.9,1051.9z"/>
		</g>
	</g>
	<g>
		<g>
			<circle class="st4" cx="775.1" cy="1229" r="355.5"/>
		</g>
		<g>
			<g>
				<path class="st2" d="M828.4,1369.1c-3,0-5.8-1.8-7-4.7l-0.8-2.1c-2.6-2.4-2.8-6.6-2.9-8.3c-0.1-1.9,0.5-3.6,1.6-5
					c0.2-1.2,0.4-2.8,0.6-4.7c0.5-3.9,3.8-6.6,7.7-6.6c3.9,0.1,7.1,3.2,7.3,7.1l1,16.3c0.2,3.7-2.3,7-5.9,7.8
					C829.5,1369,829,1369.1,828.4,1369.1z"/>
			</g>
			<g>
				<path class="st2" d="M723.4,1398.7c-2.6,0-4.9-1.3-6.3-3.4c-0.4-0.2-0.8-0.4-1.1-0.7c-2.3-1.7-3.4-4.5-2.9-7.4l2-11.3
					c0.2-1.4,0.4-2.9,0.8-4.3c0.9-4,4.8-6.5,8.8-5.7c4,0.8,6.7,4.7,6,8.7l-0.6,3.6c-0.3,2.9-0.3,5.9,0.2,8.8
					c0.4,1.3,0.6,2.5,0.7,3.3c0.5,4-2.2,7.6-6.1,8.3C724.4,1398.7,723.9,1398.7,723.4,1398.7z"/>
			</g>
			<g>
				<path class="st2" d="M605.9,1360.8c-0.3,0-0.6,0-0.9-0.1c-3.9-0.5-6.8-3.8-6.7-7.7l0.4-16.4c0.1-3.7,2.9-6.8,6.5-7.3
					c3.7-0.5,7.2,1.7,8.2,5.3l0.7,2.2c2.4,2.6,2.2,6.8,2.1,8.5c-0.1,1.9-0.8,3.6-2,4.8c-0.3,1.2-0.6,2.8-1,4.6
					C612.5,1358.3,609.4,1360.8,605.9,1360.8z"/>
			</g>
			<g>
				<path class="st2" d="M707.1,1501.6c-11.2,0-20.4-2.2-27.8-6.8c-9.7-5.5-18.6-19.7-16.3-33.9c1.2-7.5,6.8-20.9,30.4-25.6
					c17-3.2,34.2-3.2,51.2-0.1c23.1,4,30.3,19.2,32.6,27.9c2.8,10.8,0.8,22.8-4.6,27.8c-7.6,8.1-18.7,8-27.6,7.9l-3.1,0
					c-5.4,0-10.7,0.7-16.4,1.3c-4.2,0.5-8.5,1-12.9,1.3C710.6,1501.5,708.8,1501.6,707.1,1501.6z M719.2,1448
					c-7.7,0-15.3,0.7-22.9,2.1c-7.6,1.5-17.1,5.1-18.4,13.2c-1.1,7,3.9,15.5,9.1,18.5c6.1,3.7,14.2,5.2,24.7,4.6
					c4-0.2,7.9-0.7,12-1.2c5.8-0.7,11.9-1.4,18.1-1.4l3.3,0c6.6,0.1,13.5,0.1,16.6-3.3c0.1-0.2,0.3-0.3,0.4-0.4
					c1.1-1.9,2.4-9.2-0.7-16.4c-3.1-7.3-9.7-11.9-19.5-13.6C734.3,1448.7,726.7,1448,719.2,1448z M762,1480.2L762,1480.2L762,1480.2
					z M762.5,1479.6C762.5,1479.6,762.5,1479.6,762.5,1479.6C762.5,1479.6,762.5,1479.6,762.5,1479.6z"/>
			</g>
		</g>
	</g>
</g>
</svg>
