<?xml version="1.0" standalone="no"?>
<!DOCTYPE svg PUBLIC "-//W3C//DTD SVG 20010904//EN"
 "http://www.w3.org/TR/2001/REC-SVG-20010904/DTD/svg10.dtd">
<svg version="1.0" xmlns="http://www.w3.org/2000/svg"
 width="498.000000pt" height="364.000000pt" viewBox="0 0 498.000000 364.000000"
 preserveAspectRatio="xMidYMid meet">

<g transform="translate(0.000000,364.000000) scale(0.100000,-0.100000)"
fill="#6366f1" stroke="none">
<path d="M1157 2728 c-147 -359 -270 -662 -273 -674 -3 -11 10 -54 30 -101 20
-45 36 -86 36 -92 0 -11 -108 -248 -504 -1110 -98 -211 -175 -386 -172 -388 5
-6 582 34 622 42 12 3 65 56 119 121 81 97 95 118 84 129 -8 7 -69 49 -136 94
-68 45 -123 88 -123 96 0 22 59 183 100 270 80 175 249 445 427 683 52 70 97
130 99 134 3 4 -36 57 -87 118 l-91 111 112 322 c62 177 114 326 117 330 3 5
19 -8 36 -30 18 -21 84 -93 148 -159 142 -149 182 -218 181 -316 -1 -35 -2
-72 -4 -82 -2 -15 23 -36 112 -92 63 -40 121 -83 127 -96 7 -12 94 -347 193
-743 99 -396 184 -728 188 -739 6 -13 68 217 192 710 101 401 187 743 192 759
7 24 31 45 132 108 l124 79 -10 30 c-16 44 -3 128 28 194 20 41 61 93 139 174
61 63 128 137 150 163 30 38 40 45 47 33 7 -12 85 -234 198 -562 l28 -82 -89
-110 c-49 -60 -89 -112 -89 -115 0 -3 42 -61 93 -129 174 -232 337 -491 428
-682 42 -88 109 -264 109 -286 0 -4 -63 -49 -140 -100 -140 -93 -140 -93 -122
-114 16 -18 170 -204 179 -215 3 -5 564 -50 621 -51 l32 0 -14 33 c-8 17 -148
322 -311 677 -164 355 -312 678 -331 718 l-33 72 40 90 40 91 -271 662 c-150
364 -275 666 -278 671 -3 5 -15 -2 -26 -16 -12 -14 -181 -211 -376 -437 l-354
-411 -322 0 -322 0 -334 387 c-183 213 -351 408 -373 434 -22 26 -42 48 -45
48 -3 1 -126 -293 -273 -651z"/>
<path d="M1544 968 c18 -51 43 -123 55 -160 22 -65 24 -68 64 -78 168 -43 329
-117 409 -189 46 -41 51 -43 45 -21 -3 14 -23 99 -43 190 -20 91 -42 170 -48
176 -9 10 -489 174 -508 174 -4 0 8 -42 26 -92z"/>
<path d="M3219 974 l-245 -85 -42 -182 c-23 -100 -42 -188 -42 -195 0 -7 19 5
42 28 69 66 272 159 428 195 22 5 31 24 78 159 28 84 52 156 52 159 0 13 -26
5 -271 -79z"/>
</g>
</svg>
