<?xml version="1.0" encoding="utf-8"?>
<svg viewBox="0 0 500 500" xmlns="http://www.w3.org/2000/svg">
  <g>
    <title>Layer 1</title>
    <rect x="0.652" y="-0.157" width="500" height="500" fill-rule=" nonzero" id="svg_1" style="fill: rgb(255, 255, 255);"/>
    <g transform="matrix(0.0817213 0 0 -0.0817213 4.64125 370.58)" fill="#000000" id="svg_2">
      <path d="m1648.70544,2352.6077c-147,-359 -270,-662 -273,-674c-3,-11 10,-54 30,-101c20,-45 36,-86 36,-92c0,-11 -108,-248 -504,-1110c-98,-211 -175,-386 -172,-388c5,-6 582,34 622,42c12,3 65,56 119,121c81,97 95,118 84,129c-8,7 -69,49 -136,94c-68,45 -123,88 -123,96c0,22 59,183 100,270c80,175 249,445 427,683c52,70 97,130 99,134c3,4 -36,57 -87,118l-91,111l112,322c62,177 114,326 117,330c3,5 19,-8 36,-30c18,-21 84,-93 148,-159c142,-149 182,-218 181,-316c-1,-35 -2,-72 -4,-82c-2,-15 23,-36 112,-92c63,-40 121,-83 127,-96c7,-12 94,-347 193,-743c99,-396 184,-728 188,-739c6,-13 68,217 192,710c101,401 187,743 192,759c7,24 31,45 132,108l124,79l-10,30c-16,44 -3,128 28,194c20,41 61,93 139,174c61,63 128,137 150,163c30,38 40,45 47,33c7,-12 85,-234 198,-562l28,-82l-89,-110c-49,-60 -89,-112 -89,-115c0,-3 42,-61 93,-129c174,-232 337,-491 428,-682c42,-88 109,-264 109,-286c0,-4 -63,-49 -140,-100c-140,-93 -140,-93 -122,-114c16,-18 170,-204 179,-215c3,-5 564,-50 621,-51l32,0l-14,33c-8,17 -148,322 -311,677c-164,355 -312,678 -331,718l-33,72l40,90l40,91l-271,662c-150,364 -275,666 -278,671c-3,5 -15,-2 -26,-16c-12,-14 -181,-211 -376,-437l-354,-411l-322,0l-322,0l-334,387c-183,213 -351,408 -373,434c-22,26 -42,48 -45,48c-3,1 -126,-293 -273,-651z" id="svg_3"/>
      <path d="m2035.70544,592.6077c18,-51 43,-123 55,-160c22,-65 24,-68 64,-78c168,-43 329,-117 409,-189c46,-41 51,-43 45,-21c-3,14 -23,99 -43,190c-20,91 -42,170 -48,176c-9,10 -489,174 -508,174c-4,0 8,-42 26,-92z" id="svg_4"/>
      <path d="m3710.70544,598.6077l-245,-85l-42,-182c-23,-100 -42,-188 -42,-195c0,-7 19,5 42,28c69,66 272,159 428,195c22,5 31,24 78,159c28,84 52,156 52,159c0,13 -26,5 -271,-79z" id="svg_5"/>
    </g>
  </g>
</svg>
