<?xml version="1.0" standalone="no"?>
<!DOCTYPE svg PUBLIC "-//W3C//DTD SVG 20010904//EN"
 "http://www.w3.org/TR/2001/REC-SVG-20010904/DTD/svg10.dtd">
<svg version="1.0" xmlns="http://www.w3.org/2000/svg"
 width="320.000000pt" height="180.000000pt" viewBox="0 0 320.000000 180.000000"
 preserveAspectRatio="xMidYMid meet">

<g transform="translate(0.000000,180.000000) scale(0.100000,-0.100000)"
fill="#000000" stroke="none">
<path d="M156 1785 c-4 -11 3 -19 21 -26 15 -6 31 -16 36 -22 6 -8 7 -4 4 11
-7 30 1 28 13 -4 6 -14 15 -22 20 -19 6 4 30 -9 54 -29 l44 -36 16 25 c22 33
21 38 -14 63 -27 20 -44 52 -20 37 6 -3 10 -1 10 4 0 7 -29 11 -76 11 -42 0
-73 -4 -70 -9 6 -10 -24 -25 -32 -16 -3 3 0 5 6 5 7 0 12 5 12 10 0 16 -17 12
-24 -5z"/>
<path d="M404 1774 l0 -23 28 20 c15 11 28 21 28 23 0 1 -13 2 -28 2 -22 0
-28 -4 -28 -22z"/>
<path d="M583 1780 c7 -26 -32 -78 -44 -58 -6 9 -9 7 -9 -9 0 -25 16 -40 23
-21 8 24 35 -10 29 -37 -2 -14 0 -25 6 -25 11 0 10 33 -3 63 -5 12 -2 24 9 35
15 15 16 14 17 -8 1 -14 1 -28 1 -31 -1 -3 6 -6 14 -6 10 0 14 7 11 19 -5 18
7 25 17 10 3 -5 20 -7 38 -5 l33 4 -24 -21 -25 -21 27 6 c22 6 26 4 21 -9 -4
-10 -1 -16 7 -17 8 0 5 -4 -6 -9 -19 -8 -19 -9 3 -9 27 -1 27 -6 2 -38 -28
-35 -25 -50 3 -19 13 14 39 55 57 91 18 36 35 63 37 61 2 -2 -12 -35 -31 -74
-34 -67 -34 -70 -15 -75 18 -5 25 5 51 64 17 38 33 68 35 66 3 -4 -39 -107
-57 -139 -7 -12 -7 -18 0 -18 7 0 7 -6 1 -18 -5 -10 -11 -43 -14 -73 -3 -50
-2 -55 17 -56 12 -1 15 1 8 4 -10 4 -9 9 4 24 13 15 15 22 6 31 -18 18 -15 49
9 87 28 47 34 33 9 -24 -11 -26 -19 -49 -18 -51 2 -1 14 6 27 17 13 10 18 19
12 19 -6 0 -11 7 -11 16 0 8 5 12 10 9 6 -3 13 1 16 9 7 18 25 12 20 -7 -1 -7
-1 -9 1 -4 3 4 13 7 24 7 12 0 16 -5 13 -15 -8 -20 1 -19 21 1 20 20 30 12 16
-13 -8 -17 -7 -19 12 -17 12 1 30 3 39 3 12 1 15 6 11 19 -7 16 -6 16 11 0 26
-27 41 -22 21 8 -12 18 -13 29 -6 38 7 9 7 16 -2 26 -10 10 -9 12 5 7 22 -8
37 31 17 44 -11 6 -10 9 4 15 12 4 16 13 12 25 -4 11 -2 19 5 19 7 0 9 7 6 16
-5 14 -1 15 26 9 68 -15 93 -12 96 13 2 12 -1 22 -7 22 -6 0 -8 -7 -5 -15 9
-23 -25 -8 -62 27 -30 28 -34 29 -115 26 -76 -3 -85 -5 -94 -25 -5 -13 -15
-23 -22 -23 -6 0 -19 -7 -28 -16 -15 -15 -17 -15 -31 5 -11 15 -22 20 -35 16
-14 -5 -20 -2 -18 7 5 37 1 38 -122 38 -116 0 -121 -1 -116 -20z m228 -343
c-10 -9 -11 -8 -5 6 3 10 9 15 12 12 3 -3 0 -11 -7 -18z"/>
<path d="M928 1793 c7 -3 16 -2 19 1 4 3 -2 6 -13 5 -11 0 -14 -3 -6 -6z"/>
<path d="M1290 1775 c5 -14 8 -25 7 -26 -1 0 -10 -2 -20 -4 -23 -4 -23 -4 -31
-32 -7 -22 -5 -23 60 -23 85 0 80 -9 -6 -11 -55 -2 -130 -16 -93 -18 12 -1 10
-31 -2 -51 -3 -6 4 -10 17 -10 31 0 79 -60 71 -89 -3 -14 -1 -21 8 -21 11 0
11 -3 -1 -11 -13 -9 -12 -10 2 -5 10 3 31 -2 48 -12 32 -18 42 -39 13 -28 -9
4 4 -11 28 -33 46 -42 75 -56 43 -20 -15 16 -16 21 -4 19 33 -5 38 2 44 69 4
38 12 74 19 79 17 14 57 -4 57 -25 0 -15 2 -16 10 -3 8 13 10 12 10 -3 0 -10
4 -16 9 -13 13 8 29 -16 27 -41 -3 -33 -16 -41 -16 -10 0 14 -4 28 -9 31 -4 3
-8 -7 -9 -22 0 -80 -3 -91 -19 -95 -12 -3 -9 -5 8 -6 15 0 44 -7 66 -15 40
-14 73 -7 73 16 0 6 -6 6 -15 -2 -13 -11 -18 -10 -29 5 -8 11 -18 15 -26 10
-9 -6 -11 -4 -5 5 6 10 3 12 -11 7 -18 -7 -18 -6 -2 6 10 8 15 16 12 19 -3 3
-7 18 -10 34 -7 38 2 27 19 -22 14 -38 14 -38 26 -15 8 15 9 21 2 17 -12 -8
-13 9 -2 38 5 14 1 26 -14 40 -11 12 -16 18 -11 14 16 -12 28 -9 20 4 -9 14
-7 65 3 81 3 5 18 -21 32 -59 24 -61 25 -70 11 -81 -13 -10 -13 -14 -1 -25 8
-7 11 -8 8 -2 -4 7 -1 14 7 17 11 4 76 -54 76 -68 0 -2 -17 -24 -39 -49 -36
-42 -39 -43 -57 -28 -13 12 -12 9 3 -8 11 -14 24 -35 28 -48 6 -20 8 -21 22
-7 8 9 16 26 17 40 1 17 4 21 14 13 18 -16 15 -32 -13 -58 -33 -31 -32 -49 1
-42 15 3 21 8 15 12 -8 4 -5 15 9 33 28 35 39 34 52 -4 8 -23 15 -29 29 -26
24 6 24 -5 2 -31 -11 -12 -35 -23 -61 -26 -45 -6 -87 -28 -75 -39 10 -11 43
-8 43 3 0 6 4 10 9 10 10 0 -4 -72 -20 -101 -7 -13 -7 -25 0 -37 9 -15 10 -14
11 7 0 25 15 79 32 116 6 15 7 13 3 -10 l-5 -30 15 25 c14 24 14 24 15 3 0
-28 17 -39 23 -16 3 14 8 10 21 -17 16 -33 17 -33 11 -6 -6 26 -4 28 9 17 15
-12 20 -8 17 12 -1 5 3 6 9 2 6 -3 8 -10 5 -15 -3 -4 2 -13 10 -20 10 -9 15
-9 15 -1 0 6 -4 11 -8 11 -5 0 -7 13 -4 30 3 22 0 30 -10 30 -21 0 -38 39 -34
80 2 26 11 40 34 56 l31 22 -37 6 c-57 9 -97 7 -110 -6 -16 -16 -28 -2 -36 42
-5 28 -4 31 4 15 9 -17 9 -15 5 9 -6 26 -4 28 9 17 12 -10 13 -18 5 -33 -6
-10 -8 -24 -6 -31 3 -7 8 0 12 16 4 15 10 27 14 27 3 0 33 -11 66 -25 72 -30
151 -34 141 -8 -4 9 -1 20 6 25 19 12 28 10 22 -6 -3 -8 -1 -17 5 -21 6 -3 11
-11 11 -16 0 -6 -5 -7 -12 -3 -7 5 -8 3 -3 -6 4 -7 2 -16 -6 -21 -7 -4 -10
-11 -6 -15 9 -9 37 15 37 32 0 19 19 17 27 -2 4 -10 0 -22 -10 -29 -14 -10
-12 -13 17 -23 18 -7 39 -12 47 -12 20 -1 88 -93 95 -129 4 -17 11 -31 16 -31
5 0 6 6 2 13 -4 6 -4 9 1 5 4 -4 15 -2 24 4 13 10 14 10 4 -2 -15 -17 -17 -34
-3 -25 6 3 10 1 10 -5 0 -7 6 -10 13 -7 6 2 11 9 10 15 -2 7 5 9 15 6 9 -4 2
3 -15 15 -18 11 -33 26 -33 33 -1 8 -6 6 -14 -5 -12 -16 -14 -16 -20 -2 -4 10
-2 14 5 9 7 -4 10 -1 7 7 -3 8 -10 13 -16 12 -6 -2 -9 3 -6 11 3 8 0 17 -6 21
-9 6 -9 10 1 16 10 6 10 13 1 34 -7 14 -12 49 -11 78 l0 52 22 -55 22 -55 5
85 c5 82 6 84 20 59 23 -41 100 -123 100 -108 0 8 -7 38 -14 67 -16 59 -13 68
7 20 8 -18 21 -39 30 -47 16 -12 16 -11 1 24 -23 55 -14 74 15 34 13 -18 24
-38 24 -45 0 -7 4 -11 8 -9 4 3 16 -10 28 -28 17 -26 21 -28 21 -12 0 17 3 16
19 -8 14 -22 20 -25 29 -15 12 16 12 88 -1 88 -5 0 -7 -16 -4 -35 3 -19 2 -35
-4 -35 -10 0 -13 73 -2 83 10 11 43 -24 43 -45 0 -10 5 -18 11 -18 7 0 9 11 6
30 -5 23 -3 28 8 23 19 -7 19 6 0 31 -20 27 -19 36 6 36 15 0 19 5 15 15 -8
23 25 19 90 -10 37 -16 52 -20 44 -10 -11 13 -8 15 21 15 68 0 138 -51 176
-130 11 -21 12 -22 7 -3 -8 35 22 18 37 -20 14 -37 47 -114 60 -139 5 -10 13
-26 17 -35 5 -10 15 -31 23 -48 8 -17 24 -31 36 -33 21 -3 21 -2 22 287 1 248
-1 290 -13 285 -24 -9 -28 14 -5 27 17 9 19 13 8 20 -10 6 -11 9 -1 9 25 0 12
50 -23 84 -37 37 -36 39 8 50 15 3 27 11 27 16 0 17 -41 11 -67 -10 -14 -11
-39 -20 -54 -20 -22 0 -29 5 -29 20 0 11 -5 20 -11 20 -5 0 -7 -6 -3 -12 5 -9
2 -9 -9 1 -13 10 -20 11 -31 2 -18 -15 -89 -17 -94 -3 -2 7 -12 12 -23 12 -18
0 -18 -2 -5 -27 12 -25 56 -157 56 -170 0 -3 -12 3 -27 12 l-28 18 20 -24 c11
-13 26 -28 33 -32 6 -4 12 -17 12 -27 0 -15 -7 -20 -26 -20 -18 0 -24 -4 -21
-13 3 -8 -9 -21 -29 -32 -19 -10 -34 -22 -34 -26 0 -5 -9 -13 -20 -19 -14 -7
-20 -7 -20 0 0 5 7 10 15 10 16 0 21 15 8 23 -5 2 -2 2 6 0 11 -3 13 10 8 67
-3 41 -2 70 4 70 5 0 8 3 8 8 -4 23 3 34 17 28 14 -5 15 -4 4 9 -7 8 -13 44
-14 80 -1 48 -5 65 -15 65 -11 0 -13 -12 -8 -60 7 -61 1 -94 -14 -84 -5 3 -6
-1 -3 -9 3 -8 -5 -27 -18 -43 -13 -16 -37 -49 -53 -73 -16 -24 -31 -38 -33
-33 -2 6 -10 8 -18 5 -8 -3 -14 0 -14 6 0 6 -6 8 -13 5 -7 -2 -18 7 -25 23 -9
23 -10 23 -5 4 l5 -24 -45 26 c-25 15 -53 27 -62 27 -12 0 -15 5 -11 16 5 13
1 15 -20 10 -20 -5 -33 -1 -50 15 l-23 21 6 -21 c4 -17 2 -20 -11 -15 -9 3
-16 8 -16 11 0 6 95 120 119 143 9 8 22 23 30 33 25 31 -11 20 -54 -18 -46
-40 -61 -43 -70 -14 -8 23 11 42 33 34 6 -2 12 0 12 5 0 17 -42 11 -57 -7 -14
-17 -14 -17 -9 0 5 14 -1 17 -38 17 -26 0 -48 -6 -56 -15 -7 -8 -17 -12 -22
-9 -20 13 -168 -176 -168 -214 0 -21 -21 -24 -36 -6 -9 11 -13 14 -10 7 4 -6
2 -15 -4 -18 -8 -5 -7 -11 1 -21 9 -11 9 -14 -1 -14 -9 0 -10 -3 -1 -13 8 -11
6 -20 -9 -37 -18 -21 -20 -21 -20 -4 0 16 -2 17 -10 4 -5 -8 -7 -24 -4 -35 4
-16 3 -17 -5 -5 -11 16 -6 51 16 125 22 74 69 154 121 208 l46 47 -144 0 -145
0 -24 -58 c-27 -66 -38 -180 -24 -258 9 -47 8 -51 -9 -46 -14 3 -16 8 -7 18
18 22 -7 104 -32 104 -5 0 -9 -6 -9 -14 0 -8 -4 -17 -9 -20 -5 -4 -7 2 -4 12
6 25 -25 52 -37 32 -25 -40 -20 147 5 213 7 15 -3 17 -104 17 -71 0 -111 -4
-111 -11 0 -5 -4 -7 -10 -4 -5 3 -10 -1 -10 -10 0 -8 7 -18 16 -22 13 -5 13
-7 2 -14 -10 -7 -11 -12 0 -29 7 -11 11 -40 10 -64 -1 -43 -2 -44 -37 -49 -20
-2 -37 -3 -39 -2 -2 2 -3 48 -4 104 l0 101 -99 0 -99 0 10 -25z m1660 -20 c17
-9 30 -12 30 -9 0 4 3 5 6 2 3 -4 -3 -21 -12 -40 -17 -30 -19 -31 -22 -11 -2
14 -8 20 -18 16 -17 -6 -18 8 -1 26 10 11 9 13 -5 8 -12 -4 -18 -1 -18 8 0 19
4 19 40 0z m65 5 c7 -12 -2 -12 -30 0 -19 8 -19 9 2 9 12 1 25 -3 28 -9z
m-745 -4 c0 -2 -8 -10 -17 -17 -16 -13 -17 -12 -4 4 13 16 21 21 21 13z m22
-78 c-29 -28 -55 -61 -58 -74 -4 -13 -10 -24 -14 -24 -5 0 -13 -12 -18 -27 -6
-16 -11 -21 -11 -12 -1 18 71 140 107 181 18 20 29 25 36 18 7 -7 -5 -26 -42
-62z m83 24 c-11 -9 -14 -10 -7 -2 6 7 12 19 12 25 -1 5 -25 -17 -55 -50 -30
-33 -55 -55 -55 -49 0 5 23 34 51 63 37 37 55 49 63 41 7 -7 4 -15 -9 -28z
m641 16 c5 -7 3 -8 -5 -3 -9 5 -12 0 -10 -16 4 -26 -7 -49 -21 -49 -6 0 -6 9
-1 23 5 12 12 30 15 40 6 20 12 21 22 5z m-1611 -28 c3 -5 -1 -10 -10 -10 -9
0 -13 5 -10 10 3 6 8 10 10 10 2 0 7 -4 10 -10z m825 -5 c-7 -9 -10 -18 -7
-22 4 -3 -8 -32 -25 -64 -18 -32 -33 -57 -36 -55 -2 2 4 18 13 35 23 46 10 38
-19 -11 -34 -57 -33 -36 2 27 15 28 32 50 39 50 6 0 15 4 20 9 5 5 3 6 -4 2
-18 -10 -16 4 4 26 20 22 31 24 13 3z m-577 -2 c-7 -2 -19 -2 -25 0 -7 3 -2 5
12 5 14 0 19 -2 13 -5z m736 -25 c-9 -16 -14 -19 -17 -9 -4 11 -6 11 -13 0 -8
-12 -11 -12 -18 1 -14 20 -4 30 30 30 28 0 29 -2 18 -22z m706 4 c3 -8 3 -18
0 -22 -3 -5 -1 -11 5 -15 5 -3 10 -18 10 -33 -1 -25 -2 -24 -20 13 -15 32 -20
36 -25 23 -10 -25 -29 -23 -22 2 3 11 1 18 -4 14 -11 -6 -11 -2 -3 20 7 19 51
17 59 -2z m53 0 c-21 -4 -23 -13 -6 -30 9 -9 9 -12 0 -12 -10 0 -32 30 -32 44
0 7 34 13 45 7 6 -3 2 -7 -7 -9z m-1701 -64 c-3 -8 -6 -5 -6 6 -1 11 2 17 5
13 3 -3 4 -12 1 -19z m853 12 c0 -5 -5 -10 -11 -10 -5 0 -7 5 -4 10 3 6 8 10
11 10 2 0 4 -4 4 -10z m693 -17 c-5 -13 -2 -15 13 -10 15 6 15 3 -5 -13 -30
-26 -41 -25 -41 3 0 27 7 37 26 37 8 0 11 -6 7 -17z m63 -40 c-2 -10 -11 -20
-20 -21 -15 -3 -16 -1 -6 17 13 26 29 28 26 4z m-43 -21 c-9 -25 -45 -62 -54
-56 -5 3 -9 18 -9 33 0 20 7 30 28 37 33 13 43 9 35 -14z m-1217 -66 c13 -4
24 -14 24 -23 0 -15 -1 -15 -18 0 -10 10 -24 17 -30 17 -7 0 -12 6 -12 14 0 7
-2 29 -5 47 -3 27 -2 25 7 -8 8 -31 17 -43 34 -47z m1293 15 c-2 -6 -10 2 -17
17 -11 25 -11 25 4 10 9 -9 15 -21 13 -27z m-1629 8 c0 -5 -4 -9 -10 -9 -5 0
-10 7 -10 16 0 8 5 12 10 9 6 -3 10 -10 10 -16z m1180 11 c0 -13 -11 -13 -30
0 -12 8 -11 10 8 10 12 0 22 -4 22 -10z m-990 -44 c0 -5 -7 -1 -15 10 -8 10
-14 24 -14 29 0 6 6 1 14 -9 8 -11 15 -24 15 -30z m1035 24 c-3 -5 -1 -10 6
-10 7 0 10 -3 6 -6 -9 -9 -28 6 -22 17 4 5 8 9 11 9 3 0 2 -4 -1 -10z m-39
-15 c13 -13 13 -15 1 -15 -8 0 -17 7 -21 15 -3 8 -3 15 0 15 3 0 12 -7 20 -15z
m92 -9 c-7 -8 -15 -12 -17 -11 -5 6 10 25 20 25 5 0 4 -6 -3 -14z m-1287 -49
c-8 -8 -11 -3 -11 19 1 25 2 27 11 11 8 -14 8 -22 0 -30z m1524 -3 c9 -15 12
-23 6 -20 -11 7 -35 46 -28 46 3 0 12 -12 22 -26z m-865 -35 c-7 -11 -14 -19
-16 -16 -7 7 7 37 17 37 6 0 5 -9 -1 -21z m20 -59 c0 -5 -4 -10 -10 -10 -5 0
-10 5 -10 10 0 6 5 10 10 10 6 0 10 -4 10 -10z m930 -4 c0 -8 -4 -17 -9 -20
-10 -7 -23 19 -14 28 11 11 23 6 23 -8z m-900 -56 c0 -5 -8 -10 -17 -10 -15 0
-16 2 -3 10 19 12 20 12 20 0z"/>
<path d="M1790 1790 c0 -6 8 -14 18 -17 9 -4 23 -14 30 -22 11 -14 14 -13 32
8 11 13 20 26 20 30 0 4 -22 8 -50 9 -29 1 -50 -2 -50 -8z"/>
<path d="M2230 1789 c0 -5 5 -7 10 -4 6 3 10 8 10 11 0 2 -4 4 -10 4 -5 0 -10
-5 -10 -11z"/>
<path d="M2290 1789 c0 -5 5 -7 10 -4 6 3 10 8 10 11 0 2 -4 4 -10 4 -5 0 -10
-5 -10 -11z"/>
<path d="M2676 1785 c4 -8 10 -15 15 -15 4 0 6 7 3 15 -4 8 -10 15 -15 15 -4
0 -6 -7 -3 -15z"/>
<path d="M1176 1778 c3 -5 10 -6 15 -3 13 9 11 12 -6 12 -8 0 -12 -4 -9 -9z"/>
<path d="M3070 1780 c-12 -7 -10 -9 7 -7 12 0 19 5 17 9 -6 10 -6 10 -24 -2z"/>
<path d="M556 1754 c-4 -9 -4 -19 -1 -22 2 -3 7 3 11 12 4 9 4 19 1 22 -2 3
-7 -3 -11 -12z"/>
<path d="M2661 1753 c7 -12 15 -20 18 -17 3 2 -3 12 -13 22 -17 16 -18 16 -5
-5z"/>
<path d="M2759 1759 c14 -5 28 -6 32 -2 4 4 -6 9 -24 10 -30 1 -31 1 -8 -8z"/>
<path d="M490 1750 c0 -5 7 -10 16 -10 8 0 12 5 9 10 -3 6 -10 10 -16 10 -5 0
-9 -4 -9 -10z"/>
<path d="M1770 1741 c0 -11 6 -22 13 -24 9 -4 9 -8 1 -14 -8 -5 -4 -14 13 -27
l25 -19 -7 24 c-7 21 -6 22 9 10 9 -7 16 -19 16 -27 0 -20 -19 -27 -35 -14
-24 20 -17 3 9 -24 l25 -24 5 29 c3 16 9 44 12 62 4 17 3 29 -1 25 -5 -5 -23
3 -41 17 -39 30 -44 31 -44 6z"/>
<path d="M2736 1735 c-3 -8 -1 -15 3 -15 5 0 11 7 15 15 3 8 1 15 -3 15 -5 0
-11 -7 -15 -15z"/>
<path d="M2162 1724 c-7 -8 -8 -14 -3 -14 10 0 25 19 20 25 -2 1 -10 -3 -17
-11z"/>
<path d="M2642 1661 c1 -56 2 -60 30 -72 33 -14 85 -1 81 19 -2 7 2 12 8 12 8
0 39 57 39 72 0 2 -20 2 -45 0 -27 -3 -56 2 -76 12 -18 9 -33 16 -35 16 -2 0
-2 -27 -2 -59z m78 -21 c3 -1 8 -2 12 -1 13 2 2 -43 -11 -47 -24 -8 -61 8 -61
27 0 25 26 34 60 21z"/>
<path d="M1198 1693 c6 -2 18 -2 25 0 6 3 1 5 -13 5 -14 0 -19 -2 -12 -5z"/>
<path d="M527 1649 c-4 -16 -3 -18 9 -8 7 6 11 15 8 20 -8 13 -11 11 -17 -12z"/>
<path d="M1128 1663 c7 -3 16 -2 19 1 4 3 -2 6 -13 5 -11 0 -14 -3 -6 -6z"/>
<path d="M660 1645 c-7 -9 -8 -15 -2 -15 5 0 12 7 16 15 3 8 4 15 2 15 -2 0
-9 -7 -16 -15z"/>
<path d="M2578 1635 c-19 -25 -23 -44 -10 -46 50 -9 53 -7 50 29 -4 43 -17 49
-40 17z"/>
<path d="M2110 1641 c0 -7 -5 -9 -12 -5 -7 5 -8 3 -3 -5 5 -9 10 -10 18 -2 6
6 8 14 4 18 -4 3 -7 1 -7 -6z"/>
<path d="M1183 1633 c-15 -5 -17 -23 -4 -23 5 0 11 7 15 15 3 8 4 15 3 14 -1
0 -8 -3 -14 -6z"/>
<path d="M1792 1605 c0 -16 2 -22 5 -12 2 9 2 23 0 30 -3 6 -5 -1 -5 -18z"/>
<path d="M0 1588 c0 -19 15 -44 52 -84 93 -99 219 -268 212 -284 -6 -15 -12
-38 -13 -53 -1 -5 -5 -5 -11 -2 -5 3 -7 0 -4 -8 5 -14 -76 -93 -128 -125 -43
-25 -56 -69 -57 -195 -1 -30 -5 -46 -11 -42 -6 4 -9 14 -8 23 2 9 -4 18 -13
20 -14 2 -17 -7 -17 -61 0 -59 2 -65 25 -76 23 -11 24 -14 18 -64 -4 -28 -14
-79 -22 -112 -20 -78 -28 -182 -15 -209 6 -12 13 -37 17 -57 8 -50 36 -83 89
-105 42 -17 44 -21 39 -49 -6 -27 -5 -29 10 -16 15 11 17 11 17 -2 0 -8 3 -17
8 -20 4 -2 2 -3 -4 -1 -11 2 -34 -36 -34 -55 0 -4 27 -9 61 -10 41 -1 59 1 54
8 -3 6 -15 11 -26 11 -10 0 -19 5 -19 10 0 17 39 11 59 -9 17 -17 40 -18 305
-20 157 -1 286 1 286 5 0 23 -44 193 -55 214 -11 21 -11 28 1 44 12 17 10 23
-17 53 -18 22 -28 41 -24 52 4 14 -4 20 -40 28 -48 11 -98 6 -89 -8 3 -5 -2
-6 -10 -3 -16 6 -116 -34 -116 -47 0 -5 4 -9 9 -9 18 0 21 -33 4 -46 -12 -9
-14 -13 -5 -14 7 0 10 -5 7 -10 -4 -6 -20 1 -41 16 -33 26 -57 28 -105 9 -11
-4 -19 4 -28 33 -21 61 -13 74 60 102 37 14 73 31 81 38 9 7 22 10 31 6 9 -3
24 3 36 15 12 12 27 18 37 14 14 -5 14 -3 3 15 -10 17 -10 23 4 37 16 15 17
15 18 -7 1 -13 1 -27 0 -32 -4 -17 29 16 42 43 8 17 21 26 37 27 49 1 60 4 60
14 0 7 -6 7 -19 0 -37 -19 -43 -2 -11 30 11 11 20 15 20 10 0 -21 18 -9 25 18
4 15 10 21 12 14 7 -18 53 25 53 49 0 24 10 49 20 49 4 0 2 -21 -6 -47 -14
-48 -14 -48 5 -25 17 20 20 20 23 5 2 -10 1 -30 -3 -45 -8 -31 12 -55 43 -50
18 3 26 -14 8 -20 -6 -2 -6 -8 0 -18 8 -12 12 -12 18 -2 12 18 77 10 76 -10
-1 -13 4 -13 37 5 22 11 39 26 39 33 0 6 7 15 16 18 13 5 15 2 11 -14 -6 -24
1 -25 31 -4 12 8 22 12 22 8 0 -5 5 -3 12 4 13 13 48 16 48 4 0 -4 -5 -13 -11
-19 -7 -7 -7 -13 -1 -17 7 -4 7 -17 2 -36 -5 -17 -5 -28 0 -25 4 3 11 23 15
44 4 25 13 42 23 44 15 4 15 5 0 6 -10 0 -18 6 -18 11 0 14 -47 13 -56 -1 -5
-8 -10 -6 -16 5 -13 22 9 134 32 163 l19 24 11 -21 11 -21 19 23 c15 19 16 24
4 31 -8 4 -14 13 -14 18 0 19 61 100 71 94 5 -3 6 0 3 8 -2 7 11 37 31 66 19
29 35 58 35 63 0 6 9 0 19 -13 l19 -24 -31 -12 c-45 -20 -56 -41 -56 -108 0
-33 -2 -69 -3 -80 -2 -14 2 -19 15 -17 9 2 17 -3 17 -11 0 -8 9 -21 20 -28 25
-17 33 -83 10 -84 -35 -3 -50 15 -50 58 -1 30 -3 38 -10 26 -5 -9 -5 -30 1
-55 9 -33 15 -61 18 -85 2 -11 31 -5 31 7 0 20 29 25 66 9 30 -12 34 -12 34 1
0 20 20 17 21 -3 1 -10 1 -22 0 -26 -1 -5 11 -7 26 -5 22 2 27 8 25 25 -2 17
1 20 17 16 27 -7 71 4 71 18 0 6 -11 25 -25 43 -21 28 -23 37 -15 66 11 39 13
36 -25 43 l-30 5 0 -93 c0 -62 -4 -98 -12 -107 -15 -14 -15 -13 -17 72 -1 54
-1 55 -32 55 -17 0 -36 -5 -42 -11 -7 -8 0 -11 26 -10 26 1 37 -4 40 -16 4
-20 -34 -34 -52 -19 -9 7 -16 7 -24 -1 -9 -9 -12 -7 -14 8 0 10 -2 24 -2 31
-1 6 -12 23 -24 36 -22 24 -23 27 -10 66 8 23 18 38 24 33 5 -4 -6 7 -24 24
-27 25 -31 32 -18 37 9 4 23 4 31 1 8 -4 15 -1 15 6 0 6 -4 8 -10 5 -11 -7
-13 6 -4 29 6 16 30 21 58 10 17 -7 22 -44 6 -44 -5 0 -10 -4 -10 -10 0 -5 7
-10 15 -10 8 0 15 9 15 20 0 16 4 18 23 11 13 -5 35 -7 50 -4 15 3 33 0 41 -6
17 -14 29 0 20 24 -4 10 1 21 12 29 17 13 17 14 -4 20 -12 4 -26 4 -32 1 -5
-3 -10 -1 -10 5 0 6 7 13 15 16 32 13 12 19 -55 19 l-69 0 35 -18 c20 -10 42
-16 50 -13 8 3 14 1 14 -4 0 -6 -20 -10 -45 -10 -42 0 -54 -7 -38 -23 3 -4 13
-1 22 6 14 11 14 10 2 -6 -10 -13 -17 -15 -27 -6 -8 6 -14 18 -14 25 0 8 -9
14 -20 14 -23 0 -90 84 -90 114 0 15 -3 17 -9 8 -9 -15 -18 -6 -41 37 -10 19
-9 25 1 33 11 8 10 9 -3 4 -11 -3 -21 2 -28 14 -12 22 -3 53 13 43 6 -3 7 -1
3 5 -8 13 -36 5 -36 -10 0 -5 -5 -6 -10 -3 -6 4 -8 10 -5 15 3 4 -1 11 -7 13
-9 4 -9 6 2 6 10 1 7 6 -8 17 -21 15 -25 15 -41 0 -15 -14 -17 -13 -19 12 -2
15 -6 43 -11 62 -8 35 -8 35 -18 10 -8 -19 -7 -26 3 -28 11 -3 20 -43 12 -54
-1 -2 4 -13 10 -24 11 -20 9 -22 -22 -28 -18 -4 -41 -15 -51 -26 -21 -23 -16
-25 18 -9 37 17 58 -1 74 -61 7 -28 11 -55 8 -60 -7 -11 15 -70 26 -70 5 0 9
11 9 24 0 32 25 40 38 12 13 -30 -6 -72 -31 -68 -12 2 -21 -7 -28 -27 -6 -17
-15 -31 -20 -31 -5 0 -9 -7 -9 -16 0 -10 -6 -14 -15 -10 -14 5 -19 -6 -18 -42
1 -10 -2 -10 -13 -1 -8 6 -11 16 -7 23 3 6 3 8 -1 5 -4 -4 -29 -1 -57 6 -27 7
-49 9 -49 5 0 -5 17 -11 38 -15 20 -3 44 -10 52 -15 13 -9 13 -11 0 -20 -20
-13 -40 -13 -40 1 0 5 -5 7 -11 4 -6 -4 -22 4 -37 16 l-26 24 23 -32 c21 -30
32 -38 54 -34 5 1 6 -3 2 -9 -3 -6 -10 -8 -14 -5 -5 2 -6 -6 -4 -18 3 -13 -2
-29 -10 -35 -18 -15 -45 12 -52 54 -11 71 -24 116 -35 127 -10 9 -11 7 -6 -9
5 -15 -1 -31 -19 -52 -14 -16 -25 -37 -25 -45 0 -29 -18 -27 -22 3 -2 16 0 26
4 23 5 -3 7 10 5 28 -5 41 9 73 29 65 23 -9 42 4 37 25 -3 10 0 19 6 19 6 0 8
7 4 17 -5 11 -3 14 6 8 10 -5 11 -2 7 13 -4 11 -3 23 3 26 5 3 7 15 4 26 -7
26 13 50 41 50 19 0 18 2 -8 19 -23 15 -34 17 -49 9 -16 -8 -23 -6 -36 10 -15
18 -19 18 -48 6 -42 -18 -49 -32 -27 -52 17 -16 17 -16 5 0 -17 22 -6 38 24
36 20 -2 22 -5 13 -23 -6 -11 -11 -22 -10 -25 5 -14 -11 -39 -26 -43 -16 -4
-16 -5 0 -6 9 0 20 4 23 9 3 6 15 10 27 10 17 0 18 2 8 15 -15 19 0 20 24 2
15 -11 17 -17 7 -35 -6 -12 -22 -24 -36 -28 -13 -3 -24 -13 -24 -22 -2 -53
-11 -85 -28 -97 -20 -16 -53 -20 -53 -7 0 5 -18 14 -40 21 -22 7 -38 16 -35
21 3 5 0 12 -7 16 -8 5 -3 12 17 21 24 11 25 13 6 9 -17 -3 -21 -2 -13 6 15
15 74 2 101 -23 25 -24 26 -24 35 13 6 25 3 28 -31 37 -21 6 -60 11 -86 11
-41 0 -48 3 -45 18 2 9 12 16 22 16 15 -2 16 0 3 15 -8 9 -17 23 -19 31 -3 8
-8 -12 -12 -45 -5 -36 -3 -71 3 -88 6 -15 8 -27 4 -27 -3 0 2 -9 12 -20 10
-11 26 -20 37 -20 10 0 18 -5 18 -11 0 -18 -43 1 -72 32 -34 35 -35 30 -6 -22
13 -23 27 -38 35 -35 7 3 12 2 12 -2 -6 -35 21 -43 59 -17 20 14 21 14 16 0
-3 -8 -10 -15 -14 -15 -5 0 -6 -9 -3 -21 4 -14 9 -17 16 -10 14 14 40 14 32 1
-4 -6 -1 -17 5 -25 10 -12 10 -18 0 -30 -7 -8 -17 -15 -22 -15 -5 0 -2 7 6 16
20 20 12 34 -19 34 -19 0 -23 -4 -19 -17 3 -10 -1 -8 -8 5 -14 22 -15 22 -30
5 -8 -10 -13 -25 -11 -33 2 -9 -1 -7 -7 3 -7 10 -10 27 -7 36 5 21 -9 51 -25
51 -6 0 -3 -9 7 -20 17 -19 17 -19 -13 -8 -35 13 -65 -2 -55 -28 7 -18 58 -46
67 -37 3 4 6 1 6 -6 0 -8 8 -11 20 -8 25 6 33 -5 34 -54 1 -29 -3 -39 -14 -39
-25 0 -139 -58 -165 -84 -14 -14 -25 -20 -25 -14 0 5 -7 8 -15 4 -17 -6 -21 9
-5 19 5 3 10 12 9 18 0 9 -2 9 -5 0 -3 -7 -11 -10 -18 -7 -7 3 -18 -5 -24 -18
l-11 -23 0 23 c-1 12 -7 22 -15 22 -9 0 -12 11 -10 36 1 20 5 38 8 41 3 4 2
11 -3 17 -5 6 -21 58 -36 116 -14 58 -28 114 -31 125 -3 11 20 -18 51 -64 32
-46 58 -97 60 -115 2 -17 1 -25 -2 -18 -6 15 -23 6 -23 -12 0 -8 8 -13 17 -12
12 1 19 -11 25 -39 11 -53 23 -63 23 -20 0 19 -3 35 -7 35 -5 0 -8 10 -8 23 0
22 0 22 15 -3 8 -14 20 -36 27 -50 6 -14 13 -26 14 -28 1 -2 11 4 23 14 20 17
19 20 -113 213 -73 108 -168 243 -212 300 -205 269 -253 329 -301 381 -50 53
-52 54 -53 28z m284 -377 c3 -5 -1 -11 -9 -14 -9 -4 -12 -1 -8 9 6 16 10 17
17 5z m960 -27 c5 -14 4 -15 -9 -4 -17 14 -19 20 -6 20 5 0 12 -7 15 -16z
m-950 -63 c-2 -2 -10 2 -19 9 -8 7 -15 9 -15 4 0 -12 20 -41 20 -30 0 6 13 -3
30 -19 16 -15 27 -32 24 -37 -3 -4 0 -8 6 -8 6 0 8 -4 5 -10 -3 -5 2 -10 11
-10 10 0 15 -3 11 -6 -3 -3 5 -27 18 -52 13 -26 26 -58 30 -72 6 -24 45 -41
45 -19 0 5 -4 9 -10 9 -5 0 -10 9 -10 20 0 11 -5 19 -10 17 -12 -2 -51 103
-43 115 2 5 0 7 -5 6 -6 -2 -23 15 -39 37 -28 39 -33 65 -11 65 6 0 7 -7 4
-16 -3 -8 -2 -13 3 -10 12 8 26 -10 60 -78 16 -32 31 -52 33 -45 2 7 12 -20
22 -60 10 -40 15 -75 12 -78 -3 -3 2 -22 10 -42 9 -20 17 -40 18 -46 1 -5 8
-20 14 -33 11 -19 10 -23 -3 -28 -8 -4 -25 -4 -36 -1 -12 3 -18 3 -15 0 3 -4
0 -13 -6 -22 -10 -13 -10 -14 2 -3 18 16 40 15 40 -1 0 -21 -36 -49 -57 -45
-18 4 -21 19 -8 51 4 10 3 17 -4 17 -6 0 -11 -8 -11 -17 0 -12 -3 -14 -8 -6
-4 7 -7 -5 -7 -26 0 -21 -10 -52 -23 -71 l-22 -35 6 50 c3 28 9 72 14 100 9
53 3 175 -8 187 -18 18 -40 -22 -51 -92 -16 -101 -23 -101 -15 1 7 91 -5 158
-33 180 -15 13 -16 11 -9 -11 9 -30 24 -133 20 -139 -1 -1 -8 17 -14 40 -13
56 -24 74 -41 74 -8 1 -24 6 -36 13 -12 7 -35 12 -51 12 -26 0 -29 3 -24 22 8
31 122 137 140 130 9 -3 13 -1 9 5 -4 6 -4 19 -1 28 6 14 8 14 24 -2 10 -10
16 -20 14 -22z m681 -121 c3 -5 -1 -10 -10 -10 -9 0 -13 5 -10 10 3 6 8 10 10
10 2 0 7 -4 10 -10z m-839 -68 c-2 -4 2 -13 10 -20 13 -12 18 -8 15 11 0 4 3
7 8 7 5 0 18 -21 29 -47 12 -27 21 -40 22 -30 0 10 5 15 10 12 6 -4 8 -10 5
-15 -3 -4 0 -10 6 -12 12 -4 13 -15 5 -158 -8 -138 -8 -139 -24 -145 -8 -3
-12 0 -9 7 5 15 -10 48 -22 48 -4 0 -6 -13 -3 -30 3 -24 1 -30 -14 -31 -11 0
4 -7 31 -14 38 -10 43 -13 22 -14 -34 -1 -78 -23 -98 -48 -13 -17 -12 -17 15
1 34 22 24 2 -16 -32 -15 -13 -28 -30 -28 -38 0 -9 -4 -13 -8 -10 -4 2 -9 -6
-10 -20 -1 -13 3 -24 8 -24 6 0 10 9 10 21 0 22 60 89 80 89 6 0 -5 -15 -24
-34 -33 -30 -36 -38 -36 -88 0 -37 -5 -60 -15 -68 -8 -7 -15 -19 -15 -26 0 -8
-4 -14 -10 -14 -5 0 -10 7 -10 16 0 8 -4 12 -10 9 -5 -3 -12 7 -16 22 -3 15
-10 44 -15 63 -20 79 -2 175 39 206 16 13 16 14 0 8 -20 -7 -25 11 -6 20 8 4
9 8 3 11 -11 5 -9 89 3 115 3 8 6 35 7 60 1 25 5 51 9 58 4 7 4 21 0 30 -11
26 -12 82 -2 82 5 0 6 5 3 10 -3 6 3 10 14 10 12 0 21 5 21 11 0 5 5 7 10 4 6
-4 8 -9 6 -13z m704 -22 c-19 -13 -30 -13 -30 0 0 6 10 10 23 10 18 0 19 -2 7
-10z m161 -67 c-12 -20 -14 -14 -5 12 4 9 9 14 11 11 3 -2 0 -13 -6 -23z
m-276 -3 c3 -5 1 -10 -4 -10 -6 0 -11 5 -11 10 0 6 2 10 4 10 3 0 8 -4 11 -10z
m-371 -37 c5 -25 1 -62 -21 -165 -3 -15 -9 -25 -14 -23 -4 3 -3 18 3 33 6 15
11 62 12 105 1 78 10 100 20 50z m470 2 c-4 -9 2 -18 17 -24 13 -5 19 -10 12
-10 -24 -2 -43 12 -43 30 0 10 4 19 10 19 5 0 7 -7 4 -15z m-778 -81 c-3 -8
-11 -14 -18 -13 -10 0 -10 2 0 6 6 2 13 17 13 31 1 18 3 21 6 9 3 -10 2 -25
-1 -33z m971 14 c-3 -8 -6 -5 -6 6 -1 11 2 17 5 13 3 -3 4 -12 1 -19z m-67
-49 c0 -5 -7 -9 -15 -9 -15 0 -20 12 -9 23 8 8 24 -1 24 -14z m192 -4 c0 -5
-5 -11 -11 -13 -6 -2 -11 4 -11 13 0 9 5 15 11 13 6 -2 11 -8 11 -13z m-702
-81 c0 -2 -7 -4 -15 -4 -8 0 -15 4 -15 10 0 5 7 7 15 4 8 -4 15 -8 15 -10z
m250 -4 c-13 -11 -28 -20 -34 -20 -14 1 32 40 47 40 5 0 0 -9 -13 -20z m-157
-18 c-2 -40 -3 -41 -20 -35 -15 6 -16 4 -6 -8 7 -9 8 -20 4 -28 -7 -11 -10 -9
-15 7 -4 13 -1 31 9 46 9 14 13 30 9 37 -4 7 -2 10 7 7 7 -2 13 -14 12 -26z
m-113 -12 c0 -5 -4 -10 -10 -10 -5 0 -10 5 -10 10 0 6 5 10 10 10 6 0 10 -4
10 -10z m177 -6 c-3 -3 -12 -4 -19 -1 -8 3 -5 6 6 6 11 1 17 -2 13 -5z m58
-14 c3 -5 1 -10 -4 -10 -6 0 -11 5 -11 10 0 6 2 10 4 10 3 0 8 -4 11 -10z
m-249 -27 c-7 -7 -26 7 -26 19 0 6 6 6 15 -2 9 -7 13 -15 11 -17z m174 17 c0
-5 -4 -10 -10 -10 -5 0 -10 5 -10 10 0 6 5 10 10 10 6 0 10 -4 10 -10z m-10
-31 c0 -4 -7 -6 -15 -3 -8 4 -15 10 -15 15 0 4 7 6 15 3 8 -4 15 -10 15 -15z
m-166 -25 c12 -30 7 -36 -26 -29 -42 9 -44 11 -28 30 16 20 46 19 54 -1z m146
6 c12 -8 11 -10 -7 -10 -13 0 -23 5 -23 10 0 13 11 13 30 0z m-65 -19 c-3 -6
-11 -11 -17 -11 -6 0 -6 6 2 15 14 17 26 13 15 -4z m-105 -25 c0 -3 -4 -8 -10
-11 -5 -3 -10 -1 -10 4 0 6 5 11 10 11 6 0 10 -2 10 -4z m-99 -39 c-18 -18
-13 -25 14 -23 22 3 24 0 19 -23 -9 -38 -18 -44 -53 -36 -20 4 -31 13 -31 23
0 26 39 84 51 76 8 -4 8 -9 0 -17z m-71 -22 c-29 -47 -52 -145 -38 -163 6 -7
8 -15 5 -18 -7 -7 -37 50 -37 71 0 8 5 15 11 15 6 0 9 7 5 15 -3 8 -1 15 4 15
6 0 10 9 10 19 0 18 45 81 57 81 2 0 -5 -16 -17 -35z m409 -55 c33 0 42 -14
15 -24 -31 -12 -69 -6 -81 13 -15 23 -6 33 18 21 10 -6 31 -10 48 -10z m124
-20 c18 0 27 -5 27 -16 0 -12 -6 -15 -22 -10 -13 4 -34 9 -48 10 -40 5 -42 5
-34 17 3 6 16 8 28 5 11 -3 33 -6 49 -6z m-480 -60 c3 -11 1 -20 -4 -20 -5 0
-9 4 -9 9 0 5 -3 17 -7 27 -4 11 -3 15 4 11 6 -4 13 -16 16 -27z m321 9 c-9
-15 -34 -10 -28 5 3 8 12 12 20 9 8 -3 11 -9 8 -14z m178 -61 c-9 -9 -12 -4
-11 22 0 33 1 34 11 12 8 -17 8 -26 0 -34z m-241 7 l34 -16 -35 7 c-19 3 -39
10 -44 15 -15 14 8 11 45 -6z m-406 -25 c3 -5 2 -10 -4 -10 -5 0 -13 5 -16 10
-3 6 -2 10 4 10 5 0 13 -4 16 -10z m600 -10 c3 -5 2 -10 -4 -10 -5 0 -13 5
-16 10 -3 6 -2 10 4 10 5 0 13 -4 16 -10z m-215 -16 c0 -2 -11 -4 -25 -4 -14
0 -25 4 -25 9 0 4 11 6 25 3 14 -2 25 -6 25 -8z m-186 -16 c-5 -8 -2 -9 9 -5
18 7 47 -1 47 -12 0 -4 -12 -6 -27 -5 -69 4 -66 3 -53 19 15 18 34 20 24 3z
m223 6 c-3 -3 -12 -4 -19 -1 -8 3 -5 6 6 6 11 1 17 -2 13 -5z m-352 -24 c-3
-5 -11 -10 -16 -10 -6 0 -7 5 -4 10 3 6 11 10 16 10 6 0 7 -4 4 -10z m45 -26
c0 -2 -7 -4 -15 -4 -8 0 -15 4 -15 10 0 5 7 7 15 4 8 -4 15 -8 15 -10z m99 -1
c10 -17 10 -17 11 0 0 10 4 15 10 12 6 -4 5 -13 -2 -25 -12 -19 -13 -19 -35 2
-28 26 -31 15 -3 -14 24 -26 17 -38 -8 -15 -10 10 -23 17 -28 17 -5 0 2 -9 16
-20 14 -10 21 -22 17 -26 -4 -4 -15 0 -25 9 -10 10 -27 17 -38 18 -10 0 -13 3
-6 6 6 2 12 9 12 14 0 35 62 52 79 22z m146 2 c11 -2 28 -4 38 -4 10 -1 15 -5
12 -11 -3 -5 -40 -10 -81 -10 -72 0 -74 1 -64 20 9 17 17 20 43 15 18 -3 41
-8 52 -10z m-17 -46 c45 -1 82 -6 82 -11 0 -9 -178 -10 -194 -1 -4 3 -2 9 5
14 7 4 16 6 19 4 4 -2 43 -5 88 -6z m157 -9 c-3 -5 -17 -10 -31 -10 -14 0 -22
4 -19 10 3 6 17 10 31 10 14 0 22 -4 19 -10z"/>
<path d="M436 795 c3 -36 2 -46 -5 -35 -9 13 -11 13 -11 -1 0 -14 29 -36 35
-27 1 2 -4 28 -11 58 l-13 55 5 -50z"/>
<path d="M445 650 c3 -5 8 -10 11 -10 2 0 4 5 4 10 0 6 -5 10 -11 10 -5 0 -7
-4 -4 -10z"/>
<path d="M140 510 c0 -5 5 -10 11 -10 5 0 7 5 4 10 -3 6 -8 10 -11 10 -2 0 -4
-4 -4 -10z"/>
<path d="M116 497 c3 -10 9 -15 12 -12 3 3 0 11 -7 18 -10 9 -11 8 -5 -6z"/>
<path d="M90 491 c0 -6 4 -13 10 -16 6 -3 7 1 4 9 -7 18 -14 21 -14 7z"/>
<path d="M84 436 c1 -19 4 -32 8 -30 7 4 4 52 -4 59 -3 3 -4 -10 -4 -29z"/>
<path d="M36 443 c-6 -14 -5 -15 5 -6 7 7 10 15 7 18 -3 3 -9 -2 -12 -12z"/>
<path d="M52 270 c0 -14 2 -19 5 -12 2 6 2 18 0 25 -3 6 -5 1 -5 -13z"/>
<path d="M454 1598 c-5 -7 -3 -8 6 -3 10 6 12 4 7 -8 -4 -11 -2 -14 9 -10 11
4 12 9 3 19 -14 17 -16 17 -25 2z"/>
<path d="M530 1531 c0 -5 7 -11 15 -15 8 -3 15 -1 15 3 0 5 -7 11 -15 15 -8 3
-15 1 -15 -3z"/>
<path d="M590 1521 c0 -7 -4 -10 -9 -6 -5 3 -12 1 -16 -4 -4 -7 -15 -7 -32 0
-32 12 -42 5 -14 -10 12 -7 32 -8 48 -4 16 4 35 6 43 5 9 -2 11 0 5 5 -5 5
-13 12 -17 17 -5 5 -8 4 -8 -3z"/>
<path d="M623 1505 c-10 -23 -9 -25 12 -25 13 0 31 -7 39 -16 9 -8 16 -11 16
-6 0 6 3 18 7 27 5 15 3 16 -15 6 -19 -10 -21 -9 -15 5 4 12 3 15 -5 10 -7 -4
-12 -1 -12 8 0 24 -14 19 -27 -9z"/>
<path d="M487 1467 c5 -51 13 -62 13 -19 0 16 6 32 12 34 8 3 5 9 -9 16 -20
11 -21 10 -16 -31z"/>
<path d="M1520 1479 c-7 -11 -10 -23 -7 -25 2 -2 9 7 15 21 14 30 7 33 -8 4z"/>
<path d="M707 1458 c-3 -9 1 -22 9 -28 22 -19 17 -75 -15 -140 -37 -77 -22
-69 18 9 29 58 31 79 11 126 -5 11 -10 27 -12 34 -4 12 -5 12 -11 -1z"/>
<path d="M980 1456 c0 -8 4 -17 9 -20 5 -4 7 3 4 14 -6 23 -13 26 -13 6z"/>
<path d="M1310 1413 c0 -58 17 -123 32 -123 7 0 7 4 0 13 -6 7 -14 33 -18 57
-6 43 -5 44 10 23 9 -12 13 -28 10 -36 -3 -9 2 -27 12 -42 15 -23 15 -28 3
-35 -11 -7 -11 -12 -1 -22 9 -9 12 -9 12 4 0 11 7 16 19 13 13 -2 26 6 36 21
9 14 30 34 48 44 l32 20 -27 -2 c-15 -1 -25 -5 -23 -9 3 -3 -6 -16 -19 -28
l-22 -21 -21 22 c-36 41 -78 121 -65 126 13 4 6 22 -9 22 -5 0 -9 -21 -9 -47z"/>
<path d="M452 1430 c-13 -21 -6 -25 18 -10 10 6 12 12 5 19 -7 7 -14 4 -23 -9z"/>
<path d="M757 1421 c-4 -17 -3 -21 5 -13 5 5 8 16 6 23 -3 8 -7 3 -11 -10z"/>
<path d="M1485 1405 c-3 -8 -7 -22 -10 -30 -2 -8 -1 -15 4 -15 5 0 11 14 13
30 5 32 1 40 -7 15z"/>
<path d="M2846 1359 c17 -19 48 -58 68 -88 20 -29 36 -50 36 -46 0 11 -22 48
-44 76 -12 14 -28 36 -36 48 -8 13 -24 27 -35 33 -13 7 -10 -1 11 -23z"/>
<path d="M960 1370 c0 -5 5 -12 11 -16 8 -4 8 -9 0 -17 -32 -32 11 -117 58
-117 20 0 20 0 1 33 -10 17 -23 51 -29 73 -6 23 -18 45 -26 48 -8 3 -15 1 -15
-4z"/>
<path d="M510 1360 c0 -5 5 -10 10 -10 6 0 10 5 10 10 0 6 -4 10 -10 10 -5 0
-10 -4 -10 -10z"/>
<path d="M350 1333 c0 -5 5 -14 12 -21 10 -10 8 -19 -7 -45 -17 -28 -17 -30
-1 -18 31 26 35 45 15 70 -10 13 -19 19 -19 14z"/>
<path d="M630 1319 c0 -5 5 -7 10 -4 6 3 13 0 16 -9 3 -8 12 -12 20 -9 11 4 8
9 -12 19 -32 17 -34 17 -34 3z"/>
<path d="M2699 1310 c0 -8 -2 -24 -4 -34 -2 -11 0 -26 4 -33 15 -27 29 29 14
57 -8 15 -13 19 -14 10z"/>
<path d="M97 1299 c7 -7 15 -10 18 -7 3 3 -2 9 -12 12 -14 6 -15 5 -6 -5z"/>
<path d="M2593 1243 c-13 -13 -23 -34 -23 -47 0 -34 -61 -118 -101 -139 -20
-11 -26 -17 -14 -15 11 1 26 -2 34 -6 11 -7 13 -5 8 7 -7 19 11 27 40 16 28
-10 33 3 49 115 6 44 8 47 21 31 9 -14 16 -16 24 -8 12 12 84 -1 106 -19 9 -7
13 -7 13 1 0 6 -7 14 -15 17 -8 4 -13 9 -11 13 7 11 -89 8 -96 -3 -4 -6 -10
-4 -14 7 -3 9 -1 24 5 31 21 25 -3 23 -26 -1z m-43 -164 c0 -5 -7 -9 -15 -9
-15 0 -20 12 -9 23 8 8 24 -1 24 -14z"/>
<path d="M2475 1251 c-3 -5 -1 -12 5 -16 5 -3 10 1 10 9 0 18 -6 21 -15 7z"/>
<path d="M430 1245 c0 -13 44 -75 53 -75 5 0 5 -4 2 -10 -3 -5 1 -20 9 -32 9
-12 16 -34 16 -49 0 -38 26 -106 52 -139 13 -15 29 -36 36 -46 11 -16 11 -16
2 6 -11 24 -10 24 4 6 9 -11 16 -27 16 -36 0 -9 6 -25 14 -35 13 -18 14 -17
14 9 0 15 5 33 11 39 8 8 11 4 11 -17 0 -15 4 -25 10 -21 5 3 7 20 4 38 -4 18
-6 49 -6 70 0 46 -10 47 -27 2 -7 -19 -16 -35 -21 -35 -8 0 -65 82 -90 130
-12 23 -12 24 3 12 13 -11 17 -10 25 5 11 19 12 24 12 49 0 13 7 15 29 11 16
-4 31 -3 34 1 2 4 3 2 1 -4 -1 -7 4 -21 11 -32 8 -10 12 -21 10 -24 -3 -3 2
-5 10 -5 8 0 15 6 15 14 0 7 -5 13 -11 13 -6 0 -9 14 -7 32 2 24 8 32 27 35
13 2 30 11 37 21 7 9 16 14 20 9 4 -4 14 -1 23 6 25 21 51 28 45 13 -7 -18 15
-31 29 -17 7 7 5 16 -8 31 -22 25 -43 25 -74 1 -18 -14 -35 -18 -58 -14 -30 5
-33 3 -33 -21 0 -23 -4 -26 -34 -26 -19 0 -42 7 -50 16 -9 8 -16 11 -16 5 0
-5 7 -14 16 -19 29 -16 -3 -24 -47 -11 -26 8 -54 28 -80 57 -21 25 -39 41 -39
37z"/>
<path d="M1387 1243 c-4 -3 -7 -13 -7 -22 1 -13 3 -13 11 2 11 19 8 33 -4 20z"/>
<path d="M2635 1240 c-3 -6 1 -7 9 -4 18 7 21 14 7 14 -6 0 -13 -4 -16 -10z"/>
<path d="M1451 1221 c-17 -11 -10 -46 9 -46 17 0 26 33 13 46 -4 4 -14 4 -22
0z"/>
<path d="M1662 1208 c2 -13 10 -23 18 -23 8 0 16 10 18 23 3 17 -2 22 -18 22
-16 0 -21 -5 -18 -22z"/>
<path d="M620 1210 c-9 -6 -10 -10 -3 -10 6 0 15 5 18 10 8 12 4 12 -15 0z"/>
<path d="M650 1205 c-7 -9 -10 -18 -7 -21 3 -3 10 4 17 15 13 25 8 27 -10 6z"/>
<path d="M2034 1204 c-18 -14 -18 -15 5 -3 22 10 59 9 106 -5 11 -4 7 0 -10 8
-39 20 -77 20 -101 0z"/>
<path d="M1561 1201 c-10 -6 -10 -10 -1 -16 7 -4 19 0 28 9 14 13 14 16 2 16
-8 0 -21 -4 -29 -9z"/>
<path d="M2955 1195 c39 -110 44 -221 12 -284 -9 -19 -17 -40 -17 -48 0 -7 -6
-13 -12 -13 -7 -1 -4 -6 7 -13 11 -7 20 -18 20 -26 0 -8 8 -15 18 -17 16 -2
17 3 17 44 0 4 -8 7 -17 7 -23 0 -27 20 -10 45 14 20 15 19 39 -29 23 -47 23
-50 7 -73 -26 -36 -41 -94 -38 -145 l3 -48 -48 -23 c-27 -13 -53 -21 -60 -19
-6 3 1 9 15 15 34 13 59 49 59 82 0 26 -42 219 -66 304 -8 26 -14 63 -14 81 0
44 -13 76 -42 108 -21 22 -30 25 -78 22 -51 -3 -58 -6 -95 -49 -40 -46 -91
-146 -75 -146 5 0 2 -16 -6 -36 -8 -20 -14 -37 -12 -38 2 -1 24 -10 51 -20 55
-21 71 -44 61 -89 -9 -42 -33 -79 -47 -70 -5 3 -7 1 -3 -5 23 -38 -61 -7 -158
58 -85 58 -257 133 -313 138 -55 5 -60 1 -54 -45 1 -6 -3 -14 -9 -18 -5 -3
-10 -14 -9 -23 0 -14 2 -14 6 -2 13 32 30 40 64 30 35 -10 75 -13 52 -3 -10 3
-9 9 3 20 14 15 20 14 62 -4 35 -14 46 -24 45 -39 -19 -157 -65 -305 -123
-397 -34 -53 -48 -66 -95 -86 -49 -21 -56 -27 -54 -50 4 -34 -27 -86 -52 -88
-15 -1 -19 3 -14 18 4 11 2 19 -5 19 -8 0 -10 -10 -7 -26 4 -22 2 -25 -18 -20
-18 5 -24 1 -29 -17 -3 -12 -6 -25 -6 -29 0 -10 30 -38 41 -38 5 0 0 9 -12 21
-26 26 -20 44 14 44 14 1 29 4 32 7 4 4 15 -1 24 -10 10 -9 26 -23 37 -30 16
-11 16 -12 2 -8 -20 6 -25 -10 -5 -17 8 -4 8 -8 2 -14 -15 -12 -14 -103 1
-103 7 0 15 6 17 13 4 9 6 9 6 0 1 -7 6 -13 12 -13 6 0 9 7 5 15 -6 16 -5 16
177 99 42 19 77 40 77 47 0 18 -88 6 -139 -19 -54 -26 -50 -26 -44 -3 7 27 25
33 121 38 73 5 82 3 82 -12 0 -14 3 -14 18 5 l18 22 2 -26 c1 -19 -3 -26 -15
-26 -13 0 -14 -3 -5 -12 7 -7 8 -17 1 -30 -15 -29 -32 -22 -26 11 l6 29 -37
-19 c-20 -11 -55 -26 -76 -34 -22 -8 -37 -18 -34 -21 3 -3 21 1 39 9 51 21 89
29 89 18 0 -9 -83 -53 -124 -66 -15 -4 -17 -8 -8 -17 9 -9 28 -4 79 23 38 18
71 36 76 37 4 2 7 -3 7 -12 0 -9 -8 -16 -20 -16 -23 0 -70 -20 -70 -31 0 -13
55 -4 67 11 10 12 12 12 13 1 0 -10 3 -11 14 -2 11 9 15 9 18 0 3 -8 27 -14
59 -15 l54 -2 -40 19 c-22 10 -50 19 -62 19 -16 0 -23 6 -23 19 0 19 1 19 50
0 56 -21 74 -24 65 -9 -3 6 -15 10 -26 10 -23 0 -79 27 -79 38 1 24 23 31 110
36 l95 5 -45 -24 c-50 -27 -76 -32 -46 -10 19 14 18 15 -16 15 -19 0 -41 -7
-48 -15 -10 -12 -7 -17 14 -27 23 -10 34 -8 81 15 30 15 63 24 72 21 15 -5 16
-4 3 5 -18 13 -1 14 20 1 12 -7 11 -10 -5 -16 -27 -10 -85 -48 -60 -39 11 4
34 11 50 16 l30 8 -34 -31 c-32 -29 -33 -31 -10 -26 13 3 33 9 44 13 l20 8
-20 -17 c-19 -16 -19 -16 10 -10 29 6 29 6 10 -9 -19 -16 -19 -16 9 -17 23 0
27 3 21 18 -4 9 -24 62 -45 117 -20 55 -47 120 -59 144 -12 23 -20 49 -17 57
4 10 2 12 -6 8 -8 -5 -9 -2 -5 9 4 10 2 16 -6 14 -7 -1 -12 6 -12 15 0 10 -6
23 -14 30 -10 10 -12 10 -7 1 9 -17 -6 -17 -24 0 -8 6 -4 0 9 -15 l23 -26 -24
-5 c-19 -4 -18 -5 7 -6 23 -1 27 -3 15 -11 -13 -8 -13 -10 1 -10 9 0 21 -11
27 -25 8 -18 8 -25 1 -25 -6 0 -2 -8 10 -18 21 -16 17 -17 -121 -18 -138 -1
-193 -10 -293 -49 l-20 -8 20 17 c17 15 17 17 3 12 -21 -6 -22 -2 -7 25 8 16
13 18 25 9 7 -7 12 -16 9 -20 -8 -13 36 2 79 27 47 26 42 30 -12 7 l-37 -15
23 21 c12 11 22 25 22 30 0 6 1 13 1 18 2 10 31 29 54 35 18 4 18 5 -2 6 -31
1 -29 17 5 36 22 13 23 15 6 12 l-22 -5 23 53 c13 29 21 55 18 58 -9 10 38
151 53 160 19 11 18 28 -2 20 -12 -4 -12 1 5 27 10 18 17 39 14 47 -5 12 0 12
28 -2 52 -26 72 -47 57 -56 -8 -5 -1 -8 17 -6 l30 2 -1 -67 c0 -38 3 -68 7
-68 7 0 23 -50 24 -75 0 -6 10 -22 23 -35 12 -13 22 -29 22 -36 0 -7 11 -26
25 -42 13 -16 28 -48 34 -71 11 -50 27 -71 18 -23 -4 17 -5 32 -2 32 6 0 61
-82 68 -102 4 -10 2 -18 -3 -18 -5 0 -10 8 -12 18 -3 14 -5 13 -10 -5 -5 -19
-2 -23 17 -23 12 0 29 -10 38 -22 14 -22 15 -22 14 -3 -2 15 3 19 18 18 11 -2
31 -4 45 -5 14 -1 38 -13 53 -27 26 -24 29 -25 38 -9 6 10 20 18 33 18 31 0
37 9 25 33 -13 23 2 37 31 30 25 -7 35 15 17 35 -14 16 -12 17 33 18 27 1 47
-3 44 -7 -3 -5 9 -9 26 -9 48 0 32 25 -17 26 -22 0 -44 4 -50 7 -6 4 -13 2
-15 -4 -5 -15 -38 1 -38 19 0 9 8 36 17 61 17 43 16 44 -6 62 -13 11 -35 19
-50 19 -14 0 -32 4 -40 9 -12 7 -11 12 1 30 8 11 27 30 42 42 21 17 24 24 15
35 -10 12 -8 18 7 29 25 19 50 19 58 -1 4 -11 13 -14 27 -11 26 7 37 -18 20
-45 -10 -16 -10 -19 0 -12 9 5 10 2 6 -11 -6 -14 -3 -16 15 -11 13 3 26 6 30
6 4 0 6 15 5 34 -1 22 -6 31 -12 25 -13 -13 -25 -11 -25 6 0 7 8 19 18 24 9 6
11 11 5 11 -18 0 -16 20 2 20 13 0 15 24 15 159 l0 159 -28 6 c-33 8 -66 58
-113 171 l-33 80 -7 -47 c-4 -25 -12 -55 -18 -65 -11 -19 -12 -17 -16 38 -1
15 -10 37 -20 50 -14 19 -16 20 -10 4z m-223 -82 c-6 -2 -10 -9 -6 -14 3 -5 0
-8 -8 -7 -7 2 -23 -17 -36 -42 -13 -25 -21 -37 -18 -27 3 10 6 22 6 27 0 14
51 70 63 69 8 0 8 -2 -1 -6z m-24 -58 c-6 -14 -13 -23 -15 -21 -5 5 15 46 22
46 3 0 -1 -11 -7 -25z m-62 -29 c-11 -31 -14 -34 -18 -18 -3 12 1 30 9 42 21
30 24 21 9 -24z m394 29 c-7 -8 -18 -15 -24 -15 -6 0 -2 7 8 15 25 19 32 19
16 0z m70 -52 c-1 -10 -39 39 -40 51 0 5 9 -3 20 -17 11 -14 20 -29 20 -34z
m-32 5 c2 -10 -1 -18 -7 -18 -6 0 -8 7 -5 15 4 8 2 15 -4 15 -6 0 -13 -13 -17
-30 -4 -16 -11 -30 -16 -30 -10 0 -12 30 -3 53 7 20 48 16 52 -5z m-351 -50
c-3 -7 -5 -2 -5 12 0 14 2 19 5 13 2 -7 2 -19 0 -25z m380 -20 c-3 -8 -6 -5
-6 6 -1 11 2 17 5 13 3 -3 4 -12 1 -19z m-337 -5 c0 -5 -15 -16 -33 -26 l-32
-17 28 25 c30 26 37 30 37 18z m270 -11 c0 -4 -5 -13 -12 -20 -9 -9 -5 -12 18
-13 16 -1 22 -3 12 -6 -10 -2 -18 -7 -18 -10 0 -3 8 -12 18 -20 16 -14 16 -14
-1 -9 -10 3 -22 6 -27 6 -10 0 -22 59 -14 71 7 11 24 12 24 1z m-856 -47 c-4
-8 -10 -15 -15 -15 -4 0 -6 7 -3 15 4 8 10 15 15 15 4 0 6 -7 3 -15z m581 -15
c-3 -5 -10 -10 -16 -10 -5 0 -9 5 -9 10 0 6 7 10 16 10 8 0 12 -4 9 -10z
m-395 -104 c0 -15 -18 -31 -26 -23 -7 7 7 37 17 37 5 0 9 -6 9 -14z m744 6 c3
-5 -1 -9 -9 -9 -8 0 -12 4 -9 9 3 4 7 8 9 8 2 0 6 -4 9 -8z m56 -23 c0 -5 -4
-9 -10 -9 -5 0 -10 7 -10 16 0 8 5 12 10 9 6 -3 10 -10 10 -16z m-41 -30 c-11
-6 -10 -12 5 -27 11 -13 14 -22 7 -27 -13 -7 -34 42 -26 62 2 8 10 11 16 7 8
-4 7 -9 -2 -15z m-542 -76 c-3 -10 -5 -4 -5 12 0 17 2 24 5 18 2 -7 2 -21 0
-30z m-257 -4 c-7 -11 -14 -18 -17 -15 -8 8 5 36 17 36 7 0 7 -6 0 -21z m445
11 c16 -7 11 -9 -20 -9 -29 -1 -36 2 -25 9 17 11 19 11 45 0z m-475 -117 c0
-14 -19 -38 -25 -32 -8 8 5 39 16 39 5 0 9 -3 9 -7z m665 -83 c8 -13 -5 -13
-25 0 -13 8 -13 10 2 10 9 0 20 -4 23 -10z m-705 -24 c0 -7 -7 -19 -15 -26
-12 -10 -15 -9 -15 7 0 11 3 23 7 26 11 12 23 8 23 -7z m597 -52 c-3 -3 -12
-4 -19 -1 -8 3 -5 6 6 6 11 1 17 -2 13 -5z m-382 -124 c-28 -12 -57 -12 -50 0
3 6 21 10 38 9 27 0 29 -2 12 -9z m103 -5 c-3 -3 -36 -13 -73 -23 -38 -9 -70
-23 -73 -29 -4 -15 25 -18 30 -4 3 10 50 16 112 13 53 -3 40 -12 -26 -19 -75
-7 -75 -15 -1 -12 35 1 66 0 69 -4 3 -3 -42 -7 -100 -9 -114 -3 -114 -3 -100
50 5 18 14 22 48 23 22 1 52 5 66 9 30 10 55 12 48 5z m-211 -30 c2 -6 -33
-10 -92 -10 -85 0 -112 7 -60 17 43 7 148 2 152 -7z m43 5 c0 -5 -7 -10 -15
-10 -8 0 -15 5 -15 10 0 6 7 10 15 10 8 0 15 -4 15 -10z m173 -7 c-7 -2 -21
-2 -30 0 -10 3 -4 5 12 5 17 0 24 -2 18 -5z m-318 -74 c-61 -30 -155 -63 -162
-56 -3 4 7 11 23 17 16 6 51 22 78 36 28 13 61 24 75 24 23 -1 22 -3 -14 -21z
m-172 -34 c-9 -19 -18 -33 -21 -31 -4 5 26 66 33 66 3 0 -3 -16 -12 -35z m47
31 c0 -2 -8 -10 -17 -17 -16 -13 -17 -12 -4 4 13 16 21 21 21 13z"/>
<path d="M1376 1185 c4 -8 8 -15 10 -15 2 0 4 7 4 15 0 8 -4 15 -10 15 -5 0
-7 -7 -4 -15z"/>
<path d="M2320 1170 c0 -5 5 -10 10 -10 6 0 10 5 10 10 0 6 -4 10 -10 10 -5 0
-10 -4 -10 -10z"/>
<path d="M850 1140 c0 -5 5 -10 10 -10 6 0 10 5 10 10 0 6 -4 10 -10 10 -5 0
-10 -4 -10 -10z"/>
<path d="M107 1129 c7 -7 15 -10 18 -7 3 3 -2 9 -12 12 -14 6 -15 5 -6 -5z"/>
<path d="M145 1120 c3 -5 11 -10 16 -10 6 0 7 5 4 10 -3 6 -11 10 -16 10 -6 0
-7 -4 -4 -10z"/>
<path d="M1646 1105 c-9 -33 -1 -44 12 -18 6 11 7 25 3 32 -6 9 -10 5 -15 -14z"/>
<path d="M1960 1090 c0 -27 17 -34 29 -11 9 15 7 20 -9 24 -15 4 -20 0 -20
-13z"/>
<path d="M808 1093 c6 -2 18 -2 25 0 6 3 1 5 -13 5 -14 0 -19 -2 -12 -5z"/>
<path d="M940 1090 c0 -5 5 -10 11 -10 5 0 7 5 4 10 -3 6 -8 10 -11 10 -2 0
-4 -4 -4 -10z"/>
<path d="M1163 1074 c-10 -21 -9 -24 2 -14 10 8 14 8 18 -2 4 -9 6 -9 6 2 1
31 -14 39 -26 14z"/>
<path d="M2020 1080 c-9 -6 -10 -10 -3 -10 6 0 15 5 18 10 8 12 4 12 -15 0z"/>
<path d="M685 1050 c-10 -11 -15 -23 -12 -27 4 -3 7 -1 7 6 0 7 5 9 10 6 6 -4
10 -12 9 -18 -4 -36 3 -66 17 -71 14 -5 15 -4 5 8 -8 10 -10 32 -6 65 7 55 -1
63 -30 31z"/>
<path d="M2568 1042 c-20 -20 -24 -32 -17 -42 7 -12 10 -11 15 7 4 13 10 21
14 18 4 -3 10 6 12 20 3 14 5 25 4 25 0 0 -13 -13 -28 -28z"/>
<path d="M1036 1045 c-3 -9 0 -15 9 -15 9 0 12 6 9 15 -4 8 -7 15 -9 15 -2 0
-5 -7 -9 -15z"/>
<path d="M1070 1040 c0 -5 4 -10 9 -10 6 0 13 5 16 10 3 6 -1 10 -9 10 -9 0
-16 -4 -16 -10z"/>
<path d="M1858 1044 c-4 -3 -4 -13 -1 -21 5 -13 1 -12 -22 3 l-28 18 14 -24
c7 -14 12 -32 11 -40 -2 -9 0 -11 5 -5 10 14 53 17 53 4 0 -5 7 -9 16 -9 8 0
12 -4 9 -10 -3 -5 -15 -10 -25 -10 -25 0 -35 -17 -20 -36 10 -11 16 -11 26 -3
7 6 12 16 11 22 -1 7 4 11 11 10 6 -2 12 3 12 11 0 7 8 20 18 27 14 11 15 11
5 0 -7 -8 -9 -26 -6 -42 4 -21 1 -29 -8 -30 -8 0 -5 -4 6 -8 11 -5 27 -5 35
-1 20 10 40 2 40 -16 0 -15 12 -19 23 -7 4 3 1 13 -5 22 -9 13 -8 12 7 -1 15
-14 16 -20 5 -32 -18 -23 -29 -20 -41 10 -9 25 -11 26 -27 10 -13 -11 -21 -13
-29 -5 -8 8 -23 -2 -52 -31 -37 -37 -45 -41 -74 -36 -18 4 -40 8 -49 9 -9 1
-15 4 -12 8 2 3 -6 17 -17 30 -15 17 -19 32 -15 54 3 19 0 37 -11 50 -14 19
-15 17 -9 -30 6 -47 6 -49 -9 -27 -16 22 -45 30 -45 12 0 -5 6 -7 13 -5 7 3
22 -15 37 -47 13 -29 29 -57 35 -61 6 -5 4 -7 -5 -4 -8 2 -19 12 -25 23 -9 17
-16 20 -42 15 -4 0 2 -8 14 -16 11 -8 23 -24 26 -35 6 -23 -3 -26 -23 -7 -7 6
-4 -1 8 -16 12 -16 18 -35 15 -44 -6 -15 -7 -15 -12 0 -3 9 -11 13 -16 9 -6
-4 1 -18 17 -33 l27 -26 -2 43 c-2 35 1 44 15 44 9 0 29 5 43 10 24 9 25 12
14 27 -13 15 -12 15 8 5 27 -15 36 -29 41 -62 6 -46 15 -36 10 12 -4 36 -2 45
8 41 8 -3 14 -17 14 -31 0 -14 3 -22 6 -19 4 3 15 2 25 -4 13 -6 19 -6 19 0 0
6 -9 15 -19 21 -14 7 -18 17 -15 37 8 44 24 63 17 21 -4 -27 -1 -41 11 -53 18
-19 20 -31 6 -40 -5 -3 -10 -11 -10 -17 0 -7 6 -6 15 2 20 16 19 39 -2 62 -11
13 -12 18 -3 18 10 0 10 3 0 15 -7 8 -9 15 -5 15 4 0 13 -8 20 -17 11 -14 14
-12 25 23 17 52 26 61 34 30 9 -36 41 -34 61 4 10 19 11 30 5 30 -6 0 -9 4 -6
9 6 9 -40 26 -61 22 -8 -1 -10 5 -6 15 4 12 3 15 -5 10 -8 -5 -10 -2 -5 9 4
12 8 13 13 5 6 -9 9 -9 15 0 4 6 -1 17 -11 24 -9 7 -14 18 -11 23 4 6 0 16 -8
23 -13 10 -15 9 -15 -10 0 -18 -3 -20 -14 -11 -11 10 -17 8 -26 -6 -9 -15 -11
-15 -6 -1 2 9 -2 19 -10 22 -8 3 -14 -1 -14 -10 0 -20 -19 -8 -29 17 -4 11
-10 17 -13 13z m-83 -254 c3 -5 1 -10 -4 -10 -6 0 -11 5 -11 10 0 6 2 10 4 10
3 0 8 -4 11 -10z"/>
<path d="M2362 1030 c0 -14 2 -19 5 -12 2 6 2 18 0 25 -3 6 -5 1 -5 -13z"/>
<path d="M1121 1018 c-14 -23 -14 -23 8 -4 22 20 25 26 13 26 -4 0 -13 -10
-21 -22z"/>
<path d="M2286 1026 c5 -12 54 -52 54 -44 0 2 -14 16 -30 31 -17 16 -27 22
-24 13z"/>
<path d="M2900 1020 c0 -5 5 -10 11 -10 5 0 7 5 4 10 -3 6 -8 10 -11 10 -2 0
-4 -4 -4 -10z"/>
<path d="M2479 1002 c-8 -10 -27 -26 -44 -35 l-30 -15 28 -11 c34 -13 40 -14
33 -3 -3 5 4 23 15 41 22 36 20 54 -2 23z"/>
<path d="M1210 984 c0 -8 5 -12 10 -9 6 4 8 11 5 16 -9 14 -15 11 -15 -7z"/>
<path d="M1741 986 c-9 -10 -8 -15 4 -20 10 -4 15 1 15 14 0 24 -4 25 -19 6z"/>
<path d="M1054 972 c-17 -16 -18 -32 -3 -32 5 0 8 4 5 9 -3 5 0 14 8 20 11 9
15 9 18 0 3 -8 7 -7 15 3 10 11 8 14 -9 14 -11 0 -27 -6 -34 -14z"/>
<path d="M2370 966 c0 -2 7 -7 16 -10 8 -3 12 -2 9 4 -6 10 -25 14 -25 6z"/>
<path d="M1010 951 c0 -6 5 -13 10 -16 6 -3 10 1 10 9 0 9 -4 16 -10 16 -5 0
-10 -4 -10 -9z"/>
<path d="M2088 953 c7 -3 16 -2 19 1 4 3 -2 6 -13 5 -11 0 -14 -3 -6 -6z"/>
<path d="M2530 921 c-24 -7 -24 -7 -3 -13 14 -4 24 -1 27 8 3 8 4 14 3 13 -1
-1 -13 -4 -27 -8z"/>
<path d="M1746 912 c-7 -12 22 -45 33 -37 19 11 13 45 -8 45 -11 0 -22 -3 -25
-8z"/>
<path d="M718 897 c7 -8 9 -17 5 -20 -3 -4 -1 -7 5 -7 18 0 14 27 -4 34 -13 5
-14 4 -6 -7z"/>
<path d="M1490 896 c0 -8 -6 -16 -14 -19 -18 -7 -9 -54 11 -62 22 -8 26 0 14
24 -7 11 -9 32 -5 46 3 14 3 25 0 25 -3 0 -6 -6 -6 -14z"/>
<path d="M0 871 c0 -14 5 -18 20 -14 25 7 25 10 0 23 -17 9 -20 8 -20 -9z"/>
<path d="M1327 873 c-4 -3 -7 -16 -7 -27 1 -21 1 -21 15 -2 8 11 15 23 15 28
0 10 -14 11 -23 1z"/>
<path d="M676 819 c16 -29 71 -70 71 -53 0 7 -4 14 -8 14 -4 0 -22 12 -40 27
-18 16 -29 21 -23 12z"/>
<path d="M1520 819 c0 -8 9 -20 19 -26 16 -10 20 -9 25 3 9 23 7 27 -8 21 -7
-3 -19 0 -25 6 -8 8 -11 7 -11 -4z"/>
<path d="M2284 794 c-3 -10 -10 -29 -15 -41 -5 -13 -5 -23 0 -23 9 0 33 72 26
78 -3 3 -7 -4 -11 -14z"/>
<path d="M2054 764 c-4 -16 0 -40 10 -62 14 -29 15 -40 5 -64 -7 -18 -17 -27
-25 -24 -8 3 -14 1 -14 -5 0 -6 -5 -7 -10 -4 -7 4 -7 13 0 26 6 11 7 19 1 19
-13 0 -23 -31 -13 -44 19 -24 43 -151 38 -201 -5 -47 -5 -48 5 -15 8 25 8 57
0 114 -6 44 -9 81 -6 84 2 2 12 -14 21 -38 9 -23 20 -37 23 -31 4 6 12 7 21 1
8 -6 26 -9 40 -9 14 0 19 3 12 6 -7 3 -18 16 -23 30 -7 19 -12 23 -22 14 -10
-8 -17 -7 -25 1 -17 17 -15 33 2 19 11 -9 15 -9 18 0 3 8 9 9 19 4 8 -5 26 -8
40 -7 23 3 26 0 22 -21 -3 -14 -1 -27 5 -31 5 -3 14 20 21 51 13 68 14 83 0
61 -6 -11 -16 -15 -26 -11 -12 5 -15 2 -10 -9 4 -11 -2 -17 -18 -20 -28 -6
-28 6 1 36 12 12 27 46 35 76 10 38 19 55 34 59 28 7 -42 20 -117 20 -54 1
-58 -1 -64 -25z m60 -88 c16 -39 16 -39 -4 -21 -11 10 -20 29 -20 43 0 31 3
28 24 -22z m20 19 c3 -8 1 -15 -4 -15 -6 0 -10 7 -10 15 0 8 2 15 4 15 2 0 6
-7 10 -15z"/>
<path d="M1306 745 c-3 -8 2 -21 10 -30 22 -22 24 -19 13 15 -12 34 -15 36
-23 15z"/>
<path d="M1813 722 c-1 -37 -1 -37 8 -7 4 16 5 33 1 37 -4 4 -8 -10 -9 -30z"/>
<path d="M1975 704 c0 -25 5 -44 11 -44 8 0 9 13 4 40 -10 56 -16 57 -15 4z"/>
<path d="M745 729 c-4 -6 -5 -12 -2 -15 2 -3 7 2 10 11 7 17 1 20 -8 4z"/>
<path d="M2006 695 c4 -8 11 -15 16 -15 6 0 5 6 -2 15 -7 8 -14 15 -16 15 -2
0 -1 -7 2 -15z"/>
<path d="M1930 680 c0 -5 5 -10 11 -10 5 0 7 5 4 10 -3 6 -8 10 -11 10 -2 0
-4 -4 -4 -10z"/>
<path d="M2506 681 c-4 -5 -2 -12 3 -15 5 -4 12 -2 15 3 4 5 2 12 -3 15 -5 4
-12 2 -15 -3z"/>
<path d="M530 660 c0 -6 5 -8 11 -4 6 3 16 0 21 -7 8 -12 9 -11 5 1 -4 18 -37
27 -37 10z"/>
<path d="M1800 652 c0 -13 7 -36 15 -52 9 -18 11 -30 5 -30 -6 0 -15 10 -20
23 -5 12 -9 16 -9 9 -1 -9 -6 -10 -20 -2 -11 5 -28 10 -38 9 -10 0 2 -7 25
-16 80 -28 201 -175 202 -245 1 -21 2 -21 11 -5 12 20 15 143 4 176 -5 17 -10
19 -20 11 -9 -8 -10 -21 -4 -48 5 -20 9 -46 9 -57 0 -17 -2 -17 -10 -5 -5 8
-10 29 -10 45 0 43 -15 63 -28 39 -10 -18 -11 -17 -21 9 -13 34 -14 47 -2 28
7 -11 15 -9 40 10 17 12 31 27 31 33 0 5 -11 -1 -24 -13 -41 -39 -94 -11 -122
66 -10 28 -13 32 -14 15z m55 -92 c3 -5 2 -10 -4 -10 -5 0 -13 5 -16 10 -3 6
-2 10 4 10 5 0 13 -4 16 -10z"/>
<path d="M2040 662 c0 -5 7 -9 15 -9 8 0 12 4 9 9 -3 4 -9 8 -15 8 -5 0 -9 -4
-9 -8z"/>
<path d="M2500 626 c0 -2 9 -6 20 -9 11 -3 20 -1 20 4 0 5 -9 9 -20 9 -11 0
-20 -2 -20 -4z"/>
<path d="M1678 613 c7 -3 16 -2 19 1 4 3 -2 6 -13 5 -11 0 -14 -3 -6 -6z"/>
<path d="M788 598 c6 -6 18 -8 28 -6 14 3 12 5 -9 10 -19 3 -25 2 -19 -4z"/>
<path d="M1430 590 c-9 -6 -10 -10 -3 -10 6 0 15 5 18 10 8 12 4 12 -15 0z"/>
<path d="M1310 585 c0 -2 10 -10 23 -16 20 -11 21 -11 8 4 -13 16 -31 23 -31
12z"/>
<path d="M1176 565 c-9 -26 -7 -32 5 -12 6 10 9 21 6 23 -2 3 -7 -2 -11 -11z"/>
<path d="M2435 560 c-7 -12 2 -12 30 0 19 8 19 9 -2 9 -12 1 -25 -3 -28 -9z"/>
<path d="M910 535 c7 -8 17 -15 22 -15 6 0 5 7 -2 15 -7 8 -17 15 -22 15 -6 0
-5 -7 2 -15z"/>
<path d="M999 548 c0 -2 -2 -13 -3 -25 -2 -17 0 -20 10 -12 7 6 10 17 7 25 -5
12 -12 18 -14 12z"/>
<path d="M1315 508 l-40 -43 43 40 c39 36 47 45 39 45 -2 0 -21 -19 -42 -42z"/>
<path d="M1515 534 c-42 -15 -105 -77 -105 -103 0 -9 8 -1 17 18 19 38 68 72
91 63 9 -3 13 -1 9 5 -16 25 108 31 152 8 16 -8 39 -27 51 -42 19 -24 20 -25
8 -3 -8 14 -30 35 -48 48 -39 26 -112 29 -175 6z"/>
<path d="M1160 513 c0 -10 -3 -43 -6 -73 -4 -30 -4 -53 -1 -49 4 3 9 30 12 60
4 29 8 60 10 67 3 6 0 12 -5 12 -6 0 -10 -8 -10 -17z"/>
<path d="M949 503 c-13 -16 -12 -17 4 -4 16 13 21 21 13 21 -2 0 -10 -8 -17
-17z"/>
<path d="M1095 510 c4 -6 1 -17 -5 -26 -24 -27 4 -264 30 -264 4 0 3 19 -2 43
-6 23 -10 90 -10 150 0 64 -3 107 -9 107 -6 0 -7 -5 -4 -10z"/>
<path d="M906 487 c3 -10 9 -15 12 -12 3 3 0 11 -7 18 -10 9 -11 8 -5 -6z"/>
<path d="M1226 452 c-3 -20 -5 -71 -4 -112 l1 -75 8 65 c5 36 11 84 15 106 3
24 2 44 -4 48 -5 3 -12 -11 -16 -32z"/>
<path d="M2083 435 c0 -22 2 -30 4 -17 2 12 2 30 0 40 -3 9 -5 -1 -4 -23z"/>
<path d="M914 430 c0 -13 4 -16 10 -10 7 7 7 13 0 20 -6 6 -10 3 -10 -10z"/>
<path d="M1751 418 c-2 -66 -6 -70 -62 -48 -27 11 -49 15 -49 10 0 -6 8 -10
18 -10 24 -1 92 -39 69 -40 -10 0 -31 7 -47 15 -17 9 -30 11 -30 6 0 -14 41
-41 52 -35 4 3 8 -1 8 -10 0 -8 6 -17 13 -19 6 -3 -3 -4 -21 -2 -50 5 -138
-12 -189 -36 -24 -12 -68 -43 -97 -70 -38 -34 -53 -43 -53 -31 0 9 4 23 10 30
7 9 6 11 -7 6 -10 -4 -18 0 -22 10 -10 27 -27 18 -20 -10 17 -66 76 -101 91
-55 3 11 15 23 26 26 11 4 16 11 13 18 -5 8 -2 8 7 0 16 -15 33 -17 24 -3 -3
6 1 7 10 3 14 -5 14 -8 3 -15 -8 -6 3 -7 32 -2 25 4 79 8 120 10 41 1 80 3 85
4 36 8 85 -40 85 -84 0 -16 3 -26 7 -23 3 4 6 25 5 48 -1 24 5 50 14 62 l16
22 -5 -23 c-4 -18 -3 -21 7 -13 7 6 16 8 19 4 4 -3 -2 21 -14 55 -16 47 -28
66 -58 86 -20 14 -42 26 -49 26 -14 0 -15 11 -3 43 6 15 6 37 1 54 -8 28 -8
27 -9 -9z m-62 -149 c17 -6 31 -15 31 -19 0 -5 -15 -1 -32 7 -53 26 -53 31 1
12z"/>
<path d="M2570 429 c-32 -6 -32 -6 -7 -8 16 0 38 -11 48 -23 18 -20 19 -20 11
-3 -5 11 -11 25 -13 30 -2 6 -19 8 -39 4z"/>
<path d="M866 411 c-18 -7 -16 -9 12 -19 30 -10 32 -10 22 8 -6 11 -12 20 -13
19 -1 0 -11 -4 -21 -8z"/>
<path d="M1401 394 c0 -11 3 -14 6 -6 3 7 2 16 -1 19 -3 4 -6 -2 -5 -13z"/>
<path d="M820 392 c0 -18 25 -31 40 -22 17 10 13 15 -17 24 -13 4 -23 3 -23
-2z"/>
<path d="M1152 330 c0 -19 2 -27 5 -17 2 9 2 25 0 35 -3 9 -5 1 -5 -18z"/>
<path d="M1421 343 c7 -12 15 -20 18 -17 3 2 -3 12 -13 22 -17 16 -18 16 -5
-5z"/>
<path d="M2448 333 c7 -3 16 -2 19 1 4 3 -2 6 -13 5 -11 0 -14 -3 -6 -6z"/>
<path d="M2368 313 c7 -3 16 -2 19 1 4 3 -2 6 -13 5 -11 0 -14 -3 -6 -6z"/>
<path d="M2325 300 c-19 -8 -19 -9 3 -9 12 -1 22 4 22 9 0 6 -1 10 -2 9 -2 0
-12 -4 -23 -9z"/>
<path d="M1055 200 c-11 -4 -31 -20 -45 -36 l-25 -28 29 22 c36 28 43 28 40 0
-1 -13 -3 -29 -3 -36 -1 -7 -12 -17 -25 -22 -13 -5 -44 -24 -69 -42 -24 -18
-53 -38 -63 -45 -16 -10 -10 -12 39 -12 51 -1 57 1 57 19 0 27 41 27 58 0 15
-25 40 -25 72 0 29 23 14 27 -17 5 -21 -14 -24 -14 -43 5 -25 25 -25 31 0 82
23 48 24 52 10 43 -14 -9 -13 8 2 23 7 7 8 12 3 12 -6 0 -3 5 5 10 18 12 3 12
-25 0z"/>
<path d="M979 173 c-13 -16 -12 -17 4 -4 16 13 21 21 13 21 -2 0 -10 -8 -17
-17z"/>
<path d="M1090 184 c0 -23 64 -52 76 -33 3 5 -8 9 -25 9 -18 0 -34 7 -40 18
-6 9 -11 12 -11 6z"/>
<path d="M1722 148 c-25 -25 0 -64 32 -52 21 8 21 50 0 58 -20 8 -18 8 -32 -6z"/>
<path d="M2004 142 c6 -17 3 -19 -15 -15 -15 4 -20 3 -15 -6 4 -6 12 -8 18 -5
7 5 8 2 3 -7 -8 -12 -6 -12 8 0 19 15 22 37 6 47 -7 4 -9 0 -5 -14z"/>
<path d="M1442 138 c-16 -16 -15 -33 2 -47 22 -18 48 -2 44 28 -3 28 -27 38
-46 19z"/>
<path d="M899 113 c-13 -16 -12 -17 4 -4 16 13 21 21 13 21 -2 0 -10 -8 -17
-17z"/>
<path d="M1270 123 c-8 -4 -25 -17 -36 -31 -14 -15 -24 -20 -28 -13 -4 6 -11
11 -16 11 -13 0 -40 -55 -39 -77 0 -14 2 -15 6 -3 10 29 48 50 90 50 33 0 43
-4 48 -20 3 -11 12 -20 20 -20 7 0 16 -6 18 -12 4 -10 6 -10 6 0 1 7 -6 15
-14 18 -13 5 -41 78 -37 97 1 4 1 7 0 6 -2 0 -10 -3 -18 -6z"/>
<path d="M1596 113 c-11 -11 -6 -23 9 -23 8 0 15 4 15 9 0 13 -16 22 -24 14z"/>
<path d="M2926 111 c5 -5 25 -12 44 -15 l35 -6 -35 14 c-42 17 -58 20 -44 7z"/>
<path d="M1907 83 c-7 -16 -18 -27 -23 -26 -5 0 -15 -6 -23 -14 -12 -13 -11
-14 10 -8 44 15 120 12 130 -5 6 -10 7 -5 3 15 -9 39 -22 65 -34 65 -5 0 -14
-8 -19 -17 -10 -17 -10 -17 -11 0 0 26 -17 21 -33 -10z"/>
<path d="M1370 44 c0 -10 5 -26 10 -34 8 -11 9 -7 4 15 -8 37 -14 45 -14 19z"/>
<path d="M1585 46 c-32 -17 -20 -42 20 -42 27 0 34 4 38 24 3 16 0 22 -8 18
-7 -2 -16 -1 -21 3 -5 4 -18 3 -29 -3z"/>
<path d="M1811 32 c-13 -25 -14 -32 -2 -32 9 0 23 41 16 48 -2 2 -8 -5 -14
-16z"/>
</g>
</svg>
