<svg id="Layer_1" data-name="Layer 1" xmlns="http://www.w3.org/2000/svg" viewBox="0 0 1200.1 361.35"><polygon points="857.6 60.85 925.6 60.85 807.2 355.05 728.7 355.05 610.3 60.85 678.3 60.85 767.7 284.15 857.6 60.85" style="fill:#ff433e"/><rect width="61.9" height="355.1" style="fill:#ff433e"/><polygon points="231.4 355.15 95.6 177.55 231.4 0.05 309.1 0.05 175.2 177.55 309.1 355.15 231.4 355.15" style="fill:#ff433e"/><path d="M457.4,53.3c-67.8,0-118.9,37.5-122.6,93.2l-.4,6.5h60.8l1-4.8c5.6-26.2,27-40.6,60.1-40.6,36,0,56.6,18.1,56.6,49.7v18.2l-76.2,4.3c-68.6,4-110.1,37.6-110.1,89.8,0,55,41.3,92,102,92,36.2,0,62.6-9.9,84.1-31.9v27h61.7v-204C574.3,92.3,527.7,53.3,457.4,53.3Zm55.5,170.1v18.3c-4,39.9-31.6,65-74,67.1-16.3.8-30.4-3.6-39.7-12.4-7.3-6.9-11.1-16.1-11.1-26.6,0-23.4,20-38.2,54.9-40.4Z" transform="translate(0 -0.25)" style="fill:#ff433e"/><path d="M1083.1,53.3c-67.8,0-118.9,37.5-122.6,93.2l-.4,6.5h60.8l1-4.8c5.6-26.2,27-40.6,60.1-40.6,36,0,56.6,18.1,56.6,49.7v18.2l-76.2,4.3c-68.6,4-110.1,37.6-110.1,89.8,0,55,41.3,92,102,92,36.2,0,62.6-9.9,84.1-31.9v27h61.7v-204C1200,92.3,1153.4,53.3,1083.1,53.3Zm55.5,170.1v18.3c-4,39.9-31.6,65-74,67.1-16.3.8-30.4-3.6-39.7-12.4-7.3-6.9-11.1-16.1-11.1-26.6,0-23.4,20-38.2,54.9-40.4Z" transform="translate(0 -0.25)" style="fill:#ff433e"/></svg>