<?xml version="1.0" encoding="UTF-8" standalone="no"?>
<!-- Created with Inkscape (http://www.inkscape.org/) -->
<svg
   xmlns:svg="http://www.w3.org/2000/svg"
   xmlns="http://www.w3.org/2000/svg"
   version="1.0"
   width="247.96001"
   height="112.25"
   id="svg2"
   xml:space="preserve"><defs
     id="defs5"><clipPath
       id="clipPath17"><path
         d="M 0,515.905 L 595.275,515.905 L 595.275,714.331 L 0,714.331 L 0,515.905 z"
         id="path19" /></clipPath><clipPath
       id="clipPath31"><path
         d="M 0,0 L 595.276,0 L 595.276,841.89 L 0,841.89 L 0,0 z"
         id="path33" /></clipPath><clipPath
       id="clipPath39"><path
         d="M 359.522,715.331 L 534.184,715.331 L 534.184,514.906 L 359.522,514.906 L 359.522,715.331 z"
         id="path41" /></clipPath><clipPath
       id="clipPath55"><path
         d="M 383.345,715.331 L 558.008,715.331 L 558.008,514.906 L 383.345,514.906 L 383.345,715.331 z"
         id="path57" /></clipPath><clipPath
       id="clipPath71"><path
         d="M 432.494,715.331 L 607.156,715.331 L 607.156,514.906 L 432.494,514.906 L 432.494,715.331 z"
         id="path73" /></clipPath><clipPath
       id="clipPath87"><path
         d="M 478.306,715.331 L 652.969,715.331 L 652.969,514.906 L 478.306,514.906 L 478.306,715.331 z"
         id="path89" /></clipPath><clipPath
       id="clipPath103"><path
         d="M 507.944,715.331 L 682.607,715.331 L 682.607,514.906 L 507.944,514.906 L 507.944,715.331 z"
         id="path105" /></clipPath><clipPath
       id="clipPath119"><path
         d="M 564.795,715.331 L 739.458,715.331 L 739.458,514.906 L 564.795,514.906 L 564.795,715.331 z"
         id="path121" /></clipPath><clipPath
       id="clipPath145"><path
         d="M 29.52,60.076 L 225.49,60.076 L 225.49,147.085 L 29.52,147.085 L 29.52,60.076 z"
         id="path147" /></clipPath><clipPath
       id="clipPath157"><path
         d="M 0,0 L 595.276,0 L 595.276,841.89 L 0,841.89 L 0,0 z"
         id="path159" /></clipPath><clipPath
       id="clipPath169"><path
         d="M 42.52,758.116 L 88.558,758.116 L 88.558,801.389 L 42.52,801.389 L 42.52,758.116 z"
         id="path171" /></clipPath><linearGradient
       x1="0"
       y1="0"
       x2="1"
       y2="0"
       id="linearGradient189"
       gradientUnits="userSpaceOnUse"
       gradientTransform="matrix(37.265137,0,0,37.265137,44.151474,782.52913)"
       spreadMethod="pad"><stop
         id="stop191"
         style="stop-color:#2251a7;stop-opacity:1"
         offset="0" /><stop
         id="stop193"
         style="stop-color:#b5b9e3;stop-opacity:1"
         offset="0.77595502" /><stop
         id="stop195"
         style="stop-color:#b5b9e3;stop-opacity:1"
         offset="0.77595502" /><stop
         id="stop197"
         style="stop-color:#b5b9e3;stop-opacity:1"
         offset="1" /></linearGradient><linearGradient
       x1="0"
       y1="0"
       x2="1"
       y2="0"
       id="linearGradient213"
       gradientUnits="userSpaceOnUse"
       gradientTransform="matrix(0,19.021423,-19.021423,0,62.573502,768.68025)"
       spreadMethod="pad"><stop
         id="stop215"
         style="stop-color:#2754a9;stop-opacity:1"
         offset="0" /><stop
         id="stop217"
         style="stop-color:#6375c0;stop-opacity:1"
         offset="1" /></linearGradient><linearGradient
       x1="0"
       y1="0"
       x2="1"
       y2="0"
       id="linearGradient241"
       gradientUnits="userSpaceOnUse"
       gradientTransform="matrix(22.973267,-21.441757,21.441757,22.973267,58.417343,787.98312)"
       spreadMethod="pad"><stop
         id="stop243"
         style="stop-color:#ffffff;stop-opacity:1"
         offset="0" /><stop
         id="stop245"
         style="stop-color:#e51836;stop-opacity:1"
         offset="0.382507" /><stop
         id="stop247"
         style="stop-color:#e51836;stop-opacity:1"
         offset="1" /></linearGradient><radialGradient
       cx="0"
       cy="0"
       r="1"
       fx="0"
       fy="0"
       id="radialGradient263"
       gradientUnits="userSpaceOnUse"
       gradientTransform="matrix(13.943405,0,0,-13.943405,61.243271,785.57788)"
       spreadMethod="pad"><stop
         id="stop265"
         style="stop-color:#ffffff;stop-opacity:1"
         offset="0" /><stop
         id="stop267"
         style="stop-color:#e51836;stop-opacity:1"
         offset="0.30899" /><stop
         id="stop269"
         style="stop-color:#e51836;stop-opacity:1"
         offset="1" /></radialGradient><clipPath
       id="clipPath297"><path
         d="M 42.52,747.101 L 270.226,747.101 L 270.226,801.37 L 42.52,801.37 L 42.52,747.101 z"
         id="path299" /></clipPath><linearGradient
       x1="0"
       y1="0"
       x2="1"
       y2="0"
       id="linearGradient433"
       gradientUnits="userSpaceOnUse"
       gradientTransform="matrix(66.469009,0,0,-66.469009,486.83424,786.28882)"
       spreadMethod="pad"><stop
         id="stop435"
         style="stop-color:#dad9d9;stop-opacity:1"
         offset="0" /><stop
         id="stop437"
         style="stop-color:#605e5e;stop-opacity:1"
         offset="1" /></linearGradient><clipPath
       id="clipPath445"><path
         d="M 413.859,739.877 L 560.645,739.877 L 560.645,795.369 L 413.859,795.369 L 413.859,739.877 z"
         id="path447" /></clipPath><clipPath
       id="clipPath873"><path
         d="M 0,0 L 595.276,0 L 595.276,841.89 L 0,841.89 L 0,0 z"
         id="path875" /></clipPath><clipPath
       id="clipPath959"><path
         d="M 0,0 L 595.276,0 L 595.276,841.89 L 0,841.89 L 0,0 z"
         id="path961" /></clipPath></defs><g
     transform="matrix(1.25,0,0,-1.25,-36.9,183.6025)"
     id="g11"><g
       transform="translate(0.9121476,-1.520246)"
       id="g141"><g
         clip-path="url(#clipPath145)"
         id="g143"><g
           transform="translate(124.8885,135.136)"
           id="g149"><path
             d="M 0,0 L -73.572,-30.768 C -74.61,-31.198 -74.61,-31.91 -73.572,-32.342 L 0,-63.107 C 1.441,-63.714 3.798,-63.714 5.237,-63.107 L 78.816,-32.342 C 79.852,-31.91 79.852,-31.198 78.816,-30.768 L 5.237,0 C 3.798,0.602 1.441,0.602 0,0 M 97.77,-27.161 C 99.45,-27.913 100.602,-29.595 100.602,-31.556 C 100.602,-33.517 99.434,-35.198 97.749,-35.943 L 6.16,-74.244 C 4.213,-75.06 1.024,-75.06 -0.925,-74.244 L -92.509,-35.948 C -94.189,-35.198 -95.369,-33.517 -95.369,-31.556 C -95.369,-29.595 -94.193,-27.902 -92.509,-27.152 L -0.925,11.137 C 1.024,11.949 4.213,11.949 6.16,11.137 L 97.77,-27.161 z M 48.127,-29.454 C 48.931,-29.811 49.481,-30.619 49.481,-31.556 C 49.481,-32.492 48.92,-33.296 48.118,-33.655 L 4.311,-51.973 C 3.381,-52.36 1.857,-52.36 0.927,-51.973 L -42.876,-33.655 C -43.68,-33.296 -44.245,-32.492 -44.245,-31.556 C -44.245,-30.619 -43.683,-29.806 -42.876,-29.454 L 0.927,-11.137 C 1.857,-10.747 3.381,-10.747 4.311,-11.137 L 48.127,-29.454 z M 1.851,-40.834 C 2.274,-41.009 2.965,-41.009 3.39,-40.834 L 25.028,-31.787 C 25.331,-31.66 25.331,-31.45 25.028,-31.324 L 3.39,-22.271 C 2.965,-22.096 2.274,-22.096 1.851,-22.271 L -19.792,-31.324 C -20.095,-31.45 -20.095,-31.66 -19.792,-31.787 L 1.851,-40.834 z"
             id="path151"
             style="fill:#ef2446;fill-opacity:1;fill-rule:nonzero;stroke:none" /></g></g></g><g
       id="g869" /></g></svg>
